ISO-10303-21;
HEADER;
/* Generated by software containing ST-Developer
 * from STEP Tools, Inc. (www.steptools.com) 
 */

FILE_DESCRIPTION(
/* description */ (''),
/* implementation_level */ '2;1');

FILE_NAME(
/* name */ 'Component1.step',
/* time_stamp */ '2025-12-18T20:54:34+02:00',
/* author */ (''),
/* organization */ (''),
/* preprocessor_version */ 'ST-DEVELOPER v20.1',
/* originating_system */ 'Autodesk Translation Framework v14.21.0.0',
/* authorisation */ '');

FILE_SCHEMA (('AUTOMOTIVE_DESIGN { 1 0 10303 214 3 1 1 }'));
ENDSEC;

DATA;
#10=MECHANICAL_DESIGN_GEOMETRIC_PRESENTATION_REPRESENTATION('',(#13),#1427);
#11=SHAPE_REPRESENTATION_RELATIONSHIP('SRR','None',#1434,#12);
#12=ADVANCED_BREP_SHAPE_REPRESENTATION('',(#14),#1426);
#13=STYLED_ITEM('',(#1444),#14);
#14=MANIFOLD_SOLID_BREP('Body1',#735);
#15=FACE_BOUND('',#148,.T.);
#16=FACE_BOUND('',#149,.T.);
#17=FACE_BOUND('',#155,.T.);
#18=FACE_BOUND('',#161,.T.);
#19=CYLINDRICAL_SURFACE('',#763,10.);
#20=CYLINDRICAL_SURFACE('',#768,10.);
#21=CYLINDRICAL_SURFACE('',#773,10.);
#22=CYLINDRICAL_SURFACE('',#778,10.);
#23=CYLINDRICAL_SURFACE('',#780,85.);
#24=CYLINDRICAL_SURFACE('',#783,85.);
#25=CYLINDRICAL_SURFACE('',#785,10.);
#26=CYLINDRICAL_SURFACE('',#789,10.);
#27=CYLINDRICAL_SURFACE('',#794,10.);
#28=CYLINDRICAL_SURFACE('',#799,10.);
#29=CYLINDRICAL_SURFACE('',#814,85.);
#30=CYLINDRICAL_SURFACE('',#816,85.);
#31=B_SPLINE_CURVE_WITH_KNOTS('',3,(#1088,#1089,#1090,#1091,#1092,#1093,
#1094,#1095,#1096,#1097,#1098,#1099,#1100,#1101),.UNSPECIFIED.,.F.,.F.,
(4,2,2,2,2,2,4),(-0.00149921086464592,0.,0.218574498579204,0.436390938508162,
0.834477765787062,1.2203865629794,1.60052288722552),.UNSPECIFIED.);
#32=B_SPLINE_CURVE_WITH_KNOTS('',3,(#1113,#1114,#1115,#1116,#1117,#1118,
#1119,#1120,#1121,#1122,#1123,#1124,#1125,#1126,#1127,#1128,#1129,#1130,
#1131,#1132,#1133,#1134,#1135,#1136,#1137,#1138,#1139,#1140,#1141,#1142,
#1143,#1144,#1145,#1146),.UNSPECIFIED.,.F.,.F.,(4,2,2,2,2,2,2,2,2,2,2,2,
2,2,2,2,4),(0.,0.379680430708225,0.765126411495966,1.16273581738548,1.57339848221297,
1.59974512371849,1.60077557473782,1.60080191799054,1.6008145363604,1.60123405730027,
3.78010676103137,4.70165766632939,5.36666652901411,6.0968521034764,7.36925666138571,
8.76176405026573,8.7665230517661),.UNSPECIFIED.);
#33=B_SPLINE_CURVE_WITH_KNOTS('',3,(#1150,#1151,#1152,#1153,#1154,#1155,
#1156,#1157,#1158,#1159,#1160,#1161,#1162,#1163),.UNSPECIFIED.,.F.,.F.,
(4,2,2,2,2,2,4),(-1.60052289029842,-1.22038656530585,-0.834477767355688,
-0.436390939295099,-0.218574498938404,0.,0.00149921087034336),
 .UNSPECIFIED.);
#34=B_SPLINE_CURVE_WITH_KNOTS('',3,(#1180,#1181,#1182,#1183,#1184,#1185,
#1186,#1187,#1188,#1189,#1190,#1191,#1192,#1193,#1194,#1195,#1196,#1197,
#1198,#1199,#1200,#1201,#1202,#1203,#1204,#1205,#1206,#1207,#1208,#1209,
#1210,#1211,#1212,#1213),.UNSPECIFIED.,.F.,.F.,(4,2,2,2,2,2,2,2,2,2,2,2,
2,2,2,2,4),(0.,0.379680430708191,0.765126411495886,1.1627358173854,1.57339848221285,
1.59974512373942,1.60077555435371,1.60080196496584,1.60082434542635,1.60120403497363,
4.31388970219775,5.46121954380482,6.28914218064309,7.19819618093929,8.78226479628646,
10.515982765667,10.5219076090296),.UNSPECIFIED.);
#35=B_SPLINE_CURVE_WITH_KNOTS('',3,(#1236,#1237,#1238,#1239,#1240,#1241,
#1242,#1243,#1244,#1245,#1246,#1247,#1248,#1249,#1250,#1251,#1252,#1253,
#1254,#1255,#1256,#1257,#1258,#1259,#1260,#1261,#1262,#1263,#1264,#1265,
#1266,#1267,#1268,#1269,#1270,#1271),.UNSPECIFIED.,.F.,.F.,(4,2,2,2,2,2,
2,2,2,2,2,2,2,2,2,2,2,4),(-65.9472480447699,-65.9042371875187,-58.6722305224063,
-43.9872142272177,-36.708056061997,-30.7727742203855,-23.4608205120571,
-8.62644338150881,-1.6009564793231,-1.60088706693208,-1.60081615586636,
-1.60078462371791,-1.59974512341453,-1.57339848221261,-1.1627358173854,
-0.765126411495891,-0.379680430708194,0.),.UNSPECIFIED.);
#36=B_SPLINE_CURVE_WITH_KNOTS('',3,(#1274,#1275,#1276,#1277,#1278,#1279,
#1280,#1281,#1282,#1283,#1284,#1285,#1286,#1287),.UNSPECIFIED.,.F.,.F.,
(4,2,2,2,2,2,4),(-0.0014992109385063,0.,0.218574503118063,0.436390948451249,
0.834477785607047,1.22038659237412,1.60052292605174),.UNSPECIFIED.);
#37=B_SPLINE_CURVE_WITH_KNOTS('',3,(#1293,#1294,#1295,#1296,#1297,#1298,
#1299,#1300,#1301,#1302,#1303,#1304,#1305,#1306),.UNSPECIFIED.,.F.,.F.,
(4,2,2,2,2,2,4),(-0.00149921093840717,0.,0.218574503108644,0.436390948430509,
0.834477785565561,1.22038659231257,1.60052292597042),.UNSPECIFIED.);
#38=B_SPLINE_CURVE_WITH_KNOTS('',3,(#1308,#1309,#1310,#1311,#1312,#1313,
#1314,#1315,#1316,#1317,#1318,#1319,#1320,#1321,#1322,#1323,#1324,#1325,
#1326,#1327,#1328,#1329,#1330,#1331,#1332,#1333,#1334,#1335,#1336,#1337,
#1338,#1339,#1340,#1341,#1342,#1343),.UNSPECIFIED.,.F.,.F.,(4,2,2,2,2,2,
2,2,2,2,2,2,2,2,2,2,2,4),(-11.3698121888794,-11.3635669200129,-10.731405931329,
-8.34631276549194,-7.23422785339433,-6.37233511849454,-5.36183978469552,
-3.44399469585104,-1.60098052641616,-1.60084770285642,-1.60081649466294,
-1.60078318618583,-1.59974512367597,-1.5733984822127,-1.16273581738541,
-0.765126411495939,-0.379680430708214,0.),.UNSPECIFIED.);
#39=CIRCLE('',#760,85.);
#40=CIRCLE('',#761,10.);
#41=CIRCLE('',#762,75.);
#42=CIRCLE('',#764,10.);
#43=CIRCLE('',#766,75.);
#44=CIRCLE('',#767,85.);
#45=CIRCLE('',#770,85.);
#46=CIRCLE('',#771,10.);
#47=CIRCLE('',#772,75.);
#48=CIRCLE('',#774,10.);
#49=CIRCLE('',#776,75.);
#50=CIRCLE('',#777,85.);
#51=CIRCLE('',#781,85.);
#52=CIRCLE('',#784,85.);
#53=CIRCLE('',#787,10.);
#54=CIRCLE('',#788,75.);
#55=CIRCLE('',#791,85.);
#56=CIRCLE('',#792,10.);
#57=CIRCLE('',#793,75.);
#58=CIRCLE('',#795,10.);
#59=CIRCLE('',#797,75.);
#60=CIRCLE('',#798,85.);
#61=CIRCLE('',#800,10.);
#62=CIRCLE('',#802,75.);
#63=TOROIDAL_SURFACE('',#759,75.,10.);
#64=TOROIDAL_SURFACE('',#765,75.,10.);
#65=TOROIDAL_SURFACE('',#769,75.,10.);
#66=TOROIDAL_SURFACE('',#775,75.,10.);
#67=TOROIDAL_SURFACE('',#786,75.,10.);
#68=TOROIDAL_SURFACE('',#790,75.,10.);
#69=TOROIDAL_SURFACE('',#796,75.,10.);
#70=TOROIDAL_SURFACE('',#801,75.,10.);
#71=FACE_OUTER_BOUND('',#117,.T.);
#72=FACE_OUTER_BOUND('',#118,.T.);
#73=FACE_OUTER_BOUND('',#119,.T.);
#74=FACE_OUTER_BOUND('',#120,.T.);
#75=FACE_OUTER_BOUND('',#121,.T.);
#76=FACE_OUTER_BOUND('',#122,.T.);
#77=FACE_OUTER_BOUND('',#123,.T.);
#78=FACE_OUTER_BOUND('',#124,.T.);
#79=FACE_OUTER_BOUND('',#125,.T.);
#80=FACE_OUTER_BOUND('',#126,.T.);
#81=FACE_OUTER_BOUND('',#127,.T.);
#82=FACE_OUTER_BOUND('',#128,.T.);
#83=FACE_OUTER_BOUND('',#129,.T.);
#84=FACE_OUTER_BOUND('',#130,.T.);
#85=FACE_OUTER_BOUND('',#131,.T.);
#86=FACE_OUTER_BOUND('',#132,.T.);
#87=FACE_OUTER_BOUND('',#133,.T.);
#88=FACE_OUTER_BOUND('',#134,.T.);
#89=FACE_OUTER_BOUND('',#135,.T.);
#90=FACE_OUTER_BOUND('',#136,.T.);
#91=FACE_OUTER_BOUND('',#137,.T.);
#92=FACE_OUTER_BOUND('',#138,.T.);
#93=FACE_OUTER_BOUND('',#139,.T.);
#94=FACE_OUTER_BOUND('',#140,.T.);
#95=FACE_OUTER_BOUND('',#141,.T.);
#96=FACE_OUTER_BOUND('',#142,.T.);
#97=FACE_OUTER_BOUND('',#143,.T.);
#98=FACE_OUTER_BOUND('',#144,.T.);
#99=FACE_OUTER_BOUND('',#145,.T.);
#100=FACE_OUTER_BOUND('',#146,.T.);
#101=FACE_OUTER_BOUND('',#147,.T.);
#102=FACE_OUTER_BOUND('',#150,.T.);
#103=FACE_OUTER_BOUND('',#151,.T.);
#104=FACE_OUTER_BOUND('',#152,.T.);
#105=FACE_OUTER_BOUND('',#153,.T.);
#106=FACE_OUTER_BOUND('',#154,.T.);
#107=FACE_OUTER_BOUND('',#156,.T.);
#108=FACE_OUTER_BOUND('',#157,.T.);
#109=FACE_OUTER_BOUND('',#158,.T.);
#110=FACE_OUTER_BOUND('',#159,.T.);
#111=FACE_OUTER_BOUND('',#160,.T.);
#112=FACE_OUTER_BOUND('',#162,.T.);
#113=FACE_OUTER_BOUND('',#163,.T.);
#114=FACE_OUTER_BOUND('',#164,.T.);
#115=FACE_OUTER_BOUND('',#165,.T.);
#116=FACE_OUTER_BOUND('',#166,.T.);
#117=EDGE_LOOP('',(#463,#464,#465,#466));
#118=EDGE_LOOP('',(#467,#468,#469,#470));
#119=EDGE_LOOP('',(#471,#472,#473,#474));
#120=EDGE_LOOP('',(#475,#476,#477,#478));
#121=EDGE_LOOP('',(#479,#480,#481,#482));
#122=EDGE_LOOP('',(#483,#484,#485,#486));
#123=EDGE_LOOP('',(#487,#488,#489,#490));
#124=EDGE_LOOP('',(#491,#492,#493,#494));
#125=EDGE_LOOP('',(#495,#496,#497,#498));
#126=EDGE_LOOP('',(#499,#500,#501,#502));
#127=EDGE_LOOP('',(#503,#504,#505,#506));
#128=EDGE_LOOP('',(#507,#508,#509,#510));
#129=EDGE_LOOP('',(#511,#512,#513,#514));
#130=EDGE_LOOP('',(#515,#516,#517));
#131=EDGE_LOOP('',(#518,#519,#520,#521));
#132=EDGE_LOOP('',(#522,#523,#524,#525));
#133=EDGE_LOOP('',(#526,#527,#528,#529));
#134=EDGE_LOOP('',(#530,#531,#532));
#135=EDGE_LOOP('',(#533,#534,#535,#536));
#136=EDGE_LOOP('',(#537,#538,#539,#540));
#137=EDGE_LOOP('',(#541,#542,#543,#544));
#138=EDGE_LOOP('',(#545,#546,#547,#548));
#139=EDGE_LOOP('',(#549,#550,#551));
#140=EDGE_LOOP('',(#552,#553,#554,#555));
#141=EDGE_LOOP('',(#556,#557,#558));
#142=EDGE_LOOP('',(#559,#560,#561,#562));
#143=EDGE_LOOP('',(#563,#564,#565,#566));
#144=EDGE_LOOP('',(#567,#568,#569,#570));
#145=EDGE_LOOP('',(#571,#572,#573,#574));
#146=EDGE_LOOP('',(#575,#576,#577,#578));
#147=EDGE_LOOP('',(#579,#580,#581,#582));
#148=EDGE_LOOP('',(#583,#584,#585,#586));
#149=EDGE_LOOP('',(#587,#588,#589,#590));
#150=EDGE_LOOP('',(#591,#592,#593,#594));
#151=EDGE_LOOP('',(#595,#596,#597,#598));
#152=EDGE_LOOP('',(#599,#600,#601,#602));
#153=EDGE_LOOP('',(#603,#604,#605,#606));
#154=EDGE_LOOP('',(#607,#608,#609,#610));
#155=EDGE_LOOP('',(#611,#612,#613,#614));
#156=EDGE_LOOP('',(#615,#616,#617,#618));
#157=EDGE_LOOP('',(#619,#620,#621,#622));
#158=EDGE_LOOP('',(#623,#624,#625,#626));
#159=EDGE_LOOP('',(#627,#628,#629,#630));
#160=EDGE_LOOP('',(#631,#632,#633,#634));
#161=EDGE_LOOP('',(#635,#636,#637,#638));
#162=EDGE_LOOP('',(#639,#640,#641,#642));
#163=EDGE_LOOP('',(#643,#644,#645,#646));
#164=EDGE_LOOP('',(#647,#648,#649,#650));
#165=EDGE_LOOP('',(#651,#652,#653,#654,#655,#656));
#166=EDGE_LOOP('',(#657,#658,#659,#660,#661,#662));
#167=LINE('',#1033,#235);
#168=LINE('',#1035,#236);
#169=LINE('',#1037,#237);
#170=LINE('',#1038,#238);
#171=LINE('',#1041,#239);
#172=LINE('',#1043,#240);
#173=LINE('',#1044,#241);
#174=LINE('',#1047,#242);
#175=LINE('',#1049,#243);
#176=LINE('',#1050,#244);
#177=LINE('',#1052,#245);
#178=LINE('',#1053,#246);
#179=LINE('',#1058,#247);
#180=LINE('',#1060,#248);
#181=LINE('',#1062,#249);
#182=LINE('',#1063,#250);
#183=LINE('',#1066,#251);
#184=LINE('',#1068,#252);
#185=LINE('',#1069,#253);
#186=LINE('',#1072,#254);
#187=LINE('',#1074,#255);
#188=LINE('',#1075,#256);
#189=LINE('',#1077,#257);
#190=LINE('',#1078,#258);
#191=LINE('',#1106,#259);
#192=LINE('',#1107,#260);
#193=LINE('',#1149,#261);
#194=LINE('',#1174,#262);
#195=LINE('',#1175,#263);
#196=LINE('',#1215,#264);
#197=LINE('',#1218,#265);
#198=LINE('',#1220,#266);
#199=LINE('',#1221,#267);
#200=LINE('',#1224,#268);
#201=LINE('',#1228,#269);
#202=LINE('',#1229,#270);
#203=LINE('',#1232,#271);
#204=LINE('',#1273,#272);
#205=LINE('',#1354,#273);
#206=LINE('',#1355,#274);
#207=LINE('',#1362,#275);
#208=LINE('',#1366,#276);
#209=LINE('',#1369,#277);
#210=LINE('',#1371,#278);
#211=LINE('',#1373,#279);
#212=LINE('',#1374,#280);
#213=LINE('',#1377,#281);
#214=LINE('',#1379,#282);
#215=LINE('',#1381,#283);
#216=LINE('',#1382,#284);
#217=LINE('',#1385,#285);
#218=LINE('',#1387,#286);
#219=LINE('',#1388,#287);
#220=LINE('',#1391,#288);
#221=LINE('',#1392,#289);
#222=LINE('',#1395,#290);
#223=LINE('',#1396,#291);
#224=LINE('',#1398,#292);
#225=LINE('',#1402,#293);
#226=LINE('',#1404,#294);
#227=LINE('',#1405,#295);
#228=LINE('',#1408,#296);
#229=LINE('',#1409,#297);
#230=LINE('',#1412,#298);
#231=LINE('',#1413,#299);
#232=LINE('',#1415,#300);
#233=LINE('',#1418,#301);
#234=LINE('',#1420,#302);
#235=VECTOR('',#823,10.);
#236=VECTOR('',#824,10.);
#237=VECTOR('',#825,10.);
#238=VECTOR('',#826,10.);
#239=VECTOR('',#829,10.);
#240=VECTOR('',#830,10.);
#241=VECTOR('',#831,10.);
#242=VECTOR('',#834,10.);
#243=VECTOR('',#835,10.);
#244=VECTOR('',#836,10.);
#245=VECTOR('',#839,10.);
#246=VECTOR('',#840,10.);
#247=VECTOR('',#845,10.);
#248=VECTOR('',#846,10.);
#249=VECTOR('',#847,10.);
#250=VECTOR('',#848,10.);
#251=VECTOR('',#851,10.);
#252=VECTOR('',#852,10.);
#253=VECTOR('',#853,10.);
#254=VECTOR('',#856,10.);
#255=VECTOR('',#857,10.);
#256=VECTOR('',#858,10.);
#257=VECTOR('',#861,10.);
#258=VECTOR('',#862,10.);
#259=VECTOR('',#877,10.);
#260=VECTOR('',#878,10.);
#261=VECTOR('',#887,10.);
#262=VECTOR('',#900,10.);
#263=VECTOR('',#901,10.);
#264=VECTOR('',#910,10.);
#265=VECTOR('',#913,10.);
#266=VECTOR('',#914,10.);
#267=VECTOR('',#915,10.);
#268=VECTOR('',#918,10.);
#269=VECTOR('',#923,10.);
#270=VECTOR('',#924,10.);
#271=VECTOR('',#927,10.);
#272=VECTOR('',#932,10.);
#273=VECTOR('',#953,10.);
#274=VECTOR('',#954,10.);
#275=VECTOR('',#965,10.);
#276=VECTOR('',#972,10.);
#277=VECTOR('',#973,10.);
#278=VECTOR('',#974,10.);
#279=VECTOR('',#975,10.);
#280=VECTOR('',#976,10.);
#281=VECTOR('',#977,10.);
#282=VECTOR('',#978,10.);
#283=VECTOR('',#979,10.);
#284=VECTOR('',#980,10.);
#285=VECTOR('',#983,10.);
#286=VECTOR('',#984,10.);
#287=VECTOR('',#985,10.);
#288=VECTOR('',#988,10.);
#289=VECTOR('',#989,10.);
#290=VECTOR('',#992,10.);
#291=VECTOR('',#993,10.);
#292=VECTOR('',#996,10.);
#293=VECTOR('',#1001,10.);
#294=VECTOR('',#1002,10.);
#295=VECTOR('',#1003,10.);
#296=VECTOR('',#1006,10.);
#297=VECTOR('',#1007,10.);
#298=VECTOR('',#1010,10.);
#299=VECTOR('',#1011,10.);
#300=VECTOR('',#1014,10.);
#301=VECTOR('',#1019,10.);
#302=VECTOR('',#1022,10.);
#303=VERTEX_POINT('',#1031);
#304=VERTEX_POINT('',#1032);
#305=VERTEX_POINT('',#1034);
#306=VERTEX_POINT('',#1036);
#307=VERTEX_POINT('',#1040);
#308=VERTEX_POINT('',#1042);
#309=VERTEX_POINT('',#1046);
#310=VERTEX_POINT('',#1048);
#311=VERTEX_POINT('',#1056);
#312=VERTEX_POINT('',#1057);
#313=VERTEX_POINT('',#1059);
#314=VERTEX_POINT('',#1061);
#315=VERTEX_POINT('',#1065);
#316=VERTEX_POINT('',#1067);
#317=VERTEX_POINT('',#1071);
#318=VERTEX_POINT('',#1073);
#319=VERTEX_POINT('',#1081);
#320=VERTEX_POINT('',#1082);
#321=VERTEX_POINT('',#1084);
#322=VERTEX_POINT('',#1086);
#323=VERTEX_POINT('',#1103);
#324=VERTEX_POINT('',#1104);
#325=VERTEX_POINT('',#1109);
#326=VERTEX_POINT('',#1111);
#327=VERTEX_POINT('',#1148);
#328=VERTEX_POINT('',#1165);
#329=VERTEX_POINT('',#1167);
#330=VERTEX_POINT('',#1171);
#331=VERTEX_POINT('',#1172);
#332=VERTEX_POINT('',#1178);
#333=VERTEX_POINT('',#1217);
#334=VERTEX_POINT('',#1219);
#335=VERTEX_POINT('',#1223);
#336=VERTEX_POINT('',#1227);
#337=VERTEX_POINT('',#1231);
#338=VERTEX_POINT('',#1235);
#339=VERTEX_POINT('',#1272);
#340=VERTEX_POINT('',#1289);
#341=VERTEX_POINT('',#1291);
#342=VERTEX_POINT('',#1345);
#343=VERTEX_POINT('',#1347);
#344=VERTEX_POINT('',#1351);
#345=VERTEX_POINT('',#1352);
#346=VERTEX_POINT('',#1360);
#347=VERTEX_POINT('',#1367);
#348=VERTEX_POINT('',#1368);
#349=VERTEX_POINT('',#1370);
#350=VERTEX_POINT('',#1372);
#351=VERTEX_POINT('',#1375);
#352=VERTEX_POINT('',#1376);
#353=VERTEX_POINT('',#1378);
#354=VERTEX_POINT('',#1380);
#355=VERTEX_POINT('',#1384);
#356=VERTEX_POINT('',#1386);
#357=VERTEX_POINT('',#1390);
#358=VERTEX_POINT('',#1394);
#359=VERTEX_POINT('',#1401);
#360=VERTEX_POINT('',#1403);
#361=VERTEX_POINT('',#1407);
#362=VERTEX_POINT('',#1411);
#363=EDGE_CURVE('',#303,#304,#167,.T.);
#364=EDGE_CURVE('',#303,#305,#168,.T.);
#365=EDGE_CURVE('',#306,#305,#169,.T.);
#366=EDGE_CURVE('',#304,#306,#170,.T.);
#367=EDGE_CURVE('',#304,#307,#171,.T.);
#368=EDGE_CURVE('',#308,#306,#172,.T.);
#369=EDGE_CURVE('',#307,#308,#173,.T.);
#370=EDGE_CURVE('',#307,#309,#174,.T.);
#371=EDGE_CURVE('',#310,#308,#175,.T.);
#372=EDGE_CURVE('',#309,#310,#176,.T.);
#373=EDGE_CURVE('',#309,#303,#177,.T.);
#374=EDGE_CURVE('',#305,#310,#178,.T.);
#375=EDGE_CURVE('',#311,#312,#179,.T.);
#376=EDGE_CURVE('',#311,#313,#180,.T.);
#377=EDGE_CURVE('',#314,#313,#181,.T.);
#378=EDGE_CURVE('',#312,#314,#182,.T.);
#379=EDGE_CURVE('',#312,#315,#183,.T.);
#380=EDGE_CURVE('',#316,#314,#184,.T.);
#381=EDGE_CURVE('',#315,#316,#185,.T.);
#382=EDGE_CURVE('',#315,#317,#186,.T.);
#383=EDGE_CURVE('',#318,#316,#187,.T.);
#384=EDGE_CURVE('',#317,#318,#188,.T.);
#385=EDGE_CURVE('',#317,#311,#189,.T.);
#386=EDGE_CURVE('',#313,#318,#190,.T.);
#387=EDGE_CURVE('',#319,#320,#39,.T.);
#388=EDGE_CURVE('',#320,#321,#40,.T.);
#389=EDGE_CURVE('',#321,#322,#41,.T.);
#390=EDGE_CURVE('',#322,#319,#31,.T.);
#391=EDGE_CURVE('',#323,#324,#42,.T.);
#392=EDGE_CURVE('',#324,#321,#191,.T.);
#393=EDGE_CURVE('',#320,#323,#192,.T.);
#394=EDGE_CURVE('',#325,#324,#43,.T.);
#395=EDGE_CURVE('',#323,#326,#44,.T.);
#396=EDGE_CURVE('',#326,#325,#32,.T.);
#397=EDGE_CURVE('',#326,#327,#193,.T.);
#398=EDGE_CURVE('',#327,#325,#33,.T.);
#399=EDGE_CURVE('',#327,#328,#45,.T.);
#400=EDGE_CURVE('',#328,#329,#46,.T.);
#401=EDGE_CURVE('',#329,#325,#47,.T.);
#402=EDGE_CURVE('',#330,#331,#48,.T.);
#403=EDGE_CURVE('',#331,#329,#194,.T.);
#404=EDGE_CURVE('',#328,#330,#195,.T.);
#405=EDGE_CURVE('',#322,#331,#49,.T.);
#406=EDGE_CURVE('',#330,#332,#50,.T.);
#407=EDGE_CURVE('',#332,#322,#34,.T.);
#408=EDGE_CURVE('',#332,#319,#196,.T.);
#409=EDGE_CURVE('',#326,#333,#197,.T.);
#410=EDGE_CURVE('',#334,#333,#198,.T.);
#411=EDGE_CURVE('',#327,#334,#199,.T.);
#412=EDGE_CURVE('',#323,#335,#200,.T.);
#413=EDGE_CURVE('',#333,#335,#51,.T.);
#414=EDGE_CURVE('',#320,#336,#201,.T.);
#415=EDGE_CURVE('',#335,#336,#202,.T.);
#416=EDGE_CURVE('',#319,#337,#203,.T.);
#417=EDGE_CURVE('',#336,#337,#52,.T.);
#418=EDGE_CURVE('',#338,#337,#35,.T.);
#419=EDGE_CURVE('',#337,#339,#204,.T.);
#420=EDGE_CURVE('',#338,#339,#36,.T.);
#421=EDGE_CURVE('',#335,#340,#53,.T.);
#422=EDGE_CURVE('',#340,#341,#54,.T.);
#423=EDGE_CURVE('',#341,#333,#37,.T.);
#424=EDGE_CURVE('',#341,#334,#38,.T.);
#425=EDGE_CURVE('',#339,#342,#55,.T.);
#426=EDGE_CURVE('',#342,#343,#56,.T.);
#427=EDGE_CURVE('',#343,#338,#57,.T.);
#428=EDGE_CURVE('',#344,#345,#58,.T.);
#429=EDGE_CURVE('',#345,#343,#205,.T.);
#430=EDGE_CURVE('',#342,#344,#206,.T.);
#431=EDGE_CURVE('',#341,#345,#59,.T.);
#432=EDGE_CURVE('',#344,#334,#60,.T.);
#433=EDGE_CURVE('',#336,#346,#61,.T.);
#434=EDGE_CURVE('',#346,#340,#207,.T.);
#435=EDGE_CURVE('',#338,#346,#62,.T.);
#436=EDGE_CURVE('',#332,#339,#208,.T.);
#437=EDGE_CURVE('',#347,#348,#209,.T.);
#438=EDGE_CURVE('',#348,#349,#210,.T.);
#439=EDGE_CURVE('',#349,#350,#211,.T.);
#440=EDGE_CURVE('',#350,#347,#212,.T.);
#441=EDGE_CURVE('',#351,#352,#213,.T.);
#442=EDGE_CURVE('',#352,#353,#214,.T.);
#443=EDGE_CURVE('',#353,#354,#215,.T.);
#444=EDGE_CURVE('',#354,#351,#216,.T.);
#445=EDGE_CURVE('',#351,#355,#217,.T.);
#446=EDGE_CURVE('',#355,#356,#218,.T.);
#447=EDGE_CURVE('',#352,#356,#219,.T.);
#448=EDGE_CURVE('',#354,#357,#220,.T.);
#449=EDGE_CURVE('',#357,#355,#221,.T.);
#450=EDGE_CURVE('',#353,#358,#222,.T.);
#451=EDGE_CURVE('',#358,#357,#223,.T.);
#452=EDGE_CURVE('',#356,#358,#224,.T.);
#453=EDGE_CURVE('',#347,#359,#225,.T.);
#454=EDGE_CURVE('',#359,#360,#226,.T.);
#455=EDGE_CURVE('',#348,#360,#227,.T.);
#456=EDGE_CURVE('',#350,#361,#228,.T.);
#457=EDGE_CURVE('',#361,#359,#229,.T.);
#458=EDGE_CURVE('',#349,#362,#230,.T.);
#459=EDGE_CURVE('',#362,#361,#231,.T.);
#460=EDGE_CURVE('',#360,#362,#232,.T.);
#461=EDGE_CURVE('',#328,#344,#233,.T.);
#462=EDGE_CURVE('',#330,#342,#234,.T.);
#463=ORIENTED_EDGE('',*,*,#363,.F.);
#464=ORIENTED_EDGE('',*,*,#364,.T.);
#465=ORIENTED_EDGE('',*,*,#365,.F.);
#466=ORIENTED_EDGE('',*,*,#366,.F.);
#467=ORIENTED_EDGE('',*,*,#367,.F.);
#468=ORIENTED_EDGE('',*,*,#366,.T.);
#469=ORIENTED_EDGE('',*,*,#368,.F.);
#470=ORIENTED_EDGE('',*,*,#369,.F.);
#471=ORIENTED_EDGE('',*,*,#370,.F.);
#472=ORIENTED_EDGE('',*,*,#369,.T.);
#473=ORIENTED_EDGE('',*,*,#371,.F.);
#474=ORIENTED_EDGE('',*,*,#372,.F.);
#475=ORIENTED_EDGE('',*,*,#373,.F.);
#476=ORIENTED_EDGE('',*,*,#372,.T.);
#477=ORIENTED_EDGE('',*,*,#374,.F.);
#478=ORIENTED_EDGE('',*,*,#364,.F.);
#479=ORIENTED_EDGE('',*,*,#374,.T.);
#480=ORIENTED_EDGE('',*,*,#371,.T.);
#481=ORIENTED_EDGE('',*,*,#368,.T.);
#482=ORIENTED_EDGE('',*,*,#365,.T.);
#483=ORIENTED_EDGE('',*,*,#375,.F.);
#484=ORIENTED_EDGE('',*,*,#376,.T.);
#485=ORIENTED_EDGE('',*,*,#377,.F.);
#486=ORIENTED_EDGE('',*,*,#378,.F.);
#487=ORIENTED_EDGE('',*,*,#379,.F.);
#488=ORIENTED_EDGE('',*,*,#378,.T.);
#489=ORIENTED_EDGE('',*,*,#380,.F.);
#490=ORIENTED_EDGE('',*,*,#381,.F.);
#491=ORIENTED_EDGE('',*,*,#382,.F.);
#492=ORIENTED_EDGE('',*,*,#381,.T.);
#493=ORIENTED_EDGE('',*,*,#383,.F.);
#494=ORIENTED_EDGE('',*,*,#384,.F.);
#495=ORIENTED_EDGE('',*,*,#385,.F.);
#496=ORIENTED_EDGE('',*,*,#384,.T.);
#497=ORIENTED_EDGE('',*,*,#386,.F.);
#498=ORIENTED_EDGE('',*,*,#376,.F.);
#499=ORIENTED_EDGE('',*,*,#386,.T.);
#500=ORIENTED_EDGE('',*,*,#383,.T.);
#501=ORIENTED_EDGE('',*,*,#380,.T.);
#502=ORIENTED_EDGE('',*,*,#377,.T.);
#503=ORIENTED_EDGE('',*,*,#387,.T.);
#504=ORIENTED_EDGE('',*,*,#388,.T.);
#505=ORIENTED_EDGE('',*,*,#389,.T.);
#506=ORIENTED_EDGE('',*,*,#390,.T.);
#507=ORIENTED_EDGE('',*,*,#391,.T.);
#508=ORIENTED_EDGE('',*,*,#392,.T.);
#509=ORIENTED_EDGE('',*,*,#388,.F.);
#510=ORIENTED_EDGE('',*,*,#393,.T.);
#511=ORIENTED_EDGE('',*,*,#394,.T.);
#512=ORIENTED_EDGE('',*,*,#391,.F.);
#513=ORIENTED_EDGE('',*,*,#395,.T.);
#514=ORIENTED_EDGE('',*,*,#396,.T.);
#515=ORIENTED_EDGE('',*,*,#396,.F.);
#516=ORIENTED_EDGE('',*,*,#397,.T.);
#517=ORIENTED_EDGE('',*,*,#398,.T.);
#518=ORIENTED_EDGE('',*,*,#399,.T.);
#519=ORIENTED_EDGE('',*,*,#400,.T.);
#520=ORIENTED_EDGE('',*,*,#401,.T.);
#521=ORIENTED_EDGE('',*,*,#398,.F.);
#522=ORIENTED_EDGE('',*,*,#402,.T.);
#523=ORIENTED_EDGE('',*,*,#403,.T.);
#524=ORIENTED_EDGE('',*,*,#400,.F.);
#525=ORIENTED_EDGE('',*,*,#404,.T.);
#526=ORIENTED_EDGE('',*,*,#405,.T.);
#527=ORIENTED_EDGE('',*,*,#402,.F.);
#528=ORIENTED_EDGE('',*,*,#406,.T.);
#529=ORIENTED_EDGE('',*,*,#407,.T.);
#530=ORIENTED_EDGE('',*,*,#407,.F.);
#531=ORIENTED_EDGE('',*,*,#408,.T.);
#532=ORIENTED_EDGE('',*,*,#390,.F.);
#533=ORIENTED_EDGE('',*,*,#397,.F.);
#534=ORIENTED_EDGE('',*,*,#409,.T.);
#535=ORIENTED_EDGE('',*,*,#410,.F.);
#536=ORIENTED_EDGE('',*,*,#411,.F.);
#537=ORIENTED_EDGE('',*,*,#395,.F.);
#538=ORIENTED_EDGE('',*,*,#412,.T.);
#539=ORIENTED_EDGE('',*,*,#413,.F.);
#540=ORIENTED_EDGE('',*,*,#409,.F.);
#541=ORIENTED_EDGE('',*,*,#393,.F.);
#542=ORIENTED_EDGE('',*,*,#414,.T.);
#543=ORIENTED_EDGE('',*,*,#415,.F.);
#544=ORIENTED_EDGE('',*,*,#412,.F.);
#545=ORIENTED_EDGE('',*,*,#387,.F.);
#546=ORIENTED_EDGE('',*,*,#416,.T.);
#547=ORIENTED_EDGE('',*,*,#417,.F.);
#548=ORIENTED_EDGE('',*,*,#414,.F.);
#549=ORIENTED_EDGE('',*,*,#418,.T.);
#550=ORIENTED_EDGE('',*,*,#419,.T.);
#551=ORIENTED_EDGE('',*,*,#420,.F.);
#552=ORIENTED_EDGE('',*,*,#413,.T.);
#553=ORIENTED_EDGE('',*,*,#421,.T.);
#554=ORIENTED_EDGE('',*,*,#422,.T.);
#555=ORIENTED_EDGE('',*,*,#423,.T.);
#556=ORIENTED_EDGE('',*,*,#424,.T.);
#557=ORIENTED_EDGE('',*,*,#410,.T.);
#558=ORIENTED_EDGE('',*,*,#423,.F.);
#559=ORIENTED_EDGE('',*,*,#425,.T.);
#560=ORIENTED_EDGE('',*,*,#426,.T.);
#561=ORIENTED_EDGE('',*,*,#427,.T.);
#562=ORIENTED_EDGE('',*,*,#420,.T.);
#563=ORIENTED_EDGE('',*,*,#428,.T.);
#564=ORIENTED_EDGE('',*,*,#429,.T.);
#565=ORIENTED_EDGE('',*,*,#426,.F.);
#566=ORIENTED_EDGE('',*,*,#430,.T.);
#567=ORIENTED_EDGE('',*,*,#431,.T.);
#568=ORIENTED_EDGE('',*,*,#428,.F.);
#569=ORIENTED_EDGE('',*,*,#432,.T.);
#570=ORIENTED_EDGE('',*,*,#424,.F.);
#571=ORIENTED_EDGE('',*,*,#433,.T.);
#572=ORIENTED_EDGE('',*,*,#434,.T.);
#573=ORIENTED_EDGE('',*,*,#421,.F.);
#574=ORIENTED_EDGE('',*,*,#415,.T.);
#575=ORIENTED_EDGE('',*,*,#435,.T.);
#576=ORIENTED_EDGE('',*,*,#433,.F.);
#577=ORIENTED_EDGE('',*,*,#417,.T.);
#578=ORIENTED_EDGE('',*,*,#418,.F.);
#579=ORIENTED_EDGE('',*,*,#408,.F.);
#580=ORIENTED_EDGE('',*,*,#436,.T.);
#581=ORIENTED_EDGE('',*,*,#419,.F.);
#582=ORIENTED_EDGE('',*,*,#416,.F.);
#583=ORIENTED_EDGE('',*,*,#437,.T.);
#584=ORIENTED_EDGE('',*,*,#438,.T.);
#585=ORIENTED_EDGE('',*,*,#439,.T.);
#586=ORIENTED_EDGE('',*,*,#440,.T.);
#587=ORIENTED_EDGE('',*,*,#441,.T.);
#588=ORIENTED_EDGE('',*,*,#442,.T.);
#589=ORIENTED_EDGE('',*,*,#443,.T.);
#590=ORIENTED_EDGE('',*,*,#444,.T.);
#591=ORIENTED_EDGE('',*,*,#441,.F.);
#592=ORIENTED_EDGE('',*,*,#445,.T.);
#593=ORIENTED_EDGE('',*,*,#446,.T.);
#594=ORIENTED_EDGE('',*,*,#447,.F.);
#595=ORIENTED_EDGE('',*,*,#444,.F.);
#596=ORIENTED_EDGE('',*,*,#448,.T.);
#597=ORIENTED_EDGE('',*,*,#449,.T.);
#598=ORIENTED_EDGE('',*,*,#445,.F.);
#599=ORIENTED_EDGE('',*,*,#443,.F.);
#600=ORIENTED_EDGE('',*,*,#450,.T.);
#601=ORIENTED_EDGE('',*,*,#451,.T.);
#602=ORIENTED_EDGE('',*,*,#448,.F.);
#603=ORIENTED_EDGE('',*,*,#442,.F.);
#604=ORIENTED_EDGE('',*,*,#447,.T.);
#605=ORIENTED_EDGE('',*,*,#452,.T.);
#606=ORIENTED_EDGE('',*,*,#450,.F.);
#607=ORIENTED_EDGE('',*,*,#452,.F.);
#608=ORIENTED_EDGE('',*,*,#446,.F.);
#609=ORIENTED_EDGE('',*,*,#449,.F.);
#610=ORIENTED_EDGE('',*,*,#451,.F.);
#611=ORIENTED_EDGE('',*,*,#375,.T.);
#612=ORIENTED_EDGE('',*,*,#379,.T.);
#613=ORIENTED_EDGE('',*,*,#382,.T.);
#614=ORIENTED_EDGE('',*,*,#385,.T.);
#615=ORIENTED_EDGE('',*,*,#437,.F.);
#616=ORIENTED_EDGE('',*,*,#453,.T.);
#617=ORIENTED_EDGE('',*,*,#454,.T.);
#618=ORIENTED_EDGE('',*,*,#455,.F.);
#619=ORIENTED_EDGE('',*,*,#440,.F.);
#620=ORIENTED_EDGE('',*,*,#456,.T.);
#621=ORIENTED_EDGE('',*,*,#457,.T.);
#622=ORIENTED_EDGE('',*,*,#453,.F.);
#623=ORIENTED_EDGE('',*,*,#439,.F.);
#624=ORIENTED_EDGE('',*,*,#458,.T.);
#625=ORIENTED_EDGE('',*,*,#459,.T.);
#626=ORIENTED_EDGE('',*,*,#456,.F.);
#627=ORIENTED_EDGE('',*,*,#438,.F.);
#628=ORIENTED_EDGE('',*,*,#455,.T.);
#629=ORIENTED_EDGE('',*,*,#460,.T.);
#630=ORIENTED_EDGE('',*,*,#458,.F.);
#631=ORIENTED_EDGE('',*,*,#460,.F.);
#632=ORIENTED_EDGE('',*,*,#454,.F.);
#633=ORIENTED_EDGE('',*,*,#457,.F.);
#634=ORIENTED_EDGE('',*,*,#459,.F.);
#635=ORIENTED_EDGE('',*,*,#363,.T.);
#636=ORIENTED_EDGE('',*,*,#367,.T.);
#637=ORIENTED_EDGE('',*,*,#370,.T.);
#638=ORIENTED_EDGE('',*,*,#373,.T.);
#639=ORIENTED_EDGE('',*,*,#399,.F.);
#640=ORIENTED_EDGE('',*,*,#411,.T.);
#641=ORIENTED_EDGE('',*,*,#432,.F.);
#642=ORIENTED_EDGE('',*,*,#461,.F.);
#643=ORIENTED_EDGE('',*,*,#404,.F.);
#644=ORIENTED_EDGE('',*,*,#461,.T.);
#645=ORIENTED_EDGE('',*,*,#430,.F.);
#646=ORIENTED_EDGE('',*,*,#462,.F.);
#647=ORIENTED_EDGE('',*,*,#406,.F.);
#648=ORIENTED_EDGE('',*,*,#462,.T.);
#649=ORIENTED_EDGE('',*,*,#425,.F.);
#650=ORIENTED_EDGE('',*,*,#436,.F.);
#651=ORIENTED_EDGE('',*,*,#405,.F.);
#652=ORIENTED_EDGE('',*,*,#389,.F.);
#653=ORIENTED_EDGE('',*,*,#392,.F.);
#654=ORIENTED_EDGE('',*,*,#394,.F.);
#655=ORIENTED_EDGE('',*,*,#401,.F.);
#656=ORIENTED_EDGE('',*,*,#403,.F.);
#657=ORIENTED_EDGE('',*,*,#435,.F.);
#658=ORIENTED_EDGE('',*,*,#427,.F.);
#659=ORIENTED_EDGE('',*,*,#429,.F.);
#660=ORIENTED_EDGE('',*,*,#431,.F.);
#661=ORIENTED_EDGE('',*,*,#422,.F.);
#662=ORIENTED_EDGE('',*,*,#434,.F.);
#663=PLANE('',#749);
#664=PLANE('',#750);
#665=PLANE('',#751);
#666=PLANE('',#752);
#667=PLANE('',#753);
#668=PLANE('',#754);
#669=PLANE('',#755);
#670=PLANE('',#756);
#671=PLANE('',#757);
#672=PLANE('',#758);
#673=PLANE('',#779);
#674=PLANE('',#782);
#675=PLANE('',#803);
#676=PLANE('',#804);
#677=PLANE('',#805);
#678=PLANE('',#806);
#679=PLANE('',#807);
#680=PLANE('',#808);
#681=PLANE('',#809);
#682=PLANE('',#810);
#683=PLANE('',#811);
#684=PLANE('',#812);
#685=PLANE('',#813);
#686=PLANE('',#815);
#687=PLANE('',#817);
#688=PLANE('',#818);
#689=ADVANCED_FACE('',(#71),#663,.T.);
#690=ADVANCED_FACE('',(#72),#664,.T.);
#691=ADVANCED_FACE('',(#73),#665,.T.);
#692=ADVANCED_FACE('',(#74),#666,.T.);
#693=ADVANCED_FACE('',(#75),#667,.T.);
#694=ADVANCED_FACE('',(#76),#668,.T.);
#695=ADVANCED_FACE('',(#77),#669,.T.);
#696=ADVANCED_FACE('',(#78),#670,.T.);
#697=ADVANCED_FACE('',(#79),#671,.T.);
#698=ADVANCED_FACE('',(#80),#672,.T.);
#699=ADVANCED_FACE('',(#81),#63,.T.);
#700=ADVANCED_FACE('',(#82),#19,.T.);
#701=ADVANCED_FACE('',(#83),#64,.T.);
#702=ADVANCED_FACE('',(#84),#20,.T.);
#703=ADVANCED_FACE('',(#85),#65,.T.);
#704=ADVANCED_FACE('',(#86),#21,.T.);
#705=ADVANCED_FACE('',(#87),#66,.T.);
#706=ADVANCED_FACE('',(#88),#22,.T.);
#707=ADVANCED_FACE('',(#89),#673,.T.);
#708=ADVANCED_FACE('',(#90),#23,.T.);
#709=ADVANCED_FACE('',(#91),#674,.T.);
#710=ADVANCED_FACE('',(#92),#24,.T.);
#711=ADVANCED_FACE('',(#93),#25,.T.);
#712=ADVANCED_FACE('',(#94),#67,.T.);
#713=ADVANCED_FACE('',(#95),#26,.T.);
#714=ADVANCED_FACE('',(#96),#68,.T.);
#715=ADVANCED_FACE('',(#97),#27,.T.);
#716=ADVANCED_FACE('',(#98),#69,.T.);
#717=ADVANCED_FACE('',(#99),#28,.T.);
#718=ADVANCED_FACE('',(#100),#70,.T.);
#719=ADVANCED_FACE('',(#101,#15,#16),#675,.T.);
#720=ADVANCED_FACE('',(#102),#676,.F.);
#721=ADVANCED_FACE('',(#103),#677,.F.);
#722=ADVANCED_FACE('',(#104),#678,.F.);
#723=ADVANCED_FACE('',(#105),#679,.F.);
#724=ADVANCED_FACE('',(#106,#17),#680,.F.);
#725=ADVANCED_FACE('',(#107),#681,.F.);
#726=ADVANCED_FACE('',(#108),#682,.F.);
#727=ADVANCED_FACE('',(#109),#683,.F.);
#728=ADVANCED_FACE('',(#110),#684,.F.);
#729=ADVANCED_FACE('',(#111,#18),#685,.F.);
#730=ADVANCED_FACE('',(#112),#29,.T.);
#731=ADVANCED_FACE('',(#113),#686,.T.);
#732=ADVANCED_FACE('',(#114),#30,.T.);
#733=ADVANCED_FACE('',(#115),#687,.T.);
#734=ADVANCED_FACE('',(#116),#688,.F.);
#735=CLOSED_SHELL('',(#689,#690,#691,#692,#693,#694,#695,#696,#697,#698,
#699,#700,#701,#702,#703,#704,#705,#706,#707,#708,#709,#710,#711,#712,#713,
#714,#715,#716,#717,#718,#719,#720,#721,#722,#723,#724,#725,#726,#727,#728,
#729,#730,#731,#732,#733,#734));
#736=DERIVED_UNIT_ELEMENT(#738,1.);
#737=DERIVED_UNIT_ELEMENT(#1429,-3.);
#738=(
MASS_UNIT()
NAMED_UNIT(*)
SI_UNIT(.KILO.,.GRAM.)
);
#739=DERIVED_UNIT((#736,#737));
#740=MEASURE_REPRESENTATION_ITEM('density measure',
POSITIVE_RATIO_MEASURE(7850.),#739);
#741=PROPERTY_DEFINITION_REPRESENTATION(#746,#743);
#742=PROPERTY_DEFINITION_REPRESENTATION(#747,#744);
#743=REPRESENTATION('material name',(#745),#1426);
#744=REPRESENTATION('density',(#740),#1426);
#745=DESCRIPTIVE_REPRESENTATION_ITEM('Steel','Steel');
#746=PROPERTY_DEFINITION('material property','material name',#1436);
#747=PROPERTY_DEFINITION('material property','density of part',#1436);
#748=AXIS2_PLACEMENT_3D('',#1029,#819,#820);
#749=AXIS2_PLACEMENT_3D('',#1030,#821,#822);
#750=AXIS2_PLACEMENT_3D('',#1039,#827,#828);
#751=AXIS2_PLACEMENT_3D('',#1045,#832,#833);
#752=AXIS2_PLACEMENT_3D('',#1051,#837,#838);
#753=AXIS2_PLACEMENT_3D('',#1054,#841,#842);
#754=AXIS2_PLACEMENT_3D('',#1055,#843,#844);
#755=AXIS2_PLACEMENT_3D('',#1064,#849,#850);
#756=AXIS2_PLACEMENT_3D('',#1070,#854,#855);
#757=AXIS2_PLACEMENT_3D('',#1076,#859,#860);
#758=AXIS2_PLACEMENT_3D('',#1079,#863,#864);
#759=AXIS2_PLACEMENT_3D('',#1080,#865,#866);
#760=AXIS2_PLACEMENT_3D('',#1083,#867,#868);
#761=AXIS2_PLACEMENT_3D('',#1085,#869,#870);
#762=AXIS2_PLACEMENT_3D('',#1087,#871,#872);
#763=AXIS2_PLACEMENT_3D('',#1102,#873,#874);
#764=AXIS2_PLACEMENT_3D('',#1105,#875,#876);
#765=AXIS2_PLACEMENT_3D('',#1108,#879,#880);
#766=AXIS2_PLACEMENT_3D('',#1110,#881,#882);
#767=AXIS2_PLACEMENT_3D('',#1112,#883,#884);
#768=AXIS2_PLACEMENT_3D('',#1147,#885,#886);
#769=AXIS2_PLACEMENT_3D('',#1164,#888,#889);
#770=AXIS2_PLACEMENT_3D('',#1166,#890,#891);
#771=AXIS2_PLACEMENT_3D('',#1168,#892,#893);
#772=AXIS2_PLACEMENT_3D('',#1169,#894,#895);
#773=AXIS2_PLACEMENT_3D('',#1170,#896,#897);
#774=AXIS2_PLACEMENT_3D('',#1173,#898,#899);
#775=AXIS2_PLACEMENT_3D('',#1176,#902,#903);
#776=AXIS2_PLACEMENT_3D('',#1177,#904,#905);
#777=AXIS2_PLACEMENT_3D('',#1179,#906,#907);
#778=AXIS2_PLACEMENT_3D('',#1214,#908,#909);
#779=AXIS2_PLACEMENT_3D('',#1216,#911,#912);
#780=AXIS2_PLACEMENT_3D('',#1222,#916,#917);
#781=AXIS2_PLACEMENT_3D('',#1225,#919,#920);
#782=AXIS2_PLACEMENT_3D('',#1226,#921,#922);
#783=AXIS2_PLACEMENT_3D('',#1230,#925,#926);
#784=AXIS2_PLACEMENT_3D('',#1233,#928,#929);
#785=AXIS2_PLACEMENT_3D('',#1234,#930,#931);
#786=AXIS2_PLACEMENT_3D('',#1288,#933,#934);
#787=AXIS2_PLACEMENT_3D('',#1290,#935,#936);
#788=AXIS2_PLACEMENT_3D('',#1292,#937,#938);
#789=AXIS2_PLACEMENT_3D('',#1307,#939,#940);
#790=AXIS2_PLACEMENT_3D('',#1344,#941,#942);
#791=AXIS2_PLACEMENT_3D('',#1346,#943,#944);
#792=AXIS2_PLACEMENT_3D('',#1348,#945,#946);
#793=AXIS2_PLACEMENT_3D('',#1349,#947,#948);
#794=AXIS2_PLACEMENT_3D('',#1350,#949,#950);
#795=AXIS2_PLACEMENT_3D('',#1353,#951,#952);
#796=AXIS2_PLACEMENT_3D('',#1356,#955,#956);
#797=AXIS2_PLACEMENT_3D('',#1357,#957,#958);
#798=AXIS2_PLACEMENT_3D('',#1358,#959,#960);
#799=AXIS2_PLACEMENT_3D('',#1359,#961,#962);
#800=AXIS2_PLACEMENT_3D('',#1361,#963,#964);
#801=AXIS2_PLACEMENT_3D('',#1363,#966,#967);
#802=AXIS2_PLACEMENT_3D('',#1364,#968,#969);
#803=AXIS2_PLACEMENT_3D('',#1365,#970,#971);
#804=AXIS2_PLACEMENT_3D('',#1383,#981,#982);
#805=AXIS2_PLACEMENT_3D('',#1389,#986,#987);
#806=AXIS2_PLACEMENT_3D('',#1393,#990,#991);
#807=AXIS2_PLACEMENT_3D('',#1397,#994,#995);
#808=AXIS2_PLACEMENT_3D('',#1399,#997,#998);
#809=AXIS2_PLACEMENT_3D('',#1400,#999,#1000);
#810=AXIS2_PLACEMENT_3D('',#1406,#1004,#1005);
#811=AXIS2_PLACEMENT_3D('',#1410,#1008,#1009);
#812=AXIS2_PLACEMENT_3D('',#1414,#1012,#1013);
#813=AXIS2_PLACEMENT_3D('',#1416,#1015,#1016);
#814=AXIS2_PLACEMENT_3D('',#1417,#1017,#1018);
#815=AXIS2_PLACEMENT_3D('',#1419,#1020,#1021);
#816=AXIS2_PLACEMENT_3D('',#1421,#1023,#1024);
#817=AXIS2_PLACEMENT_3D('',#1422,#1025,#1026);
#818=AXIS2_PLACEMENT_3D('',#1423,#1027,#1028);
#819=DIRECTION('axis',(0.,0.,1.));
#820=DIRECTION('refdir',(1.,0.,0.));
#821=DIRECTION('center_axis',(-1.,0.,0.));
#822=DIRECTION('ref_axis',(0.,1.,0.));
#823=DIRECTION('',(0.,-1.,0.));
#824=DIRECTION('',(0.,0.,-1.));
#825=DIRECTION('',(0.,1.,0.));
#826=DIRECTION('',(0.,0.,-1.));
#827=DIRECTION('center_axis',(0.,-1.,0.));
#828=DIRECTION('ref_axis',(-1.,0.,0.));
#829=DIRECTION('',(1.,0.,0.));
#830=DIRECTION('',(-1.,0.,0.));
#831=DIRECTION('',(0.,0.,-1.));
#832=DIRECTION('center_axis',(1.,0.,0.));
#833=DIRECTION('ref_axis',(0.,-1.,0.));
#834=DIRECTION('',(0.,1.,0.));
#835=DIRECTION('',(0.,-1.,0.));
#836=DIRECTION('',(0.,0.,-1.));
#837=DIRECTION('center_axis',(0.,1.,0.));
#838=DIRECTION('ref_axis',(1.,0.,0.));
#839=DIRECTION('',(-1.,0.,0.));
#840=DIRECTION('',(1.,0.,0.));
#841=DIRECTION('center_axis',(0.,0.,-1.));
#842=DIRECTION('ref_axis',(-1.,0.,0.));
#843=DIRECTION('center_axis',(-1.,0.,0.));
#844=DIRECTION('ref_axis',(0.,1.,0.));
#845=DIRECTION('',(0.,-1.,0.));
#846=DIRECTION('',(0.,0.,-1.));
#847=DIRECTION('',(0.,1.,0.));
#848=DIRECTION('',(0.,0.,-1.));
#849=DIRECTION('center_axis',(0.,-1.,0.));
#850=DIRECTION('ref_axis',(-1.,0.,0.));
#851=DIRECTION('',(1.,0.,0.));
#852=DIRECTION('',(-1.,0.,0.));
#853=DIRECTION('',(0.,0.,-1.));
#854=DIRECTION('center_axis',(1.,0.,0.));
#855=DIRECTION('ref_axis',(0.,-1.,0.));
#856=DIRECTION('',(0.,1.,0.));
#857=DIRECTION('',(0.,-1.,0.));
#858=DIRECTION('',(0.,0.,-1.));
#859=DIRECTION('center_axis',(0.,1.,0.));
#860=DIRECTION('ref_axis',(1.,0.,0.));
#861=DIRECTION('',(-1.,0.,0.));
#862=DIRECTION('',(1.,0.,0.));
#863=DIRECTION('center_axis',(0.,0.,-1.));
#864=DIRECTION('ref_axis',(-1.,0.,0.));
#865=DIRECTION('center_axis',(0.,1.,0.));
#866=DIRECTION('ref_axis',(0.,0.,1.));
#867=DIRECTION('center_axis',(0.,1.,0.));
#868=DIRECTION('ref_axis',(-0.857492925712544,0.,-0.514495755427526));
#869=DIRECTION('center_axis',(4.44089209850063E-16,0.,-1.));
#870=DIRECTION('ref_axis',(-1.,0.,-4.44089209850063E-16));
#871=DIRECTION('center_axis',(0.,-1.,0.));
#872=DIRECTION('ref_axis',(-0.857492925712544,0.,-0.514495755427527));
#873=DIRECTION('center_axis',(0.,0.,1.));
#874=DIRECTION('ref_axis',(-0.707106781186547,0.707106781186547,0.));
#875=DIRECTION('center_axis',(0.,0.,-1.));
#876=DIRECTION('ref_axis',(-1.,0.,0.));
#877=DIRECTION('',(0.,0.,-1.));
#878=DIRECTION('',(0.,0.,1.));
#879=DIRECTION('center_axis',(0.,1.,0.));
#880=DIRECTION('ref_axis',(0.,0.,1.));
#881=DIRECTION('center_axis',(0.,-1.,0.));
#882=DIRECTION('ref_axis',(-0.857492925712544,0.,0.514495755427527));
#883=DIRECTION('center_axis',(0.,1.,0.));
#884=DIRECTION('ref_axis',(-0.857492925712544,0.,0.514495755427527));
#885=DIRECTION('center_axis',(-1.,0.,-8.88178419700126E-16));
#886=DIRECTION('ref_axis',(-6.2803698347351E-16,0.707106781186547,0.707106781186547));
#887=DIRECTION('',(1.,0.,8.88178419700126E-16));
#888=DIRECTION('center_axis',(0.,1.,0.));
#889=DIRECTION('ref_axis',(0.,0.,1.));
#890=DIRECTION('center_axis',(0.,1.,0.));
#891=DIRECTION('ref_axis',(0.857492925712543,0.,0.514495755427528));
#892=DIRECTION('center_axis',(0.,0.,1.));
#893=DIRECTION('ref_axis',(1.,0.,0.));
#894=DIRECTION('center_axis',(0.,-1.,0.));
#895=DIRECTION('ref_axis',(0.857492925712544,0.,0.514495755427528));
#896=DIRECTION('center_axis',(0.,0.,1.));
#897=DIRECTION('ref_axis',(0.707106781186547,0.707106781186547,0.));
#898=DIRECTION('center_axis',(0.,0.,1.));
#899=DIRECTION('ref_axis',(1.,0.,0.));
#900=DIRECTION('',(0.,0.,1.));
#901=DIRECTION('',(0.,0.,-1.));
#902=DIRECTION('center_axis',(0.,1.,0.));
#903=DIRECTION('ref_axis',(0.500555865228919,0.,-0.865704236899028));
#904=DIRECTION('center_axis',(0.,-1.,0.));
#905=DIRECTION('ref_axis',(0.857492925712544,0.,-0.514495755427527));
#906=DIRECTION('center_axis',(0.,1.,0.));
#907=DIRECTION('ref_axis',(0.857492925712544,0.,-0.514495755427527));
#908=DIRECTION('center_axis',(1.,0.,0.));
#909=DIRECTION('ref_axis',(0.,0.707106781186548,-0.707106781186547));
#910=DIRECTION('',(-1.,0.,0.));
#911=DIRECTION('center_axis',(-8.88178419700126E-16,0.,1.));
#912=DIRECTION('ref_axis',(-1.,0.,-8.88178419700126E-16));
#913=DIRECTION('',(0.,-1.,0.));
#914=DIRECTION('',(-1.,0.,-8.88178419700126E-16));
#915=DIRECTION('',(0.,-1.,0.));
#916=DIRECTION('center_axis',(0.,-1.,0.));
#917=DIRECTION('ref_axis',(-1.,0.,1.671865260612E-15));
#918=DIRECTION('',(0.,-1.,0.));
#919=DIRECTION('center_axis',(0.,-1.,0.));
#920=DIRECTION('ref_axis',(-0.857492925712544,0.,0.514495755427527));
#921=DIRECTION('center_axis',(-1.,0.,0.));
#922=DIRECTION('ref_axis',(0.,0.,-1.));
#923=DIRECTION('',(0.,-1.,0.));
#924=DIRECTION('',(0.,0.,-1.));
#925=DIRECTION('center_axis',(0.,-1.,0.));
#926=DIRECTION('ref_axis',(-0.470588235294118,0.,-0.882352941176471));
#927=DIRECTION('',(0.,-1.,0.));
#928=DIRECTION('center_axis',(0.,-1.,0.));
#929=DIRECTION('ref_axis',(-0.857492925712544,0.,-0.514495755427526));
#930=DIRECTION('center_axis',(1.,0.,0.));
#931=DIRECTION('ref_axis',(0.,-0.707106781186548,-0.707106781186547));
#932=DIRECTION('',(1.,0.,0.));
#933=DIRECTION('center_axis',(0.,-1.,0.));
#934=DIRECTION('ref_axis',(0.,0.,-1.));
#935=DIRECTION('center_axis',(7.105427357601E-15,0.,1.));
#936=DIRECTION('ref_axis',(-1.,0.,7.105427357601E-15));
#937=DIRECTION('center_axis',(0.,1.,0.));
#938=DIRECTION('ref_axis',(-0.857492925712544,0.,0.514495755427527));
#939=DIRECTION('center_axis',(-1.,0.,-8.88178419700126E-16));
#940=DIRECTION('ref_axis',(-6.2803698347351E-16,-0.707106781186547,0.707106781186547));
#941=DIRECTION('center_axis',(0.,-1.,0.));
#942=DIRECTION('ref_axis',(0.,0.,-1.));
#943=DIRECTION('center_axis',(0.,-1.,0.));
#944=DIRECTION('ref_axis',(0.857492925712544,0.,-0.514495755427527));
#945=DIRECTION('center_axis',(0.,0.,-1.));
#946=DIRECTION('ref_axis',(1.,0.,0.));
#947=DIRECTION('center_axis',(0.,1.,0.));
#948=DIRECTION('ref_axis',(0.857492925712544,0.,-0.514495755427527));
#949=DIRECTION('center_axis',(0.,0.,1.));
#950=DIRECTION('ref_axis',(0.707106781186547,-0.707106781186547,0.));
#951=DIRECTION('center_axis',(0.,0.,-1.));
#952=DIRECTION('ref_axis',(1.,0.,0.));
#953=DIRECTION('',(0.,0.,-1.));
#954=DIRECTION('',(0.,0.,1.));
#955=DIRECTION('center_axis',(0.,-1.,0.));
#956=DIRECTION('ref_axis',(0.500555865228918,0.,0.865704236899029));
#957=DIRECTION('center_axis',(0.,1.,0.));
#958=DIRECTION('ref_axis',(0.857492925712544,0.,0.514495755427528));
#959=DIRECTION('center_axis',(0.,-1.,0.));
#960=DIRECTION('ref_axis',(0.857492925712543,0.,0.514495755427528));
#961=DIRECTION('center_axis',(0.,0.,-1.));
#962=DIRECTION('ref_axis',(-0.707106781186547,-0.707106781186547,0.));
#963=DIRECTION('center_axis',(0.,0.,1.));
#964=DIRECTION('ref_axis',(-1.,0.,0.));
#965=DIRECTION('',(0.,0.,1.));
#966=DIRECTION('center_axis',(0.,-1.,0.));
#967=DIRECTION('ref_axis',(0.,0.,-1.));
#968=DIRECTION('center_axis',(0.,1.,0.));
#969=DIRECTION('ref_axis',(-0.857492925712544,0.,-0.514495755427527));
#970=DIRECTION('center_axis',(0.,0.,-1.));
#971=DIRECTION('ref_axis',(1.,0.,0.));
#972=DIRECTION('',(0.,-1.,0.));
#973=DIRECTION('',(1.,0.,0.));
#974=DIRECTION('',(0.,1.,0.));
#975=DIRECTION('',(-1.,0.,0.));
#976=DIRECTION('',(0.,-1.,0.));
#977=DIRECTION('',(1.,0.,0.));
#978=DIRECTION('',(0.,1.,0.));
#979=DIRECTION('',(-1.,0.,0.));
#980=DIRECTION('',(0.,-1.,0.));
#981=DIRECTION('center_axis',(0.,-1.,0.));
#982=DIRECTION('ref_axis',(1.,0.,0.));
#983=DIRECTION('',(0.,0.,1.));
#984=DIRECTION('',(1.,0.,0.));
#985=DIRECTION('',(0.,0.,1.));
#986=DIRECTION('center_axis',(-1.,0.,0.));
#987=DIRECTION('ref_axis',(0.,-1.,0.));
#988=DIRECTION('',(0.,0.,1.));
#989=DIRECTION('',(0.,-1.,0.));
#990=DIRECTION('center_axis',(0.,1.,0.));
#991=DIRECTION('ref_axis',(-1.,0.,0.));
#992=DIRECTION('',(0.,0.,1.));
#993=DIRECTION('',(-1.,0.,0.));
#994=DIRECTION('center_axis',(1.,0.,0.));
#995=DIRECTION('ref_axis',(0.,1.,0.));
#996=DIRECTION('',(0.,1.,0.));
#997=DIRECTION('center_axis',(0.,0.,1.));
#998=DIRECTION('ref_axis',(1.,0.,0.));
#999=DIRECTION('center_axis',(0.,-1.,0.));
#1000=DIRECTION('ref_axis',(1.,0.,0.));
#1001=DIRECTION('',(0.,0.,1.));
#1002=DIRECTION('',(1.,0.,0.));
#1003=DIRECTION('',(0.,0.,1.));
#1004=DIRECTION('center_axis',(-1.,0.,0.));
#1005=DIRECTION('ref_axis',(0.,-1.,0.));
#1006=DIRECTION('',(0.,0.,1.));
#1007=DIRECTION('',(0.,-1.,0.));
#1008=DIRECTION('center_axis',(0.,1.,0.));
#1009=DIRECTION('ref_axis',(-1.,0.,0.));
#1010=DIRECTION('',(0.,0.,1.));
#1011=DIRECTION('',(-1.,0.,0.));
#1012=DIRECTION('center_axis',(1.,0.,0.));
#1013=DIRECTION('ref_axis',(0.,1.,0.));
#1014=DIRECTION('',(0.,1.,0.));
#1015=DIRECTION('center_axis',(0.,0.,1.));
#1016=DIRECTION('ref_axis',(1.,0.,0.));
#1017=DIRECTION('center_axis',(0.,-1.,0.));
#1018=DIRECTION('ref_axis',(0.470588235294117,0.,0.882352941176471));
#1019=DIRECTION('',(0.,-1.,0.));
#1020=DIRECTION('center_axis',(1.,0.,0.));
#1021=DIRECTION('ref_axis',(0.,0.,1.));
#1022=DIRECTION('',(0.,-1.,0.));
#1023=DIRECTION('center_axis',(0.,-1.,0.));
#1024=DIRECTION('ref_axis',(1.,0.,0.));
#1025=DIRECTION('center_axis',(0.,1.,0.));
#1026=DIRECTION('ref_axis',(1.,0.,0.));
#1027=DIRECTION('center_axis',(0.,1.,0.));
#1028=DIRECTION('ref_axis',(1.,0.,0.));
#1029=CARTESIAN_POINT('',(0.,0.,0.));
#1030=CARTESIAN_POINT('Origin',(-10.,-70.,-45.));
#1031=CARTESIAN_POINT('',(-10.,-50.,-45.));
#1032=CARTESIAN_POINT('',(-10.,-70.,-45.));
#1033=CARTESIAN_POINT('',(-10.,-65.,-45.));
#1034=CARTESIAN_POINT('',(-10.,-50.,-75.));
#1035=CARTESIAN_POINT('',(-10.,-50.,-45.));
#1036=CARTESIAN_POINT('',(-10.,-70.,-75.));
#1037=CARTESIAN_POINT('',(-10.,-50.,-75.));
#1038=CARTESIAN_POINT('',(-10.,-70.,-45.));
#1039=CARTESIAN_POINT('Origin',(10.,-70.,-45.));
#1040=CARTESIAN_POINT('',(10.,-70.,-45.));
#1041=CARTESIAN_POINT('',(5.,-70.,-45.));
#1042=CARTESIAN_POINT('',(10.,-70.,-75.));
#1043=CARTESIAN_POINT('',(-10.,-70.,-75.));
#1044=CARTESIAN_POINT('',(10.,-70.,-45.));
#1045=CARTESIAN_POINT('Origin',(10.,-50.,-45.));
#1046=CARTESIAN_POINT('',(10.,-50.,-45.));
#1047=CARTESIAN_POINT('',(10.,-55.,-45.));
#1048=CARTESIAN_POINT('',(10.,-50.,-75.));
#1049=CARTESIAN_POINT('',(10.,-70.,-75.));
#1050=CARTESIAN_POINT('',(10.,-50.,-45.));
#1051=CARTESIAN_POINT('Origin',(-10.,-50.,-45.));
#1052=CARTESIAN_POINT('',(-5.,-50.,-45.));
#1053=CARTESIAN_POINT('',(10.,-50.,-75.));
#1054=CARTESIAN_POINT('Origin',(0.,-60.,-75.));
#1055=CARTESIAN_POINT('Origin',(-10.,-250.,-45.));
#1056=CARTESIAN_POINT('',(-10.,-230.,-45.));
#1057=CARTESIAN_POINT('',(-10.,-250.,-45.));
#1058=CARTESIAN_POINT('',(-10.,-245.,-45.));
#1059=CARTESIAN_POINT('',(-10.,-230.,-75.));
#1060=CARTESIAN_POINT('',(-10.,-230.,-45.));
#1061=CARTESIAN_POINT('',(-10.,-250.,-75.));
#1062=CARTESIAN_POINT('',(-10.,-230.,-75.));
#1063=CARTESIAN_POINT('',(-10.,-250.,-45.));
#1064=CARTESIAN_POINT('Origin',(10.,-250.,-45.));
#1065=CARTESIAN_POINT('',(10.,-250.,-45.));
#1066=CARTESIAN_POINT('',(5.,-250.,-45.));
#1067=CARTESIAN_POINT('',(10.,-250.,-75.));
#1068=CARTESIAN_POINT('',(-10.,-250.,-75.));
#1069=CARTESIAN_POINT('',(10.,-250.,-45.));
#1070=CARTESIAN_POINT('Origin',(10.,-230.,-45.));
#1071=CARTESIAN_POINT('',(10.,-230.,-45.));
#1072=CARTESIAN_POINT('',(10.,-235.,-45.));
#1073=CARTESIAN_POINT('',(10.,-230.,-75.));
#1074=CARTESIAN_POINT('',(10.,-250.,-75.));
#1075=CARTESIAN_POINT('',(10.,-230.,-45.));
#1076=CARTESIAN_POINT('Origin',(-10.,-230.,-45.));
#1077=CARTESIAN_POINT('',(-5.,-230.,-45.));
#1078=CARTESIAN_POINT('',(10.,-230.,-75.));
#1079=CARTESIAN_POINT('Origin',(0.,-240.,-75.));
#1080=CARTESIAN_POINT('Origin',(0.,-10.,0.));
#1081=CARTESIAN_POINT('',(-40.,-10.,-75.));
#1082=CARTESIAN_POINT('',(-85.,-10.,0.));
#1083=CARTESIAN_POINT('Origin',(0.,-10.,0.));
#1084=CARTESIAN_POINT('',(-75.,0.,4.44089209850063E-15));
#1085=CARTESIAN_POINT('Origin',(-75.,-10.,4.44089209850063E-15));
#1086=CARTESIAN_POINT('',(-37.4165738677394,0.,-65.));
#1087=CARTESIAN_POINT('Origin',(0.,0.,0.));
#1088=CARTESIAN_POINT('Ctrl Pts',(-37.4165738677394,0.,-65.));
#1089=CARTESIAN_POINT('Ctrl Pts',(-37.4178641830085,-2.95624695328515E-19,
-65.0048279176582));
#1090=CARTESIAN_POINT('Ctrl Pts',(-37.4191544358565,-3.49631833334246E-6,
-65.0096558514942));
#1091=CARTESIAN_POINT('Ctrl Pts',(-37.6085452554527,-0.00102997698311551,
-65.7183647192364));
#1092=CARTESIAN_POINT('Ctrl Pts',(-37.7948851761248,-0.0763649116375218,
-66.4210182530084));
#1093=CARTESIAN_POINT('Ctrl Pts',(-38.1574655139977,-0.373695583221418,
-67.7979711203752));
#1094=CARTESIAN_POINT('Ctrl Pts',(-38.3329419560254,-0.594528476941324,
-68.4693232134266));
#1095=CARTESIAN_POINT('Ctrl Pts',(-38.805878572992,-1.41620545357226,-70.2901385440405));
#1096=CARTESIAN_POINT('Ctrl Pts',(-39.0800900770066,-2.17336839893441,-71.3600593769166));
#1097=CARTESIAN_POINT('Ctrl Pts',(-39.5302749905786,-4.04080037820088,-73.129676801045));
#1098=CARTESIAN_POINT('Ctrl Pts',(-39.7047991955229,-5.12203058316535,-73.8228516091399));
#1099=CARTESIAN_POINT('Ctrl Pts',(-39.9400662207805,-7.48291695385293,-74.759762991812));
#1100=CARTESIAN_POINT('Ctrl Pts',(-40.,-8.73439856430603,-75.));
#1101=CARTESIAN_POINT('Ctrl Pts',(-40.,-10.,-75.));
#1102=CARTESIAN_POINT('Origin',(-75.,-10.,262.5));
#1103=CARTESIAN_POINT('',(-85.,-10.,350.));
#1104=CARTESIAN_POINT('',(-75.,0.,350.));
#1105=CARTESIAN_POINT('Origin',(-75.,-10.,350.));
#1106=CARTESIAN_POINT('',(-75.,0.,262.5));
#1107=CARTESIAN_POINT('',(-85.,-10.,262.5));
#1108=CARTESIAN_POINT('Origin',(0.,-10.,350.));
#1109=CARTESIAN_POINT('',(37.4165738677394,0.,415.));
#1110=CARTESIAN_POINT('Origin',(0.,0.,350.));
#1111=CARTESIAN_POINT('',(-40.,-10.,425.));
#1112=CARTESIAN_POINT('Origin',(0.,-10.,350.));
#1113=CARTESIAN_POINT('Ctrl Pts',(-40.0000000000002,-10.,425.));
#1114=CARTESIAN_POINT('Ctrl Pts',(-40.0000000000002,-8.73439856430591,425.));
#1115=CARTESIAN_POINT('Ctrl Pts',(-39.9400662207807,-7.48291695385273,424.759762991812));
#1116=CARTESIAN_POINT('Ctrl Pts',(-39.7047991955231,-5.12203058316547,423.82285160914));
#1117=CARTESIAN_POINT('Ctrl Pts',(-39.5302749905788,-4.04080037820103,423.129676801045));
#1118=CARTESIAN_POINT('Ctrl Pts',(-39.0800900770067,-2.17336839893433,421.360059376916));
#1119=CARTESIAN_POINT('Ctrl Pts',(-38.8058785729921,-1.41620545357219,420.29013854404));
#1120=CARTESIAN_POINT('Ctrl Pts',(-38.1844815586474,-0.336594356192749,
417.897747746784));
#1121=CARTESIAN_POINT('Ctrl Pts',(-37.8405829391107,-0.0386452916203875,
416.589248545406));
#1122=CARTESIAN_POINT('Ctrl Pts',(-37.4647288860847,-0.00126390229010112,
415.180269852331));
#1123=CARTESIAN_POINT('Ctrl Pts',(-37.4420435482785,-9.32226839106642E-5,
415.095305476406));
#1124=CARTESIAN_POINT('Ctrl Pts',(-37.4184499114128,-1.91165516569244E-6,
415.007019649206));
#1125=CARTESIAN_POINT('Ctrl Pts',(-37.4175618494565,-1.31199128045373E-7,
415.00369669799));
#1126=CARTESIAN_POINT('Ctrl Pts',(-37.4166510686583,-3.81118102958933E-9,
415.000288859733));
#1127=CARTESIAN_POINT('Ctrl Pts',(-37.4166284810432,-1.7355705655101E-9,
415.000204344265));
#1128=CARTESIAN_POINT('Ctrl Pts',(-37.4165953032471,-2.408105591186E-10,
415.000080203768));
#1129=CARTESIAN_POINT('Ctrl Pts',(-37.4166070442178,1.84124094833768E-12,
414.999991124039));
#1130=CARTESIAN_POINT('Ctrl Pts',(-37.4152302182733,-6.72608849866721E-11,
415.000359363667));
#1131=CARTESIAN_POINT('Ctrl Pts',(-37.4138934613047,-1.92779143115205E-8,
415.000716349466));
#1132=CARTESIAN_POINT('Ctrl Pts',(-30.4701304168182,-0.000199228739240385,
416.856315853403));
#1133=CARTESIAN_POINT('Ctrl Pts',(-23.1175897832847,-0.51574788021909,418.304750542156));
#1134=CARTESIAN_POINT('Ctrl Pts',(-12.1181787533984,-1.0678956925277,419.51370965609));
#1135=CARTESIAN_POINT('Ctrl Pts',(-8.84142667190404,-1.20412281041383,419.759723910497));
#1136=CARTESIAN_POINT('Ctrl Pts',(-3.15916492228861,-1.33020829992113,419.984615382367));
#1137=CARTESIAN_POINT('Ctrl Pts',(-0.785813888674051,-1.35016724511828,
420.018105337084));
#1138=CARTESIAN_POINT('Ctrl Pts',(4.21739729690765,-1.31725696726727,419.960964061185));
#1139=CARTESIAN_POINT('Ctrl Pts',(6.8206583074475,-1.25712188079234,419.858148358678));
#1140=CARTESIAN_POINT('Ctrl Pts',(13.9739594858088,-1.00181545793075,419.376378678367));
#1141=CARTESIAN_POINT('Ctrl Pts',(18.482161130281,-0.739285231259077,418.850996309666));
#1142=CARTESIAN_POINT('Ctrl Pts',(27.8178925559333,-0.236832162735683,417.321293073938));
#1143=CARTESIAN_POINT('Ctrl Pts',(32.6326185103689,-0.00164734311261869,
416.276915302828));
#1144=CARTESIAN_POINT('Ctrl Pts',(37.3842087223296,-2.80568796757745E-6,
415.008647143266));
#1145=CARTESIAN_POINT('Ctrl Pts',(37.4003916482912,-7.41770775943002E-18,
415.004324880067));
#1146=CARTESIAN_POINT('Ctrl Pts',(37.4165738677394,0.,415.));
#1147=CARTESIAN_POINT('Origin',(19.9999999999999,-10.,415.));
#1148=CARTESIAN_POINT('',(40.,-10.,425.));
#1149=CARTESIAN_POINT('',(19.9999999999999,-10.,425.));
#1150=CARTESIAN_POINT('Ctrl Pts',(40.0000000000001,-10.,425.));
#1151=CARTESIAN_POINT('Ctrl Pts',(40.0000000000001,-8.73439856430593,425.));
#1152=CARTESIAN_POINT('Ctrl Pts',(39.9400662207806,-7.48291695385275,424.759762991812));
#1153=CARTESIAN_POINT('Ctrl Pts',(39.7047991955231,-5.12203058316545,423.82285160914));
#1154=CARTESIAN_POINT('Ctrl Pts',(39.5302749905787,-4.040800378201,423.129676801045));
#1155=CARTESIAN_POINT('Ctrl Pts',(39.0800900770066,-2.1733683989344,421.360059376917));
#1156=CARTESIAN_POINT('Ctrl Pts',(38.8058785729921,-1.41620545357225,420.29013854404));
#1157=CARTESIAN_POINT('Ctrl Pts',(38.3329419560254,-0.594528476941293,418.469323213426));
#1158=CARTESIAN_POINT('Ctrl Pts',(38.1574655139977,-0.373695583221395,417.797971120375));
#1159=CARTESIAN_POINT('Ctrl Pts',(37.7948851761831,-0.0763649116852566,
416.421018253229));
#1160=CARTESIAN_POINT('Ctrl Pts',(37.608545255697,-0.00102997698476529,
415.71836472041));
#1161=CARTESIAN_POINT('Ctrl Pts',(37.4191544358534,-3.49631830694383E-6,
415.009655851475));
#1162=CARTESIAN_POINT('Ctrl Pts',(37.4178641830135,1.68565844728762E-17,
415.004827917676));
#1163=CARTESIAN_POINT('Ctrl Pts',(37.4165738677394,0.,415.));
#1164=CARTESIAN_POINT('Origin',(0.,-10.,350.));
#1165=CARTESIAN_POINT('',(85.,-10.,350.));
#1166=CARTESIAN_POINT('Origin',(0.,-10.,350.));
#1167=CARTESIAN_POINT('',(75.,0.,350.));
#1168=CARTESIAN_POINT('Origin',(75.,-10.,350.));
#1169=CARTESIAN_POINT('Origin',(0.,0.,350.));
#1170=CARTESIAN_POINT('Origin',(75.,-10.,87.5));
#1171=CARTESIAN_POINT('',(85.,-10.,0.));
#1172=CARTESIAN_POINT('',(75.,0.,0.));
#1173=CARTESIAN_POINT('Origin',(75.,-10.,0.));
#1174=CARTESIAN_POINT('',(75.,0.,87.5));
#1175=CARTESIAN_POINT('',(85.,-10.,87.5));
#1176=CARTESIAN_POINT('Origin',(0.,-10.,0.));
#1177=CARTESIAN_POINT('Origin',(0.,0.,0.));
#1178=CARTESIAN_POINT('',(40.,-10.,-75.));
#1179=CARTESIAN_POINT('Origin',(0.,-10.,0.));
#1180=CARTESIAN_POINT('Ctrl Pts',(40.,-10.,-75.));
#1181=CARTESIAN_POINT('Ctrl Pts',(40.,-8.73439856430603,-75.));
#1182=CARTESIAN_POINT('Ctrl Pts',(39.9400662207805,-7.48291695385293,-74.759762991812));
#1183=CARTESIAN_POINT('Ctrl Pts',(39.7047991955229,-5.12203058316532,-73.8228516091399));
#1184=CARTESIAN_POINT('Ctrl Pts',(39.5302749905787,-4.04080037820084,-73.129676801045));
#1185=CARTESIAN_POINT('Ctrl Pts',(39.0800900770067,-2.17336839893441,-71.3600593769166));
#1186=CARTESIAN_POINT('Ctrl Pts',(38.8058785729921,-1.41620545357226,-70.2901385440404));
#1187=CARTESIAN_POINT('Ctrl Pts',(38.1844815586473,-0.336594356192719,-67.8977477467838));
#1188=CARTESIAN_POINT('Ctrl Pts',(37.8405829391107,-0.0386452916203779,
-66.5892485454057));
#1189=CARTESIAN_POINT('Ctrl Pts',(37.4647288860663,-0.00126390228830006,
-65.180269852263));
#1190=CARTESIAN_POINT('Ctrl Pts',(37.4420435481931,-9.32226835300818E-5,
-65.0953054760304));
#1191=CARTESIAN_POINT('Ctrl Pts',(37.4184499289999,-1.91172324041327E-6,
-65.0070197150268));
#1192=CARTESIAN_POINT('Ctrl Pts',(37.4175618870526,-1.31204423596561E-7,
-65.0036968397986));
#1193=CARTESIAN_POINT('Ctrl Pts',(37.4166510092257,-3.80286263022053E-9,
-65.00028863718));
#1194=CARTESIAN_POINT('Ctrl Pts',(37.4166284445876,-1.73393161127345E-9,
-65.0002042081146));
#1195=CARTESIAN_POINT('Ctrl Pts',(37.4165870695122,1.3013058388366E-10,
-65.0000493971471));
#1196=CARTESIAN_POINT('Ctrl Pts',(37.4166233316316,2.98234061033266E-12,
-64.9999868021252));
#1197=CARTESIAN_POINT('Ctrl Pts',(37.4155942045358,-5.45053790158706E-11,
-65.0002615016279));
#1198=CARTESIAN_POINT('Ctrl Pts',(37.4146225216742,-1.02265008186999E-8,
-65.0005215089437));
#1199=CARTESIAN_POINT('Ctrl Pts',(30.4708830121363,-0.000144974169045805,
-66.8561689774313));
#1200=CARTESIAN_POINT('Ctrl Pts',(23.1181458906087,-0.515714339010468,-68.3046651697732));
#1201=CARTESIAN_POINT('Ctrl Pts',(12.1185583496582,-1.06787901676472,-69.5136781897091));
#1202=CARTESIAN_POINT('Ctrl Pts',(8.84174519672172,-1.20411254884672,-69.7597052507364));
#1203=CARTESIAN_POINT('Ctrl Pts',(3.15941348208256,-1.33020508895054,-69.9846099125817));
#1204=CARTESIAN_POINT('Ctrl Pts',(0.786054060467434,-1.35016656386348,-70.0181041350198));
#1205=CARTESIAN_POINT('Ctrl Pts',(-4.21713961962711,-1.3172611446293,-69.9609713353326));
#1206=CARTESIAN_POINT('Ctrl Pts',(-6.82037491011294,-1.25712947634765,-69.8581616924394));
#1207=CARTESIAN_POINT('Ctrl Pts',(-13.9735263249363,-1.00183530698669,-69.3764178751037));
#1208=CARTESIAN_POINT('Ctrl Pts',(-18.4816048987203,-0.739317524304872,
-68.8510659970708));
#1209=CARTESIAN_POINT('Ctrl Pts',(-27.8174514717935,-0.236853323406533,
-67.3213888247436));
#1210=CARTESIAN_POINT('Ctrl Pts',(-32.6324012254238,-0.00164741831552748,
-66.2769732992782));
#1211=CARTESIAN_POINT('Ctrl Pts',(-37.3842087229429,-2.80568775475524E-6,
-65.0086471431029));
#1212=CARTESIAN_POINT('Ctrl Pts',(-37.4003916476767,2.64822536570057E-19,
-65.0043248802309));
#1213=CARTESIAN_POINT('Ctrl Pts',(-37.4165738677394,0.,-65.));
#1214=CARTESIAN_POINT('Origin',(-20.,-10.,-65.));
#1215=CARTESIAN_POINT('',(-20.,-10.,-75.));
#1216=CARTESIAN_POINT('Origin',(39.9999999999999,0.,425.));
#1217=CARTESIAN_POINT('',(-40.,-290.,425.));
#1218=CARTESIAN_POINT('',(-40.,0.,425.));
#1219=CARTESIAN_POINT('',(40.,-290.,425.));
#1220=CARTESIAN_POINT('',(19.9999999999999,-290.,425.));
#1221=CARTESIAN_POINT('',(40.,0.,425.));
#1222=CARTESIAN_POINT('Origin',(0.,0.,350.));
#1223=CARTESIAN_POINT('',(-85.,-290.,350.));
#1224=CARTESIAN_POINT('',(-85.,0.,350.));
#1225=CARTESIAN_POINT('Origin',(0.,-290.,350.));
#1226=CARTESIAN_POINT('Origin',(-85.,0.,350.));
#1227=CARTESIAN_POINT('',(-85.,-290.,0.));
#1228=CARTESIAN_POINT('',(-85.,0.,0.));
#1229=CARTESIAN_POINT('',(-85.,-290.,262.5));
#1230=CARTESIAN_POINT('Origin',(0.,0.,0.));
#1231=CARTESIAN_POINT('',(-40.,-290.,-75.));
#1232=CARTESIAN_POINT('',(-40.,0.,-75.));
#1233=CARTESIAN_POINT('Origin',(0.,-290.,0.));
#1234=CARTESIAN_POINT('Origin',(-20.,-290.,-65.));
#1235=CARTESIAN_POINT('',(37.4165738677394,-300.,-65.));
#1236=CARTESIAN_POINT('Ctrl Pts',(37.4165738677394,-300.,-65.));
#1237=CARTESIAN_POINT('Ctrl Pts',(37.4003916457767,-300.,-65.0043248807387));
#1238=CARTESIAN_POINT('Ctrl Pts',(37.3842087248399,-299.999997194313,-65.0086471425984));
#1239=CARTESIAN_POINT('Ctrl Pts',(34.6468505916019,-299.99904978772,-65.7392876242788));
#1240=CARTESIAN_POINT('Ctrl Pts',(31.8981918192383,-299.919792241165,-66.3933283294971));
#1241=CARTESIAN_POINT('Ctrl Pts',(23.5289237670932,-299.570155498878,-68.1351264464856));
#1242=CARTESIAN_POINT('Ctrl Pts',(17.8665820761815,-299.191169570719,-68.9791613097933));
#1243=CARTESIAN_POINT('Ctrl Pts',(9.22520195537756,-298.817459162956,-69.7253473293969));
#1244=CARTESIAN_POINT('Ctrl Pts',(6.3624908527321,-298.725986122396,-69.8850763851942));
#1245=CARTESIAN_POINT('Ctrl Pts',(1.13158748270808,-298.651756136981,-70.0151410828544));
#1246=CARTESIAN_POINT('Ctrl Pts',(-1.20779188773324,-298.652137201641,-70.0145034517361));
#1247=CARTESIAN_POINT('Ctrl Pts',(-6.45155108598626,-298.728138466342,-69.8812669478399));
#1248=CARTESIAN_POINT('Ctrl Pts',(-9.32700990955917,-298.821049629285,-69.7188586842218));
#1249=CARTESIAN_POINT('Ctrl Pts',(-18.0389359197221,-299.200321430775,-68.9594657911911));
#1250=CARTESIAN_POINT('Ctrl Pts',(-23.7568334789887,-299.584676298459,-68.0987818237958));
#1251=CARTESIAN_POINT('Ctrl Pts',(-32.0987411236533,-299.925616192645,-66.3459232060704));
#1252=CARTESIAN_POINT('Ctrl Pts',(-34.7674163054164,-299.999992411927,-65.7080156560925));
#1253=CARTESIAN_POINT('Ctrl Pts',(-37.4161989940732,-299.999999999501,-65.0001001877175));
#1254=CARTESIAN_POINT('Ctrl Pts',(-37.4165337707139,-299.999999999998,-65.0000107719312));
#1255=CARTESIAN_POINT('Ctrl Pts',(-37.4165976482403,-300.000000000002,-64.999993546387));
#1256=CARTESIAN_POINT('Ctrl Pts',(-37.4165743448484,-300.000000000703,-65.0000017804393));
#1257=CARTESIAN_POINT('Ctrl Pts',(-37.4166201458902,-299.99999999864,-65.0001731557547));
#1258=CARTESIAN_POINT('Ctrl Pts',(-37.4166470709034,-299.999999996748,-65.0002739066256));
#1259=CARTESIAN_POINT('Ctrl Pts',(-37.4175539834831,-299.999999869902,-65.0036672343471));
#1260=CARTESIAN_POINT('Ctrl Pts',(-37.4184421126925,-299.999998118527,-65.0069904667418));
#1261=CARTESIAN_POINT('Ctrl Pts',(-37.4420435494971,-299.999906777311,-65.0953054818906));
#1262=CARTESIAN_POINT('Ctrl Pts',(-37.4647288863474,-299.998736097684,-65.1802698533084));
#1263=CARTESIAN_POINT('Ctrl Pts',(-37.8405829391057,-299.96135470838,-66.5892485454118));
#1264=CARTESIAN_POINT('Ctrl Pts',(-38.1844815586475,-299.663405643807,-67.8977477467843));
#1265=CARTESIAN_POINT('Ctrl Pts',(-38.8058785729921,-298.583794546428,-70.2901385440406));
#1266=CARTESIAN_POINT('Ctrl Pts',(-39.0800900770067,-297.826631601066,-71.3600593769166));
#1267=CARTESIAN_POINT('Ctrl Pts',(-39.5302749905786,-295.959199621799,-73.129676801045));
#1268=CARTESIAN_POINT('Ctrl Pts',(-39.704799195523,-294.877969416835,-73.8228516091399));
#1269=CARTESIAN_POINT('Ctrl Pts',(-39.9400662207805,-292.517083046147,-74.7597629918119));
#1270=CARTESIAN_POINT('Ctrl Pts',(-40.,-291.265601435694,-75.));
#1271=CARTESIAN_POINT('Ctrl Pts',(-40.,-290.,-75.));
#1272=CARTESIAN_POINT('',(40.,-290.,-75.));
#1273=CARTESIAN_POINT('',(-20.,-290.,-75.));
#1274=CARTESIAN_POINT('Ctrl Pts',(37.4165738677394,-300.,-65.));
#1275=CARTESIAN_POINT('Ctrl Pts',(37.4178641830721,-300.,-65.004827917896));
#1276=CARTESIAN_POINT('Ctrl Pts',(37.4191544358165,-299.999996503682,-65.0096558512448));
#1277=CARTESIAN_POINT('Ctrl Pts',(37.6085452584693,-299.998970022996,-65.7183647340855));
#1278=CARTESIAN_POINT('Ctrl Pts',(37.7948851768598,-299.92363508776,-66.4210182557983));
#1279=CARTESIAN_POINT('Ctrl Pts',(38.1574655139978,-299.626304416779,-67.797971120375));
#1280=CARTESIAN_POINT('Ctrl Pts',(38.3329419560254,-299.405471523059,-68.4693232134265));
#1281=CARTESIAN_POINT('Ctrl Pts',(38.805878572992,-298.583794546428,-70.2901385440406));
#1282=CARTESIAN_POINT('Ctrl Pts',(39.0800900770066,-297.826631601066,-71.3600593769166));
#1283=CARTESIAN_POINT('Ctrl Pts',(39.5302749905786,-295.959199621799,-73.129676801045));
#1284=CARTESIAN_POINT('Ctrl Pts',(39.7047991955229,-294.877969416835,-73.8228516091399));
#1285=CARTESIAN_POINT('Ctrl Pts',(39.9400662207805,-292.517083046147,-74.759762991812));
#1286=CARTESIAN_POINT('Ctrl Pts',(40.,-291.265601435694,-75.));
#1287=CARTESIAN_POINT('Ctrl Pts',(40.,-290.,-75.));
#1288=CARTESIAN_POINT('Origin',(0.,-290.,350.));
#1289=CARTESIAN_POINT('',(-75.,-300.,350.));
#1290=CARTESIAN_POINT('Origin',(-75.,-290.,350.));
#1291=CARTESIAN_POINT('',(-37.4165738677394,-300.,415.));
#1292=CARTESIAN_POINT('Origin',(0.,-300.,350.));
#1293=CARTESIAN_POINT('Ctrl Pts',(-37.4165738677394,-300.,415.));
#1294=CARTESIAN_POINT('Ctrl Pts',(-37.417864183072,-300.,415.004827917896));
#1295=CARTESIAN_POINT('Ctrl Pts',(-37.4191544358166,-299.999996503682,415.009655851245));
#1296=CARTESIAN_POINT('Ctrl Pts',(-37.6085452584593,-299.998970022996,415.718364734055));
#1297=CARTESIAN_POINT('Ctrl Pts',(-37.7948851768582,-299.923635087761,416.421018255792));
#1298=CARTESIAN_POINT('Ctrl Pts',(-38.1574655139977,-299.626304416779,417.797971120375));
#1299=CARTESIAN_POINT('Ctrl Pts',(-38.3329419560253,-299.405471523059,418.469323213426));
#1300=CARTESIAN_POINT('Ctrl Pts',(-38.8058785729921,-298.583794546428,420.29013854404));
#1301=CARTESIAN_POINT('Ctrl Pts',(-39.0800900770067,-297.826631601066,421.360059376917));
#1302=CARTESIAN_POINT('Ctrl Pts',(-39.5302749905787,-295.959199621799,423.129676801045));
#1303=CARTESIAN_POINT('Ctrl Pts',(-39.704799195523,-294.877969416835,423.82285160914));
#1304=CARTESIAN_POINT('Ctrl Pts',(-39.9400662207805,-292.517083046147,424.759762991812));
#1305=CARTESIAN_POINT('Ctrl Pts',(-40.,-291.265601435694,425.));
#1306=CARTESIAN_POINT('Ctrl Pts',(-40.,-290.,425.));
#1307=CARTESIAN_POINT('Origin',(19.9999999999999,-290.,415.));
#1308=CARTESIAN_POINT('Ctrl Pts',(-37.4165738677394,-300.,415.));
#1309=CARTESIAN_POINT('Ctrl Pts',(-37.4003916457866,-300.,415.004324880736));
#1310=CARTESIAN_POINT('Ctrl Pts',(-37.38420872483,-299.999997194313,415.008647142601));
#1311=CARTESIAN_POINT('Ctrl Pts',(-35.7298805340301,-299.99942462713,415.450211266603));
#1312=CARTESIAN_POINT('Ctrl Pts',(-34.0822197932809,-299.970311543212,415.861184085798));
#1313=CARTESIAN_POINT('Ctrl Pts',(-26.1971440984217,-299.74133644308,417.68771543791));
#1314=CARTESIAN_POINT('Ctrl Pts',(-19.8777188439418,-299.300501269844,418.738240424133));
#1315=CARTESIAN_POINT('Ctrl Pts',(-10.39437158896,-298.860699713106,419.646611509643));
#1316=CARTESIAN_POINT('Ctrl Pts',(-7.37705133687624,-298.752122422758,419.838602028251));
#1317=CARTESIAN_POINT('Ctrl Pts',(-1.98452474950029,-298.65734759144,420.005733746163));
#1318=CARTESIAN_POINT('Ctrl Pts',(0.360657700305688,-298.649210986512,420.019355057932));
#1319=CARTESIAN_POINT('Ctrl Pts',(5.47829130388587,-298.70613801222,419.920058589266));
#1320=CARTESIAN_POINT('Ctrl Pts',(8.22302003158586,-298.783955106181,419.785471186498));
#1321=CARTESIAN_POINT('Ctrl Pts',(16.1857219305903,-299.104562388361,419.161494262391));
#1322=CARTESIAN_POINT('Ctrl Pts',(21.356308118726,-299.433389997163,418.463506547286));
#1323=CARTESIAN_POINT('Ctrl Pts',(31.3310823470528,-299.920412761212,416.579490375821));
#1324=CARTESIAN_POINT('Ctrl Pts',(35.0413979068902,-299.999991162154,415.634784925641));
#1325=CARTESIAN_POINT('Ctrl Pts',(37.4162240087285,-299.999999999667,415.000093503046));
#1326=CARTESIAN_POINT('Ctrl Pts',(37.4163950706225,-299.999999999991,415.000047478423));
#1327=CARTESIAN_POINT('Ctrl Pts',(37.4166065179157,-300.000000000002,414.999991363616));
#1328=CARTESIAN_POINT('Ctrl Pts',(37.4165953030959,-299.999999999759,415.000080195183));
#1329=CARTESIAN_POINT('Ctrl Pts',(37.4166175186623,-299.999999998758,415.00016332274));
#1330=CARTESIAN_POINT('Ctrl Pts',(37.4166454876368,-299.999999996969,415.000267982162));
#1331=CARTESIAN_POINT('Ctrl Pts',(37.4175552353824,-299.999999869727,415.003671921366));
#1332=CARTESIAN_POINT('Ctrl Pts',(37.418443351809,-299.999998113732,415.00699510358));
#1333=CARTESIAN_POINT('Ctrl Pts',(37.4420435484488,-299.999906777315,415.095305477169));
#1334=CARTESIAN_POINT('Ctrl Pts',(37.4647288861221,-299.998736097706,415.180269852466));
#1335=CARTESIAN_POINT('Ctrl Pts',(37.8405829391063,-299.96135470838,416.58924854541));
#1336=CARTESIAN_POINT('Ctrl Pts',(38.1844815586472,-299.663405643807,417.897747746784));
#1337=CARTESIAN_POINT('Ctrl Pts',(38.805878572992,-298.583794546428,420.290138544041));
#1338=CARTESIAN_POINT('Ctrl Pts',(39.0800900770066,-297.826631601065,421.360059376917));
#1339=CARTESIAN_POINT('Ctrl Pts',(39.5302749905786,-295.959199621799,423.129676801045));
#1340=CARTESIAN_POINT('Ctrl Pts',(39.7047991955228,-294.877969416835,423.82285160914));
#1341=CARTESIAN_POINT('Ctrl Pts',(39.9400662207804,-292.517083046147,424.759762991812));
#1342=CARTESIAN_POINT('Ctrl Pts',(39.9999999999999,-291.265601435694,425.));
#1343=CARTESIAN_POINT('Ctrl Pts',(39.9999999999999,-290.,425.));
#1344=CARTESIAN_POINT('Origin',(0.,-290.,0.));
#1345=CARTESIAN_POINT('',(85.,-290.,0.));
#1346=CARTESIAN_POINT('Origin',(0.,-290.,0.));
#1347=CARTESIAN_POINT('',(75.,-300.,0.));
#1348=CARTESIAN_POINT('Origin',(75.,-290.,0.));
#1349=CARTESIAN_POINT('Origin',(0.,-300.,0.));
#1350=CARTESIAN_POINT('Origin',(75.,-290.,87.5));
#1351=CARTESIAN_POINT('',(85.,-290.,350.));
#1352=CARTESIAN_POINT('',(75.,-300.,350.));
#1353=CARTESIAN_POINT('Origin',(75.,-290.,350.));
#1354=CARTESIAN_POINT('',(75.,-300.,87.5));
#1355=CARTESIAN_POINT('',(85.,-290.,87.5));
#1356=CARTESIAN_POINT('Origin',(0.,-290.,350.));
#1357=CARTESIAN_POINT('Origin',(0.,-300.,350.));
#1358=CARTESIAN_POINT('Origin',(0.,-290.,350.));
#1359=CARTESIAN_POINT('Origin',(-75.,-290.,262.5));
#1360=CARTESIAN_POINT('',(-75.,-300.,0.));
#1361=CARTESIAN_POINT('Origin',(-75.,-290.,0.));
#1362=CARTESIAN_POINT('',(-75.,-300.,262.5));
#1363=CARTESIAN_POINT('Origin',(0.,-290.,0.));
#1364=CARTESIAN_POINT('Origin',(0.,-300.,0.));
#1365=CARTESIAN_POINT('Origin',(-40.,0.,-75.));
#1366=CARTESIAN_POINT('',(40.,0.,-75.));
#1367=CARTESIAN_POINT('',(-15.,-75.,-75.));
#1368=CARTESIAN_POINT('',(15.,-75.,-75.));
#1369=CARTESIAN_POINT('',(-27.5,-75.,-75.));
#1370=CARTESIAN_POINT('',(15.,-45.,-75.));
#1371=CARTESIAN_POINT('',(15.,-37.5,-75.));
#1372=CARTESIAN_POINT('',(-15.,-45.,-75.));
#1373=CARTESIAN_POINT('',(-12.5,-45.,-75.));
#1374=CARTESIAN_POINT('',(-15.,-22.5,-75.));
#1375=CARTESIAN_POINT('',(-15.,-255.,-75.));
#1376=CARTESIAN_POINT('',(15.,-255.,-75.));
#1377=CARTESIAN_POINT('',(-27.5,-255.,-75.));
#1378=CARTESIAN_POINT('',(15.,-225.,-75.));
#1379=CARTESIAN_POINT('',(15.,-127.5,-75.));
#1380=CARTESIAN_POINT('',(-15.,-225.,-75.));
#1381=CARTESIAN_POINT('',(-12.5,-225.,-75.));
#1382=CARTESIAN_POINT('',(-15.,-112.5,-75.));
#1383=CARTESIAN_POINT('Origin',(-15.,-255.,-75.));
#1384=CARTESIAN_POINT('',(-15.,-255.,-45.));
#1385=CARTESIAN_POINT('',(-15.,-255.,-75.));
#1386=CARTESIAN_POINT('',(15.,-255.,-45.));
#1387=CARTESIAN_POINT('',(15.,-255.,-45.));
#1388=CARTESIAN_POINT('',(15.,-255.,-75.));
#1389=CARTESIAN_POINT('Origin',(-15.,-225.,-75.));
#1390=CARTESIAN_POINT('',(-15.,-225.,-45.));
#1391=CARTESIAN_POINT('',(-15.,-225.,-75.));
#1392=CARTESIAN_POINT('',(-15.,-255.,-45.));
#1393=CARTESIAN_POINT('Origin',(15.,-225.,-75.));
#1394=CARTESIAN_POINT('',(15.,-225.,-45.));
#1395=CARTESIAN_POINT('',(15.,-225.,-75.));
#1396=CARTESIAN_POINT('',(-15.,-225.,-45.));
#1397=CARTESIAN_POINT('Origin',(15.,-255.,-75.));
#1398=CARTESIAN_POINT('',(15.,-225.,-45.));
#1399=CARTESIAN_POINT('Origin',(0.,-240.,-45.));
#1400=CARTESIAN_POINT('Origin',(-15.,-75.,-75.));
#1401=CARTESIAN_POINT('',(-15.,-75.,-45.));
#1402=CARTESIAN_POINT('',(-15.,-75.,-75.));
#1403=CARTESIAN_POINT('',(15.,-75.,-45.));
#1404=CARTESIAN_POINT('',(15.,-75.,-45.));
#1405=CARTESIAN_POINT('',(15.,-75.,-75.));
#1406=CARTESIAN_POINT('Origin',(-15.,-45.,-75.));
#1407=CARTESIAN_POINT('',(-15.,-45.,-45.));
#1408=CARTESIAN_POINT('',(-15.,-45.,-75.));
#1409=CARTESIAN_POINT('',(-15.,-75.,-45.));
#1410=CARTESIAN_POINT('Origin',(15.,-45.,-75.));
#1411=CARTESIAN_POINT('',(15.,-45.,-45.));
#1412=CARTESIAN_POINT('',(15.,-45.,-75.));
#1413=CARTESIAN_POINT('',(-15.,-45.,-45.));
#1414=CARTESIAN_POINT('Origin',(15.,-75.,-75.));
#1415=CARTESIAN_POINT('',(15.,-45.,-45.));
#1416=CARTESIAN_POINT('Origin',(0.,-60.,-45.));
#1417=CARTESIAN_POINT('Origin',(0.,0.,350.));
#1418=CARTESIAN_POINT('',(85.,0.,350.));
#1419=CARTESIAN_POINT('Origin',(85.,0.,0.));
#1420=CARTESIAN_POINT('',(85.,0.,0.));
#1421=CARTESIAN_POINT('Origin',(0.,0.,0.));
#1422=CARTESIAN_POINT('Origin',(1.77635683940025E-14,0.,175.));
#1423=CARTESIAN_POINT('Origin',(1.77635683940025E-14,-300.,175.));
#1424=UNCERTAINTY_MEASURE_WITH_UNIT(LENGTH_MEASURE(0.01),#1428,
'DISTANCE_ACCURACY_VALUE',
'Maximum model space distance between geometric entities at asserted c
onnectivities');
#1425=UNCERTAINTY_MEASURE_WITH_UNIT(LENGTH_MEASURE(0.01),#1428,
'DISTANCE_ACCURACY_VALUE',
'Maximum model space distance between geometric entities at asserted c
onnectivities');
#1426=(
GEOMETRIC_REPRESENTATION_CONTEXT(3)
GLOBAL_UNCERTAINTY_ASSIGNED_CONTEXT((#1424))
GLOBAL_UNIT_ASSIGNED_CONTEXT((#1428,#1430,#1431))
REPRESENTATION_CONTEXT('','3D')
);
#1427=(
GEOMETRIC_REPRESENTATION_CONTEXT(3)
GLOBAL_UNCERTAINTY_ASSIGNED_CONTEXT((#1425))
GLOBAL_UNIT_ASSIGNED_CONTEXT((#1428,#1430,#1431))
REPRESENTATION_CONTEXT('','3D')
);
#1428=(
LENGTH_UNIT()
NAMED_UNIT(*)
SI_UNIT(.MILLI.,.METRE.)
);
#1429=(
LENGTH_UNIT()
NAMED_UNIT(*)
SI_UNIT($,.METRE.)
);
#1430=(
NAMED_UNIT(*)
PLANE_ANGLE_UNIT()
SI_UNIT($,.RADIAN.)
);
#1431=(
NAMED_UNIT(*)
SI_UNIT($,.STERADIAN.)
SOLID_ANGLE_UNIT()
);
#1432=SHAPE_DEFINITION_REPRESENTATION(#1433,#1434);
#1433=PRODUCT_DEFINITION_SHAPE('',$,#1436);
#1434=SHAPE_REPRESENTATION('',(#748),#1426);
#1435=PRODUCT_DEFINITION_CONTEXT('part definition',#1440,'design');
#1436=PRODUCT_DEFINITION('FusionComponent','FusionComponent',#1437,#1435);
#1437=PRODUCT_DEFINITION_FORMATION('',$,#1442);
#1438=PRODUCT_RELATED_PRODUCT_CATEGORY('FusionComponent',
'FusionComponent',(#1442));
#1439=APPLICATION_PROTOCOL_DEFINITION('international standard',
'automotive_design',2009,#1440);
#1440=APPLICATION_CONTEXT(
'Core Data for Automotive Mechanical Design Process');
#1441=PRODUCT_CONTEXT('part definition',#1440,'mechanical');
#1442=PRODUCT('FusionComponent','FusionComponent',$,(#1441));
#1443=PRESENTATION_STYLE_ASSIGNMENT((#1445));
#1444=PRESENTATION_STYLE_ASSIGNMENT((#1446));
#1445=SURFACE_STYLE_USAGE(.BOTH.,#1447);
#1446=SURFACE_STYLE_USAGE(.BOTH.,#1448);
#1447=SURFACE_SIDE_STYLE('',(#1449));
#1448=SURFACE_SIDE_STYLE('',(#1450));
#1449=SURFACE_STYLE_FILL_AREA(#1451);
#1450=SURFACE_STYLE_FILL_AREA(#1452);
#1451=FILL_AREA_STYLE('Steel - Satin',(#1453));
#1452=FILL_AREA_STYLE('Opaque(160,160,160)',(#1454));
#1453=FILL_AREA_STYLE_COLOUR('Steel - Satin',#1455);
#1454=FILL_AREA_STYLE_COLOUR('Opaque(160,160,160)',#1456);
#1455=COLOUR_RGB('Steel - Satin',0.627450980392157,0.627450980392157,0.627450980392157);
#1456=COLOUR_RGB('Opaque(160,160,160)',0.627450980392157,0.627450980392157,
0.627450980392157);
ENDSEC;
END-ISO-10303-21;
