ISO-10303-21;
HEADER;
/* Generated by software containing ST-Developer
 * from STEP Tools, Inc. (www.steptools.com) 
 */

FILE_DESCRIPTION(
/* description */ (''),
/* implementation_level */ '2;1');

FILE_NAME(
/* name */ 'Component10.step',
/* time_stamp */ '2025-12-18T20:55:00+02:00',
/* author */ (''),
/* organization */ (''),
/* preprocessor_version */ 'ST-DEVELOPER v20.1',
/* originating_system */ 'Autodesk Translation Framework v14.21.0.0',
/* authorisation */ '');

FILE_SCHEMA (('AUTOMOTIVE_DESIGN { 1 0 10303 214 3 1 1 }'));
ENDSEC;

DATA;
#10=MECHANICAL_DESIGN_GEOMETRIC_PRESENTATION_REPRESENTATION('',(#13),#815);
#11=SHAPE_REPRESENTATION_RELATIONSHIP('SRR','None',#822,#12);
#12=ADVANCED_BREP_SHAPE_REPRESENTATION('',(#14),#814);
#13=STYLED_ITEM('',(#832),#14);
#14=MANIFOLD_SOLID_BREP('Body1',#467);
#15=TOROIDAL_SURFACE('',#508,25.,5.);
#16=TOROIDAL_SURFACE('',#514,25.,5.);
#17=TOROIDAL_SURFACE('',#521,25.,5.);
#18=TOROIDAL_SURFACE('',#527,25.,5.);
#19=FACE_BOUND('',#66,.T.);
#20=FACE_BOUND('',#78,.T.);
#21=PLANE('',#484);
#22=PLANE('',#485);
#23=PLANE('',#491);
#24=PLANE('',#496);
#25=PLANE('',#497);
#26=PLANE('',#498);
#27=PLANE('',#499);
#28=PLANE('',#500);
#29=PLANE('',#501);
#30=PLANE('',#502);
#31=PLANE('',#519);
#32=PLANE('',#520);
#33=PLANE('',#530);
#34=PLANE('',#532);
#35=FACE_OUTER_BOUND('',#63,.T.);
#36=FACE_OUTER_BOUND('',#64,.T.);
#37=FACE_OUTER_BOUND('',#65,.T.);
#38=FACE_OUTER_BOUND('',#67,.T.);
#39=FACE_OUTER_BOUND('',#68,.T.);
#40=FACE_OUTER_BOUND('',#69,.T.);
#41=FACE_OUTER_BOUND('',#70,.T.);
#42=FACE_OUTER_BOUND('',#71,.T.);
#43=FACE_OUTER_BOUND('',#72,.T.);
#44=FACE_OUTER_BOUND('',#73,.T.);
#45=FACE_OUTER_BOUND('',#74,.T.);
#46=FACE_OUTER_BOUND('',#75,.T.);
#47=FACE_OUTER_BOUND('',#76,.T.);
#48=FACE_OUTER_BOUND('',#77,.T.);
#49=FACE_OUTER_BOUND('',#79,.T.);
#50=FACE_OUTER_BOUND('',#80,.T.);
#51=FACE_OUTER_BOUND('',#81,.T.);
#52=FACE_OUTER_BOUND('',#82,.T.);
#53=FACE_OUTER_BOUND('',#83,.T.);
#54=FACE_OUTER_BOUND('',#84,.T.);
#55=FACE_OUTER_BOUND('',#85,.T.);
#56=FACE_OUTER_BOUND('',#86,.T.);
#57=FACE_OUTER_BOUND('',#87,.T.);
#58=FACE_OUTER_BOUND('',#88,.T.);
#59=FACE_OUTER_BOUND('',#89,.T.);
#60=FACE_OUTER_BOUND('',#90,.T.);
#61=FACE_OUTER_BOUND('',#91,.T.);
#62=FACE_OUTER_BOUND('',#92,.T.);
#63=EDGE_LOOP('',(#301,#302,#303,#304));
#64=EDGE_LOOP('',(#305,#306,#307,#308));
#65=EDGE_LOOP('',(#309,#310,#311,#312,#313,#314,#315,#316));
#66=EDGE_LOOP('',(#317,#318,#319,#320));
#67=EDGE_LOOP('',(#321,#322,#323,#324));
#68=EDGE_LOOP('',(#325,#326,#327,#328));
#69=EDGE_LOOP('',(#329,#330,#331,#332));
#70=EDGE_LOOP('',(#333,#334,#335,#336));
#71=EDGE_LOOP('',(#337,#338,#339,#340));
#72=EDGE_LOOP('',(#341,#342,#343,#344));
#73=EDGE_LOOP('',(#345,#346,#347,#348));
#74=EDGE_LOOP('',(#349,#350,#351,#352));
#75=EDGE_LOOP('',(#353,#354,#355,#356));
#76=EDGE_LOOP('',(#357,#358,#359,#360));
#77=EDGE_LOOP('',(#361,#362,#363,#364));
#78=EDGE_LOOP('',(#365,#366,#367,#368,#369,#370,#371,#372));
#79=EDGE_LOOP('',(#373,#374,#375,#376));
#80=EDGE_LOOP('',(#377,#378,#379,#380));
#81=EDGE_LOOP('',(#381,#382,#383,#384));
#82=EDGE_LOOP('',(#385,#386,#387,#388));
#83=EDGE_LOOP('',(#389,#390,#391,#392));
#84=EDGE_LOOP('',(#393,#394,#395,#396));
#85=EDGE_LOOP('',(#397,#398,#399,#400));
#86=EDGE_LOOP('',(#401,#402,#403,#404));
#87=EDGE_LOOP('',(#405,#406,#407,#408));
#88=EDGE_LOOP('',(#409,#410,#411,#412));
#89=EDGE_LOOP('',(#413,#414,#415,#416));
#90=EDGE_LOOP('',(#417,#418,#419,#420));
#91=EDGE_LOOP('',(#421,#422,#423,#424));
#92=EDGE_LOOP('',(#425,#426,#427,#428));
#93=LINE('',#685,#133);
#94=LINE('',#688,#134);
#95=LINE('',#691,#135);
#96=LINE('',#693,#136);
#97=LINE('',#694,#137);
#98=LINE('',#697,#138);
#99=LINE('',#701,#139);
#100=LINE('',#705,#140);
#101=LINE('',#709,#141);
#102=LINE('',#711,#142);
#103=LINE('',#713,#143);
#104=LINE('',#714,#144);
#105=LINE('',#717,#145);
#106=LINE('',#720,#146);
#107=LINE('',#723,#147);
#108=LINE('',#724,#148);
#109=LINE('',#728,#149);
#110=LINE('',#731,#150);
#111=LINE('',#736,#151);
#112=LINE('',#737,#152);
#113=LINE('',#738,#153);
#114=LINE('',#741,#154);
#115=LINE('',#742,#155);
#116=LINE('',#745,#156);
#117=LINE('',#746,#157);
#118=LINE('',#748,#158);
#119=LINE('',#750,#159);
#120=LINE('',#752,#160);
#121=LINE('',#758,#161);
#122=LINE('',#761,#162);
#123=LINE('',#767,#163);
#124=LINE('',#770,#164);
#125=LINE('',#781,#165);
#126=LINE('',#782,#166);
#127=LINE('',#788,#167);
#128=LINE('',#791,#168);
#129=LINE('',#794,#169);
#130=LINE('',#795,#170);
#131=LINE('',#804,#171);
#132=LINE('',#809,#172);
#133=VECTOR('',#539,10.);
#134=VECTOR('',#542,10.);
#135=VECTOR('',#545,10.);
#136=VECTOR('',#546,10.);
#137=VECTOR('',#547,10.);
#138=VECTOR('',#550,10.);
#139=VECTOR('',#553,10.);
#140=VECTOR('',#556,10.);
#141=VECTOR('',#559,10.);
#142=VECTOR('',#560,10.);
#143=VECTOR('',#561,10.);
#144=VECTOR('',#562,10.);
#145=VECTOR('',#565,10.);
#146=VECTOR('',#568,10.);
#147=VECTOR('',#571,10.);
#148=VECTOR('',#572,10.);
#149=VECTOR('',#577,10.);
#150=VECTOR('',#580,10.);
#151=VECTOR('',#585,10.);
#152=VECTOR('',#586,10.);
#153=VECTOR('',#587,10.);
#154=VECTOR('',#590,10.);
#155=VECTOR('',#591,10.);
#156=VECTOR('',#594,10.);
#157=VECTOR('',#595,10.);
#158=VECTOR('',#598,10.);
#159=VECTOR('',#601,10.);
#160=VECTOR('',#604,10.);
#161=VECTOR('',#609,10.);
#162=VECTOR('',#612,10.);
#163=VECTOR('',#617,10.);
#164=VECTOR('',#620,10.);
#165=VECTOR('',#633,10.);
#166=VECTOR('',#634,10.);
#167=VECTOR('',#643,10.);
#168=VECTOR('',#646,10.);
#169=VECTOR('',#649,10.);
#170=VECTOR('',#650,10.);
#171=VECTOR('',#665,10.);
#172=VECTOR('',#674,10.);
#173=CIRCLE('',#482,2.);
#174=CIRCLE('',#483,2.);
#175=CIRCLE('',#486,2.);
#176=CIRCLE('',#487,2.);
#177=CIRCLE('',#488,2.);
#178=CIRCLE('',#490,2.);
#179=CIRCLE('',#493,2.);
#180=CIRCLE('',#495,2.);
#181=CIRCLE('',#503,25.);
#182=CIRCLE('',#504,25.);
#183=CIRCLE('',#506,5.);
#184=CIRCLE('',#507,5.);
#185=CIRCLE('',#509,5.);
#186=CIRCLE('',#510,25.);
#187=CIRCLE('',#511,30.);
#188=CIRCLE('',#513,5.);
#189=CIRCLE('',#515,30.);
#190=CIRCLE('',#516,25.);
#191=CIRCLE('',#518,30.);
#192=CIRCLE('',#522,5.);
#193=CIRCLE('',#523,30.);
#194=CIRCLE('',#524,5.);
#195=CIRCLE('',#526,5.);
#196=CIRCLE('',#528,5.);
#197=VERTEX_POINT('',#681);
#198=VERTEX_POINT('',#682);
#199=VERTEX_POINT('',#684);
#200=VERTEX_POINT('',#686);
#201=VERTEX_POINT('',#690);
#202=VERTEX_POINT('',#692);
#203=VERTEX_POINT('',#696);
#204=VERTEX_POINT('',#698);
#205=VERTEX_POINT('',#700);
#206=VERTEX_POINT('',#702);
#207=VERTEX_POINT('',#704);
#208=VERTEX_POINT('',#707);
#209=VERTEX_POINT('',#708);
#210=VERTEX_POINT('',#710);
#211=VERTEX_POINT('',#712);
#212=VERTEX_POINT('',#716);
#213=VERTEX_POINT('',#718);
#214=VERTEX_POINT('',#722);
#215=VERTEX_POINT('',#726);
#216=VERTEX_POINT('',#730);
#217=VERTEX_POINT('',#734);
#218=VERTEX_POINT('',#735);
#219=VERTEX_POINT('',#740);
#220=VERTEX_POINT('',#744);
#221=VERTEX_POINT('',#754);
#222=VERTEX_POINT('',#755);
#223=VERTEX_POINT('',#757);
#224=VERTEX_POINT('',#759);
#225=VERTEX_POINT('',#763);
#226=VERTEX_POINT('',#764);
#227=VERTEX_POINT('',#766);
#228=VERTEX_POINT('',#768);
#229=VERTEX_POINT('',#772);
#230=VERTEX_POINT('',#773);
#231=VERTEX_POINT('',#778);
#232=VERTEX_POINT('',#779);
#233=VERTEX_POINT('',#787);
#234=VERTEX_POINT('',#789);
#235=VERTEX_POINT('',#793);
#236=VERTEX_POINT('',#799);
#237=EDGE_CURVE('',#197,#198,#173,.T.);
#238=EDGE_CURVE('',#198,#199,#93,.T.);
#239=EDGE_CURVE('',#199,#200,#174,.F.);
#240=EDGE_CURVE('',#200,#197,#94,.T.);
#241=EDGE_CURVE('',#201,#198,#95,.T.);
#242=EDGE_CURVE('',#202,#201,#96,.T.);
#243=EDGE_CURVE('',#199,#202,#97,.T.);
#244=EDGE_CURVE('',#197,#203,#98,.T.);
#245=EDGE_CURVE('',#204,#203,#175,.T.);
#246=EDGE_CURVE('',#204,#205,#99,.T.);
#247=EDGE_CURVE('',#206,#205,#176,.T.);
#248=EDGE_CURVE('',#206,#207,#100,.T.);
#249=EDGE_CURVE('',#201,#207,#177,.T.);
#250=EDGE_CURVE('',#208,#209,#101,.T.);
#251=EDGE_CURVE('',#209,#210,#102,.T.);
#252=EDGE_CURVE('',#210,#211,#103,.T.);
#253=EDGE_CURVE('',#211,#208,#104,.T.);
#254=EDGE_CURVE('',#203,#212,#105,.T.);
#255=EDGE_CURVE('',#212,#213,#178,.F.);
#256=EDGE_CURVE('',#213,#204,#106,.T.);
#257=EDGE_CURVE('',#214,#213,#107,.T.);
#258=EDGE_CURVE('',#205,#214,#108,.T.);
#259=EDGE_CURVE('',#214,#215,#179,.F.);
#260=EDGE_CURVE('',#215,#206,#109,.T.);
#261=EDGE_CURVE('',#207,#216,#110,.T.);
#262=EDGE_CURVE('',#216,#202,#180,.F.);
#263=EDGE_CURVE('',#217,#218,#111,.T.);
#264=EDGE_CURVE('',#217,#208,#112,.T.);
#265=EDGE_CURVE('',#218,#211,#113,.T.);
#266=EDGE_CURVE('',#218,#219,#114,.T.);
#267=EDGE_CURVE('',#219,#210,#115,.T.);
#268=EDGE_CURVE('',#219,#220,#116,.T.);
#269=EDGE_CURVE('',#220,#209,#117,.T.);
#270=EDGE_CURVE('',#220,#217,#118,.T.);
#271=EDGE_CURVE('',#212,#200,#119,.T.);
#272=EDGE_CURVE('',#216,#215,#120,.T.);
#273=EDGE_CURVE('',#221,#222,#181,.T.);
#274=EDGE_CURVE('',#223,#221,#121,.T.);
#275=EDGE_CURVE('',#224,#223,#182,.T.);
#276=EDGE_CURVE('',#222,#224,#122,.T.);
#277=EDGE_CURVE('',#225,#226,#183,.T.);
#278=EDGE_CURVE('',#226,#227,#123,.T.);
#279=EDGE_CURVE('',#227,#228,#184,.T.);
#280=EDGE_CURVE('',#228,#225,#124,.T.);
#281=EDGE_CURVE('',#229,#230,#185,.T.);
#282=EDGE_CURVE('',#230,#228,#186,.T.);
#283=EDGE_CURVE('',#227,#229,#187,.T.);
#284=EDGE_CURVE('',#231,#232,#188,.T.);
#285=EDGE_CURVE('',#232,#230,#125,.T.);
#286=EDGE_CURVE('',#229,#231,#126,.T.);
#287=EDGE_CURVE('',#231,#226,#189,.T.);
#288=EDGE_CURVE('',#225,#232,#190,.T.);
#289=EDGE_CURVE('',#227,#233,#127,.T.);
#290=EDGE_CURVE('',#234,#233,#191,.T.);
#291=EDGE_CURVE('',#229,#234,#128,.T.);
#292=EDGE_CURVE('',#226,#235,#129,.T.);
#293=EDGE_CURVE('',#233,#235,#130,.T.);
#294=EDGE_CURVE('',#222,#235,#192,.T.);
#295=EDGE_CURVE('',#235,#236,#193,.T.);
#296=EDGE_CURVE('',#236,#221,#194,.T.);
#297=EDGE_CURVE('',#234,#223,#195,.T.);
#298=EDGE_CURVE('',#236,#234,#131,.T.);
#299=EDGE_CURVE('',#233,#224,#196,.T.);
#300=EDGE_CURVE('',#231,#236,#132,.T.);
#301=ORIENTED_EDGE('',*,*,#237,.T.);
#302=ORIENTED_EDGE('',*,*,#238,.T.);
#303=ORIENTED_EDGE('',*,*,#239,.T.);
#304=ORIENTED_EDGE('',*,*,#240,.T.);
#305=ORIENTED_EDGE('',*,*,#238,.F.);
#306=ORIENTED_EDGE('',*,*,#241,.F.);
#307=ORIENTED_EDGE('',*,*,#242,.F.);
#308=ORIENTED_EDGE('',*,*,#243,.F.);
#309=ORIENTED_EDGE('',*,*,#237,.F.);
#310=ORIENTED_EDGE('',*,*,#244,.T.);
#311=ORIENTED_EDGE('',*,*,#245,.F.);
#312=ORIENTED_EDGE('',*,*,#246,.T.);
#313=ORIENTED_EDGE('',*,*,#247,.F.);
#314=ORIENTED_EDGE('',*,*,#248,.T.);
#315=ORIENTED_EDGE('',*,*,#249,.F.);
#316=ORIENTED_EDGE('',*,*,#241,.T.);
#317=ORIENTED_EDGE('',*,*,#250,.T.);
#318=ORIENTED_EDGE('',*,*,#251,.T.);
#319=ORIENTED_EDGE('',*,*,#252,.T.);
#320=ORIENTED_EDGE('',*,*,#253,.T.);
#321=ORIENTED_EDGE('',*,*,#245,.T.);
#322=ORIENTED_EDGE('',*,*,#254,.T.);
#323=ORIENTED_EDGE('',*,*,#255,.T.);
#324=ORIENTED_EDGE('',*,*,#256,.T.);
#325=ORIENTED_EDGE('',*,*,#256,.F.);
#326=ORIENTED_EDGE('',*,*,#257,.F.);
#327=ORIENTED_EDGE('',*,*,#258,.F.);
#328=ORIENTED_EDGE('',*,*,#246,.F.);
#329=ORIENTED_EDGE('',*,*,#247,.T.);
#330=ORIENTED_EDGE('',*,*,#258,.T.);
#331=ORIENTED_EDGE('',*,*,#259,.T.);
#332=ORIENTED_EDGE('',*,*,#260,.T.);
#333=ORIENTED_EDGE('',*,*,#249,.T.);
#334=ORIENTED_EDGE('',*,*,#261,.T.);
#335=ORIENTED_EDGE('',*,*,#262,.T.);
#336=ORIENTED_EDGE('',*,*,#242,.T.);
#337=ORIENTED_EDGE('',*,*,#263,.F.);
#338=ORIENTED_EDGE('',*,*,#264,.T.);
#339=ORIENTED_EDGE('',*,*,#253,.F.);
#340=ORIENTED_EDGE('',*,*,#265,.F.);
#341=ORIENTED_EDGE('',*,*,#266,.F.);
#342=ORIENTED_EDGE('',*,*,#265,.T.);
#343=ORIENTED_EDGE('',*,*,#252,.F.);
#344=ORIENTED_EDGE('',*,*,#267,.F.);
#345=ORIENTED_EDGE('',*,*,#268,.F.);
#346=ORIENTED_EDGE('',*,*,#267,.T.);
#347=ORIENTED_EDGE('',*,*,#251,.F.);
#348=ORIENTED_EDGE('',*,*,#269,.F.);
#349=ORIENTED_EDGE('',*,*,#270,.F.);
#350=ORIENTED_EDGE('',*,*,#269,.T.);
#351=ORIENTED_EDGE('',*,*,#250,.F.);
#352=ORIENTED_EDGE('',*,*,#264,.F.);
#353=ORIENTED_EDGE('',*,*,#240,.F.);
#354=ORIENTED_EDGE('',*,*,#271,.F.);
#355=ORIENTED_EDGE('',*,*,#254,.F.);
#356=ORIENTED_EDGE('',*,*,#244,.F.);
#357=ORIENTED_EDGE('',*,*,#260,.F.);
#358=ORIENTED_EDGE('',*,*,#272,.F.);
#359=ORIENTED_EDGE('',*,*,#261,.F.);
#360=ORIENTED_EDGE('',*,*,#248,.F.);
#361=ORIENTED_EDGE('',*,*,#273,.F.);
#362=ORIENTED_EDGE('',*,*,#274,.F.);
#363=ORIENTED_EDGE('',*,*,#275,.F.);
#364=ORIENTED_EDGE('',*,*,#276,.F.);
#365=ORIENTED_EDGE('',*,*,#257,.T.);
#366=ORIENTED_EDGE('',*,*,#255,.F.);
#367=ORIENTED_EDGE('',*,*,#271,.T.);
#368=ORIENTED_EDGE('',*,*,#239,.F.);
#369=ORIENTED_EDGE('',*,*,#243,.T.);
#370=ORIENTED_EDGE('',*,*,#262,.F.);
#371=ORIENTED_EDGE('',*,*,#272,.T.);
#372=ORIENTED_EDGE('',*,*,#259,.F.);
#373=ORIENTED_EDGE('',*,*,#277,.T.);
#374=ORIENTED_EDGE('',*,*,#278,.T.);
#375=ORIENTED_EDGE('',*,*,#279,.T.);
#376=ORIENTED_EDGE('',*,*,#280,.T.);
#377=ORIENTED_EDGE('',*,*,#281,.T.);
#378=ORIENTED_EDGE('',*,*,#282,.T.);
#379=ORIENTED_EDGE('',*,*,#279,.F.);
#380=ORIENTED_EDGE('',*,*,#283,.T.);
#381=ORIENTED_EDGE('',*,*,#284,.T.);
#382=ORIENTED_EDGE('',*,*,#285,.T.);
#383=ORIENTED_EDGE('',*,*,#281,.F.);
#384=ORIENTED_EDGE('',*,*,#286,.T.);
#385=ORIENTED_EDGE('',*,*,#284,.F.);
#386=ORIENTED_EDGE('',*,*,#287,.T.);
#387=ORIENTED_EDGE('',*,*,#277,.F.);
#388=ORIENTED_EDGE('',*,*,#288,.T.);
#389=ORIENTED_EDGE('',*,*,#283,.F.);
#390=ORIENTED_EDGE('',*,*,#289,.T.);
#391=ORIENTED_EDGE('',*,*,#290,.F.);
#392=ORIENTED_EDGE('',*,*,#291,.F.);
#393=ORIENTED_EDGE('',*,*,#278,.F.);
#394=ORIENTED_EDGE('',*,*,#292,.T.);
#395=ORIENTED_EDGE('',*,*,#293,.F.);
#396=ORIENTED_EDGE('',*,*,#289,.F.);
#397=ORIENTED_EDGE('',*,*,#280,.F.);
#398=ORIENTED_EDGE('',*,*,#282,.F.);
#399=ORIENTED_EDGE('',*,*,#285,.F.);
#400=ORIENTED_EDGE('',*,*,#288,.F.);
#401=ORIENTED_EDGE('',*,*,#294,.T.);
#402=ORIENTED_EDGE('',*,*,#295,.T.);
#403=ORIENTED_EDGE('',*,*,#296,.T.);
#404=ORIENTED_EDGE('',*,*,#273,.T.);
#405=ORIENTED_EDGE('',*,*,#297,.T.);
#406=ORIENTED_EDGE('',*,*,#274,.T.);
#407=ORIENTED_EDGE('',*,*,#296,.F.);
#408=ORIENTED_EDGE('',*,*,#298,.T.);
#409=ORIENTED_EDGE('',*,*,#299,.T.);
#410=ORIENTED_EDGE('',*,*,#275,.T.);
#411=ORIENTED_EDGE('',*,*,#297,.F.);
#412=ORIENTED_EDGE('',*,*,#290,.T.);
#413=ORIENTED_EDGE('',*,*,#294,.F.);
#414=ORIENTED_EDGE('',*,*,#276,.T.);
#415=ORIENTED_EDGE('',*,*,#299,.F.);
#416=ORIENTED_EDGE('',*,*,#293,.T.);
#417=ORIENTED_EDGE('',*,*,#286,.F.);
#418=ORIENTED_EDGE('',*,*,#291,.T.);
#419=ORIENTED_EDGE('',*,*,#298,.F.);
#420=ORIENTED_EDGE('',*,*,#300,.F.);
#421=ORIENTED_EDGE('',*,*,#287,.F.);
#422=ORIENTED_EDGE('',*,*,#300,.T.);
#423=ORIENTED_EDGE('',*,*,#295,.F.);
#424=ORIENTED_EDGE('',*,*,#292,.F.);
#425=ORIENTED_EDGE('',*,*,#263,.T.);
#426=ORIENTED_EDGE('',*,*,#266,.T.);
#427=ORIENTED_EDGE('',*,*,#268,.T.);
#428=ORIENTED_EDGE('',*,*,#270,.T.);
#429=CYLINDRICAL_SURFACE('',#481,2.);
#430=CYLINDRICAL_SURFACE('',#489,2.);
#431=CYLINDRICAL_SURFACE('',#492,2.);
#432=CYLINDRICAL_SURFACE('',#494,2.);
#433=CYLINDRICAL_SURFACE('',#505,5.);
#434=CYLINDRICAL_SURFACE('',#512,5.);
#435=CYLINDRICAL_SURFACE('',#517,30.);
#436=CYLINDRICAL_SURFACE('',#525,5.);
#437=CYLINDRICAL_SURFACE('',#529,5.);
#438=CYLINDRICAL_SURFACE('',#531,30.);
#439=ADVANCED_FACE('',(#35),#429,.T.);
#440=ADVANCED_FACE('',(#36),#21,.T.);
#441=ADVANCED_FACE('',(#37,#19),#22,.T.);
#442=ADVANCED_FACE('',(#38),#430,.T.);
#443=ADVANCED_FACE('',(#39),#23,.T.);
#444=ADVANCED_FACE('',(#40),#431,.T.);
#445=ADVANCED_FACE('',(#41),#432,.T.);
#446=ADVANCED_FACE('',(#42),#24,.T.);
#447=ADVANCED_FACE('',(#43),#25,.T.);
#448=ADVANCED_FACE('',(#44),#26,.T.);
#449=ADVANCED_FACE('',(#45),#27,.T.);
#450=ADVANCED_FACE('',(#46),#28,.T.);
#451=ADVANCED_FACE('',(#47),#29,.T.);
#452=ADVANCED_FACE('',(#48,#20),#30,.T.);
#453=ADVANCED_FACE('',(#49),#433,.T.);
#454=ADVANCED_FACE('',(#50),#15,.T.);
#455=ADVANCED_FACE('',(#51),#434,.T.);
#456=ADVANCED_FACE('',(#52),#16,.T.);
#457=ADVANCED_FACE('',(#53),#435,.T.);
#458=ADVANCED_FACE('',(#54),#31,.T.);
#459=ADVANCED_FACE('',(#55),#32,.F.);
#460=ADVANCED_FACE('',(#56),#17,.T.);
#461=ADVANCED_FACE('',(#57),#436,.T.);
#462=ADVANCED_FACE('',(#58),#18,.T.);
#463=ADVANCED_FACE('',(#59),#437,.T.);
#464=ADVANCED_FACE('',(#60),#33,.T.);
#465=ADVANCED_FACE('',(#61),#438,.T.);
#466=ADVANCED_FACE('',(#62),#34,.T.);
#467=CLOSED_SHELL('',(#439,#440,#441,#442,#443,#444,#445,#446,#447,#448,
#449,#450,#451,#452,#453,#454,#455,#456,#457,#458,#459,#460,#461,#462,#463,
#464,#465,#466));
#468=DERIVED_UNIT_ELEMENT(#470,1.);
#469=DERIVED_UNIT_ELEMENT(#817,-3.);
#470=(
MASS_UNIT()
NAMED_UNIT(*)
SI_UNIT(.KILO.,.GRAM.)
);
#471=DERIVED_UNIT((#468,#469));
#472=MEASURE_REPRESENTATION_ITEM('density measure',
POSITIVE_RATIO_MEASURE(7850.),#471);
#473=PROPERTY_DEFINITION_REPRESENTATION(#478,#475);
#474=PROPERTY_DEFINITION_REPRESENTATION(#479,#476);
#475=REPRESENTATION('material name',(#477),#814);
#476=REPRESENTATION('density',(#472),#814);
#477=DESCRIPTIVE_REPRESENTATION_ITEM('Steel','Steel');
#478=PROPERTY_DEFINITION('material property','material name',#824);
#479=PROPERTY_DEFINITION('material property','density of part',#824);
#480=AXIS2_PLACEMENT_3D('',#679,#533,#534);
#481=AXIS2_PLACEMENT_3D('',#680,#535,#536);
#482=AXIS2_PLACEMENT_3D('',#683,#537,#538);
#483=AXIS2_PLACEMENT_3D('',#687,#540,#541);
#484=AXIS2_PLACEMENT_3D('',#689,#543,#544);
#485=AXIS2_PLACEMENT_3D('',#695,#548,#549);
#486=AXIS2_PLACEMENT_3D('',#699,#551,#552);
#487=AXIS2_PLACEMENT_3D('',#703,#554,#555);
#488=AXIS2_PLACEMENT_3D('',#706,#557,#558);
#489=AXIS2_PLACEMENT_3D('',#715,#563,#564);
#490=AXIS2_PLACEMENT_3D('',#719,#566,#567);
#491=AXIS2_PLACEMENT_3D('',#721,#569,#570);
#492=AXIS2_PLACEMENT_3D('',#725,#573,#574);
#493=AXIS2_PLACEMENT_3D('',#727,#575,#576);
#494=AXIS2_PLACEMENT_3D('',#729,#578,#579);
#495=AXIS2_PLACEMENT_3D('',#732,#581,#582);
#496=AXIS2_PLACEMENT_3D('',#733,#583,#584);
#497=AXIS2_PLACEMENT_3D('',#739,#588,#589);
#498=AXIS2_PLACEMENT_3D('',#743,#592,#593);
#499=AXIS2_PLACEMENT_3D('',#747,#596,#597);
#500=AXIS2_PLACEMENT_3D('',#749,#599,#600);
#501=AXIS2_PLACEMENT_3D('',#751,#602,#603);
#502=AXIS2_PLACEMENT_3D('',#753,#605,#606);
#503=AXIS2_PLACEMENT_3D('',#756,#607,#608);
#504=AXIS2_PLACEMENT_3D('',#760,#610,#611);
#505=AXIS2_PLACEMENT_3D('',#762,#613,#614);
#506=AXIS2_PLACEMENT_3D('',#765,#615,#616);
#507=AXIS2_PLACEMENT_3D('',#769,#618,#619);
#508=AXIS2_PLACEMENT_3D('',#771,#621,#622);
#509=AXIS2_PLACEMENT_3D('',#774,#623,#624);
#510=AXIS2_PLACEMENT_3D('',#775,#625,#626);
#511=AXIS2_PLACEMENT_3D('',#776,#627,#628);
#512=AXIS2_PLACEMENT_3D('',#777,#629,#630);
#513=AXIS2_PLACEMENT_3D('',#780,#631,#632);
#514=AXIS2_PLACEMENT_3D('',#783,#635,#636);
#515=AXIS2_PLACEMENT_3D('',#784,#637,#638);
#516=AXIS2_PLACEMENT_3D('',#785,#639,#640);
#517=AXIS2_PLACEMENT_3D('',#786,#641,#642);
#518=AXIS2_PLACEMENT_3D('',#790,#644,#645);
#519=AXIS2_PLACEMENT_3D('',#792,#647,#648);
#520=AXIS2_PLACEMENT_3D('',#796,#651,#652);
#521=AXIS2_PLACEMENT_3D('',#797,#653,#654);
#522=AXIS2_PLACEMENT_3D('',#798,#655,#656);
#523=AXIS2_PLACEMENT_3D('',#800,#657,#658);
#524=AXIS2_PLACEMENT_3D('',#801,#659,#660);
#525=AXIS2_PLACEMENT_3D('',#802,#661,#662);
#526=AXIS2_PLACEMENT_3D('',#803,#663,#664);
#527=AXIS2_PLACEMENT_3D('',#805,#666,#667);
#528=AXIS2_PLACEMENT_3D('',#806,#668,#669);
#529=AXIS2_PLACEMENT_3D('',#807,#670,#671);
#530=AXIS2_PLACEMENT_3D('',#808,#672,#673);
#531=AXIS2_PLACEMENT_3D('',#810,#675,#676);
#532=AXIS2_PLACEMENT_3D('',#811,#677,#678);
#533=DIRECTION('axis',(0.,0.,1.));
#534=DIRECTION('refdir',(1.,0.,0.));
#535=DIRECTION('center_axis',(0.882546627580144,-8.2995312690231E-17,0.470224893159555));
#536=DIRECTION('ref_axis',(-0.332499210635842,0.707106781186546,0.62405470507524));
#537=DIRECTION('center_axis',(-0.882546627580144,8.2995312690231E-17,-0.470224893159555));
#538=DIRECTION('ref_axis',(-0.332499210635842,0.707106781186546,0.62405470507524));
#539=DIRECTION('',(-0.882546627580144,8.2995312690231E-17,-0.470224893159555));
#540=DIRECTION('center_axis',(-0.882546627580144,8.2995312690231E-17,-0.470224893159555));
#541=DIRECTION('ref_axis',(-0.332499210635842,0.707106781186546,0.62405470507524));
#542=DIRECTION('',(0.882546627580144,-8.2995312690231E-17,0.470224893159555));
#543=DIRECTION('center_axis',(8.10469843878444E-17,1.,2.4387415702612E-17));
#544=DIRECTION('ref_axis',(-0.470224893159555,1.6587278090943E-17,0.882546627580144));
#545=DIRECTION('',(-0.470224893159555,1.6587278090943E-17,0.882546627580144));
#546=DIRECTION('',(0.882546627580144,-8.2995312690231E-17,0.470224893159555));
#547=DIRECTION('',(0.470224893159555,-1.6587278090943E-17,-0.882546627580144));
#548=DIRECTION('center_axis',(0.882546627580144,-8.2995312690231E-17,0.470224893159555));
#549=DIRECTION('ref_axis',(8.10469843878444E-17,1.,2.4387415702612E-17));
#550=DIRECTION('',(-8.10469843878444E-17,-1.,-2.4387415702612E-17));
#551=DIRECTION('center_axis',(-0.882546627580144,8.2995312690231E-17,-0.470224893159555));
#552=DIRECTION('ref_axis',(-0.332499210635841,-0.707106781186549,0.624054705075237));
#553=DIRECTION('',(0.470224893159555,-1.6587278090943E-17,-0.882546627580144));
#554=DIRECTION('center_axis',(-0.882546627580144,8.2995312690231E-17,-0.470224893159555));
#555=DIRECTION('ref_axis',(0.332499210635841,-0.707106781186548,-0.624054705075238));
#556=DIRECTION('',(8.10469843878444E-17,1.,2.4387415702612E-17));
#557=DIRECTION('center_axis',(-0.882546627580144,8.2995312690231E-17,-0.470224893159555));
#558=DIRECTION('ref_axis',(0.332499210635841,0.707106781186547,-0.624054705075238));
#559=DIRECTION('',(-8.10469843878444E-17,-1.,-2.4387415702612E-17));
#560=DIRECTION('',(-0.470224893159555,1.6587278090943E-17,0.882546627580144));
#561=DIRECTION('',(8.10469843878444E-17,1.,2.4387415702612E-17));
#562=DIRECTION('',(0.470224893159555,-1.6587278090943E-17,-0.882546627580144));
#563=DIRECTION('center_axis',(0.882546627580144,-8.2995312690231E-17,0.470224893159555));
#564=DIRECTION('ref_axis',(-0.332499210635841,-0.707106781186549,0.624054705075237));
#565=DIRECTION('',(-0.882546627580144,8.2995312690231E-17,-0.470224893159555));
#566=DIRECTION('center_axis',(-0.882546627580144,8.2995312690231E-17,-0.470224893159555));
#567=DIRECTION('ref_axis',(-0.332499210635841,-0.707106781186549,0.624054705075237));
#568=DIRECTION('',(0.882546627580144,-8.2995312690231E-17,0.470224893159555));
#569=DIRECTION('center_axis',(-8.10469843878444E-17,-1.,-2.4387415702612E-17));
#570=DIRECTION('ref_axis',(0.470224893159555,-1.6587278090943E-17,-0.882546627580144));
#571=DIRECTION('',(-0.470224893159555,1.6587278090943E-17,0.882546627580144));
#572=DIRECTION('',(-0.882546627580144,8.2995312690231E-17,-0.470224893159555));
#573=DIRECTION('center_axis',(0.882546627580144,-8.2995312690231E-17,0.470224893159555));
#574=DIRECTION('ref_axis',(0.332499210635841,-0.707106781186548,-0.624054705075238));
#575=DIRECTION('center_axis',(-0.882546627580144,8.2995312690231E-17,-0.470224893159555));
#576=DIRECTION('ref_axis',(0.332499210635841,-0.707106781186548,-0.624054705075238));
#577=DIRECTION('',(0.882546627580144,-8.2995312690231E-17,0.470224893159555));
#578=DIRECTION('center_axis',(0.882546627580144,-8.2995312690231E-17,0.470224893159555));
#579=DIRECTION('ref_axis',(0.332499210635841,0.707106781186547,-0.624054705075238));
#580=DIRECTION('',(-0.882546627580144,8.2995312690231E-17,-0.470224893159555));
#581=DIRECTION('center_axis',(-0.882546627580144,8.2995312690231E-17,-0.470224893159555));
#582=DIRECTION('ref_axis',(0.332499210635841,0.707106781186547,-0.624054705075238));
#583=DIRECTION('center_axis',(-8.10469843878444E-17,-1.,-2.4387415702612E-17));
#584=DIRECTION('ref_axis',(0.470224893159555,-1.6587278090943E-17,-0.882546627580144));
#585=DIRECTION('',(-0.470224893159555,1.6587278090943E-17,0.882546627580144));
#586=DIRECTION('',(0.882546627580144,-8.2995312690231E-17,0.470224893159555));
#587=DIRECTION('',(0.882546627580144,-8.2995312690231E-17,0.470224893159555));
#588=DIRECTION('center_axis',(0.470224893159555,-1.6587278090943E-17,-0.882546627580144));
#589=DIRECTION('ref_axis',(8.10469843878444E-17,1.,2.4387415702612E-17));
#590=DIRECTION('',(-8.10469843878444E-17,-1.,-2.4387415702612E-17));
#591=DIRECTION('',(0.882546627580144,-8.2995312690231E-17,0.470224893159555));
#592=DIRECTION('center_axis',(8.10469843878444E-17,1.,2.4387415702612E-17));
#593=DIRECTION('ref_axis',(-0.470224893159555,1.6587278090943E-17,0.882546627580144));
#594=DIRECTION('',(0.470224893159555,-1.6587278090943E-17,-0.882546627580144));
#595=DIRECTION('',(0.882546627580144,-8.2995312690231E-17,0.470224893159555));
#596=DIRECTION('center_axis',(-0.470224893159555,1.6587278090943E-17,0.882546627580144));
#597=DIRECTION('ref_axis',(-8.10469843878444E-17,-1.,-2.4387415702612E-17));
#598=DIRECTION('',(8.10469843878444E-17,1.,2.4387415702612E-17));
#599=DIRECTION('center_axis',(-0.470224893159555,1.6587278090943E-17,0.882546627580144));
#600=DIRECTION('ref_axis',(-8.10469843878444E-17,-1.,-2.4387415702612E-17));
#601=DIRECTION('',(8.10469843878444E-17,1.,2.4387415702612E-17));
#602=DIRECTION('center_axis',(0.470224893159555,-1.6587278090943E-17,-0.882546627580144));
#603=DIRECTION('ref_axis',(8.10469843878444E-17,1.,2.4387415702612E-17));
#604=DIRECTION('',(-8.10469843878444E-17,-1.,-2.4387415702612E-17));
#605=DIRECTION('center_axis',(0.882546627580144,-8.2995312690231E-17,0.470224893159555));
#606=DIRECTION('ref_axis',(8.10469843878444E-17,1.,2.4387415702612E-17));
#607=DIRECTION('center_axis',(-0.882546627580144,8.2995312690231E-17,-0.470224893159555));
#608=DIRECTION('ref_axis',(-0.470224893159555,7.78196180483106E-17,0.882546627580144));
#609=DIRECTION('',(-0.470224893159555,1.6587278090943E-17,0.882546627580144));
#610=DIRECTION('center_axis',(-0.882546627580144,8.2995312690231E-17,-0.470224893159555));
#611=DIRECTION('ref_axis',(0.470224893159555,-7.78196180483106E-17,-0.882546627580144));
#612=DIRECTION('',(0.470224893159555,-1.6587278090943E-17,-0.882546627580144));
#613=DIRECTION('center_axis',(0.470224893159555,-1.6587278090943E-17,-0.882546627580144));
#614=DIRECTION('ref_axis',(-0.624054705075238,0.707106781186548,-0.332499210635841));
#615=DIRECTION('center_axis',(0.470224893159555,-1.6587278090943E-17,-0.882546627580144));
#616=DIRECTION('ref_axis',(-0.882546627580144,8.2995312690231E-17,-0.470224893159555));
#617=DIRECTION('',(0.470224893159555,-1.6587278090943E-17,-0.882546627580144));
#618=DIRECTION('center_axis',(-0.470224893159555,8.52415428042609E-17,0.882546627580144));
#619=DIRECTION('ref_axis',(1.13329928677612E-16,1.,-3.62031740891212E-17));
#620=DIRECTION('',(-0.470224893159555,1.6587278090943E-17,0.882546627580144));
#621=DIRECTION('center_axis',(0.882546627580144,-8.2995312690231E-17,0.470224893159555));
#622=DIRECTION('ref_axis',(0.,1.,0.));
#623=DIRECTION('center_axis',(0.470224893159555,-1.6587278090943E-17,-0.882546627580144));
#624=DIRECTION('ref_axis',(-8.10469843878444E-17,-1.,-2.4387415702612E-17));
#625=DIRECTION('center_axis',(0.882546627580144,-8.2995312690231E-17,0.470224893159555));
#626=DIRECTION('ref_axis',(0.470224893159555,-7.78196180483106E-17,-0.882546627580144));
#627=DIRECTION('center_axis',(-0.882546627580144,8.2995312690231E-17,-0.470224893159555));
#628=DIRECTION('ref_axis',(0.470224893159555,-7.78196180483106E-17,-0.882546627580144));
#629=DIRECTION('center_axis',(0.470224893159555,-1.6587278090943E-17,-0.882546627580144));
#630=DIRECTION('ref_axis',(-0.624054705075238,-0.707106781186547,-0.332499210635841));
#631=DIRECTION('center_axis',(0.470224893159555,-1.6587278090943E-17,-0.882546627580144));
#632=DIRECTION('ref_axis',(-8.10469843878444E-17,-1.,-2.4387415702612E-17));
#633=DIRECTION('',(0.470224893159555,-1.6587278090943E-17,-0.882546627580144));
#634=DIRECTION('',(-0.470224893159555,1.6587278090943E-17,0.882546627580144));
#635=DIRECTION('center_axis',(0.882546627580144,-8.2995312690231E-17,0.470224893159555));
#636=DIRECTION('ref_axis',(0.,1.,0.));
#637=DIRECTION('center_axis',(-0.882546627580144,8.2995312690231E-17,-0.470224893159555));
#638=DIRECTION('ref_axis',(-0.470224893159555,7.78196180483106E-17,0.882546627580144));
#639=DIRECTION('center_axis',(0.882546627580144,-8.2995312690231E-17,0.470224893159555));
#640=DIRECTION('ref_axis',(-0.470224893159555,7.78196180483106E-17,0.882546627580144));
#641=DIRECTION('center_axis',(0.882546627580144,-8.2995312690231E-17,0.470224893159555));
#642=DIRECTION('ref_axis',(-8.10469843878444E-17,-1.,-2.4387415702612E-17));
#643=DIRECTION('',(0.882546627580144,-8.2995312690231E-17,0.470224893159555));
#644=DIRECTION('center_axis',(0.882546627580144,-8.2995312690231E-17,0.470224893159555));
#645=DIRECTION('ref_axis',(0.470224893159555,-7.78196180483106E-17,-0.882546627580144));
#646=DIRECTION('',(0.882546627580144,-8.2995312690231E-17,0.470224893159555));
#647=DIRECTION('center_axis',(8.10469843878444E-17,1.,2.4387415702612E-17));
#648=DIRECTION('ref_axis',(-0.470224893159555,1.6587278090943E-17,0.882546627580144));
#649=DIRECTION('',(0.882546627580144,-8.2995312690231E-17,0.470224893159555));
#650=DIRECTION('',(-0.470224893159555,1.6587278090943E-17,0.882546627580144));
#651=DIRECTION('center_axis',(0.882546627580144,-8.2995312690231E-17,0.470224893159555));
#652=DIRECTION('ref_axis',(8.10469843878444E-17,1.,2.4387415702612E-17));
#653=DIRECTION('center_axis',(0.882546627580144,-8.2995312690231E-17,0.470224893159555));
#654=DIRECTION('ref_axis',(0.,1.,0.));
#655=DIRECTION('center_axis',(-0.470224893159555,1.6587278090943E-17,0.882546627580144));
#656=DIRECTION('ref_axis',(0.882546627580144,-8.2995312690231E-17,0.470224893159555));
#657=DIRECTION('center_axis',(0.882546627580144,-8.2995312690231E-17,0.470224893159555));
#658=DIRECTION('ref_axis',(-0.470224893159555,7.78196180483106E-17,0.882546627580144));
#659=DIRECTION('center_axis',(-0.470224893159555,9.04765697791068E-16,0.882546627580144));
#660=DIRECTION('ref_axis',(-4.98690586897958E-16,-1.,7.59471453293195E-16));
#661=DIRECTION('center_axis',(0.470224893159555,-1.6587278090943E-17,-0.882546627580144));
#662=DIRECTION('ref_axis',(0.624054705075238,-0.707106781186548,0.332499210635841));
#663=DIRECTION('center_axis',(-0.470224893159555,1.6587278090943E-17,0.882546627580144));
#664=DIRECTION('ref_axis',(-8.10469843878444E-17,-1.,-2.4387415702612E-17));
#665=DIRECTION('',(0.470224893159555,-1.6587278090943E-17,-0.882546627580144));
#666=DIRECTION('center_axis',(0.882546627580144,-8.2995312690231E-17,0.470224893159555));
#667=DIRECTION('ref_axis',(0.,1.,0.));
#668=DIRECTION('center_axis',(0.470224893159555,-1.39051958005678E-16,-0.882546627580144));
#669=DIRECTION('ref_axis',(1.3863292541657E-16,1.,-8.36933745538193E-17));
#670=DIRECTION('center_axis',(-0.470224893159555,1.6587278090943E-17,0.882546627580144));
#671=DIRECTION('ref_axis',(0.624054705075238,0.707106781186547,0.332499210635841));
#672=DIRECTION('center_axis',(-8.10469843878444E-17,-1.,-2.4387415702612E-17));
#673=DIRECTION('ref_axis',(0.470224893159555,-1.6587278090943E-17,-0.882546627580144));
#674=DIRECTION('',(0.882546627580144,-8.2995312690231E-17,0.470224893159555));
#675=DIRECTION('center_axis',(0.882546627580144,-8.2995312690231E-17,0.470224893159555));
#676=DIRECTION('ref_axis',(8.10469843878444E-17,1.,2.4387415702612E-17));
#677=DIRECTION('center_axis',(0.882546627580144,-8.2995312690231E-17,0.470224893159555));
#678=DIRECTION('ref_axis',(8.10469843878444E-17,1.,2.4387415702612E-17));
#679=CARTESIAN_POINT('',(0.,0.,0.));
#680=CARTESIAN_POINT('Origin',(-164.244776191682,-47.,-292.017983244067));
#681=CARTESIAN_POINT('',(-138.708827150597,-47.,-276.14614319412));
#682=CARTESIAN_POINT('',(-137.768377364278,-45.,-277.91123644928));
#683=CARTESIAN_POINT('Origin',(-137.768377364278,-47.,-277.91123644928));
#684=CARTESIAN_POINT('',(-164.244776191682,-45.,-292.017983244067));
#685=CARTESIAN_POINT('',(-164.244776191682,-45.,-292.017983244067));
#686=CARTESIAN_POINT('',(-165.185225978001,-47.,-290.252889988907));
#687=CARTESIAN_POINT('Origin',(-164.244776191682,-47.,-292.017983244067));
#688=CARTESIAN_POINT('',(-165.185225978001,-47.,-290.252889988907));
#689=CARTESIAN_POINT('Origin',(-151.078479183214,-45.,-316.729288816311));
#690=CARTESIAN_POINT('',(-125.542530142129,-45.,-300.857448766364));
#691=CARTESIAN_POINT('',(-138.708827150597,-45.,-276.14614319412));
#692=CARTESIAN_POINT('',(-152.018928969534,-45.,-314.964195561151));
#693=CARTESIAN_POINT('',(-152.018928969534,-45.,-314.964195561151));
#694=CARTESIAN_POINT('',(-151.190746629045,-45.,-316.518578458042));
#695=CARTESIAN_POINT('Origin',(-131.655453753203,-59.9999999999999,-289.384342607822));
#696=CARTESIAN_POINT('',(-138.708827150597,-72.9999999999999,-276.14614319412));
#697=CARTESIAN_POINT('',(-138.708827150597,-74.9999999999999,-276.14614319412));
#698=CARTESIAN_POINT('',(-137.768377364278,-74.9999999999999,-277.91123644928));
#699=CARTESIAN_POINT('Origin',(-137.768377364278,-72.9999999999999,-277.91123644928));
#700=CARTESIAN_POINT('',(-125.542530142129,-74.9999999999999,-300.857448766364));
#701=CARTESIAN_POINT('',(-124.60208035581,-74.9999999999999,-302.622542021524));
#702=CARTESIAN_POINT('',(-124.60208035581,-72.9999999999999,-302.622542021524));
#703=CARTESIAN_POINT('Origin',(-125.542530142129,-72.9999999999999,-300.857448766364));
#704=CARTESIAN_POINT('',(-124.60208035581,-47.,-302.622542021524));
#705=CARTESIAN_POINT('',(-124.60208035581,-45.,-302.622542021524));
#706=CARTESIAN_POINT('Origin',(-125.542530142129,-47.,-300.857448766364));
#707=CARTESIAN_POINT('',(-126.953204821608,-50.,-298.209808883623));
#708=CARTESIAN_POINT('',(-126.953204821608,-69.9999999999999,-298.209808883623));
#709=CARTESIAN_POINT('',(-126.953204821608,-50.,-298.209808883623));
#710=CARTESIAN_POINT('',(-136.357702684799,-69.9999999999999,-280.558876332021));
#711=CARTESIAN_POINT('',(-126.953204821608,-69.9999999999999,-298.209808883623));
#712=CARTESIAN_POINT('',(-136.357702684799,-50.,-280.558876332021));
#713=CARTESIAN_POINT('',(-136.357702684799,-69.9999999999999,-280.558876332021));
#714=CARTESIAN_POINT('',(-136.357702684799,-50.,-280.558876332021));
#715=CARTESIAN_POINT('Origin',(-164.244776191682,-72.9999999999999,-292.017983244067));
#716=CARTESIAN_POINT('',(-165.185225978001,-72.9999999999999,-290.252889988907));
#717=CARTESIAN_POINT('',(-165.185225978001,-72.9999999999999,-290.252889988907));
#718=CARTESIAN_POINT('',(-164.244776191682,-74.9999999999999,-292.017983244067));
#719=CARTESIAN_POINT('Origin',(-164.244776191682,-72.9999999999999,-292.017983244067));
#720=CARTESIAN_POINT('',(-164.244776191682,-74.9999999999999,-292.017983244067));
#721=CARTESIAN_POINT('Origin',(-165.185225978001,-74.9999999999999,-290.252889988907));
#722=CARTESIAN_POINT('',(-152.018928969534,-74.9999999999999,-314.964195561151));
#723=CARTESIAN_POINT('',(-158.244120026438,-74.9999999999999,-303.280379044339));
#724=CARTESIAN_POINT('',(-152.018928969534,-74.9999999999999,-314.964195561151));
#725=CARTESIAN_POINT('Origin',(-152.018928969534,-72.9999999999999,-314.964195561151));
#726=CARTESIAN_POINT('',(-151.078479183214,-72.9999999999999,-316.729288816311));
#727=CARTESIAN_POINT('Origin',(-152.018928969534,-72.9999999999999,-314.964195561151));
#728=CARTESIAN_POINT('',(-151.078479183214,-72.9999999999999,-316.729288816311));
#729=CARTESIAN_POINT('Origin',(-152.018928969534,-47.,-314.964195561151));
#730=CARTESIAN_POINT('',(-151.078479183214,-47.,-316.729288816311));
#731=CARTESIAN_POINT('',(-151.078479183214,-47.,-316.729288816311));
#732=CARTESIAN_POINT('Origin',(-152.018928969534,-47.,-314.964195561151));
#733=CARTESIAN_POINT('Origin',(-162.834101512203,-49.9999999999999,-294.665623126807));
#734=CARTESIAN_POINT('',(-153.429603649012,-49.9999999999999,-312.31655567841));
#735=CARTESIAN_POINT('',(-162.834101512203,-49.9999999999999,-294.665623126807));
#736=CARTESIAN_POINT('',(-157.068557793539,-49.9999999999999,-305.48674561329));
#737=CARTESIAN_POINT('',(-153.429603649012,-49.9999999999999,-312.31655567841));
#738=CARTESIAN_POINT('',(-162.834101512203,-49.9999999999999,-294.665623126807));
#739=CARTESIAN_POINT('Origin',(-162.834101512203,-69.9999999999999,-294.665623126807));
#740=CARTESIAN_POINT('',(-162.834101512203,-69.9999999999999,-294.665623126807));
#741=CARTESIAN_POINT('',(-162.834101512203,-64.9999999999999,-294.665623126807));
#742=CARTESIAN_POINT('',(-162.834101512203,-69.9999999999999,-294.665623126807));
#743=CARTESIAN_POINT('Origin',(-153.429603649012,-69.9999999999999,-312.31655567841));
#744=CARTESIAN_POINT('',(-153.429603649012,-69.9999999999999,-312.31655567841));
#745=CARTESIAN_POINT('',(-152.366308861944,-69.9999999999999,-314.312211889091));
#746=CARTESIAN_POINT('',(-153.429603649012,-69.9999999999999,-312.31655567841));
#747=CARTESIAN_POINT('Origin',(-153.429603649012,-49.9999999999999,-312.31655567841));
#748=CARTESIAN_POINT('',(-153.429603649012,-54.9999999999999,-312.31655567841));
#749=CARTESIAN_POINT('Origin',(-165.185225978001,-45.,-290.252889988907));
#750=CARTESIAN_POINT('',(-165.185225978001,-52.4999999999999,-290.252889988907));
#751=CARTESIAN_POINT('Origin',(-151.078479183214,-74.9999999999999,-316.729288816311));
#752=CARTESIAN_POINT('',(-151.078479183214,-67.4999999999999,-316.729288816311));
#753=CARTESIAN_POINT('Origin',(-151.303014074875,-59.9999999999999,-316.307868099772));
#754=CARTESIAN_POINT('',(-157.18082523937,-84.9999999999999,-305.276035255021));
#755=CARTESIAN_POINT('',(-157.18082523937,-34.9999999999999,-305.276035255021));
#756=CARTESIAN_POINT('Origin',(-157.18082523937,-59.9999999999999,-305.276035255021));
#757=CARTESIAN_POINT('',(-145.425202910381,-84.9999999999999,-327.339700944524));
#758=CARTESIAN_POINT('',(-154.241919657123,-84.9999999999999,-310.791951677396));
#759=CARTESIAN_POINT('',(-145.425202910381,-34.9999999999999,-327.339700944524));
#760=CARTESIAN_POINT('Origin',(-145.425202910381,-59.9999999999999,-327.339700944524));
#761=CARTESIAN_POINT('',(-148.364108492628,-34.9999999999999,-321.823784522148));
#762=CARTESIAN_POINT('Origin',(-157.18957476843,-34.9999999999999,-326.526033453744));
#763=CARTESIAN_POINT('',(-170.419024653072,-34.9999999999999,-312.329408652414));
#764=CARTESIAN_POINT('',(-166.006291515171,-30.,-309.978284186616));
#765=CARTESIAN_POINT('Origin',(-166.006291515171,-34.9999999999999,-309.978284186616));
#766=CARTESIAN_POINT('',(-154.250669186183,-30.,-332.04194987612));
#767=CARTESIAN_POINT('',(-157.18957476843,-30.,-326.526033453744));
#768=CARTESIAN_POINT('',(-158.663402324083,-34.9999999999999,-334.393074341917));
#769=CARTESIAN_POINT('Origin',(-154.250669186183,-34.9999999999999,-332.04194987612));
#770=CARTESIAN_POINT('',(-161.60230790633,-34.9999999999999,-328.877157919542));
#771=CARTESIAN_POINT('Origin',(-154.250669186183,-59.9999999999999,-332.04194987612));
#772=CARTESIAN_POINT('',(-154.250669186183,-89.9999999999999,-332.04194987612));
#773=CARTESIAN_POINT('',(-158.663402324083,-84.9999999999999,-334.393074341917));
#774=CARTESIAN_POINT('Origin',(-154.250669186183,-84.9999999999999,-332.04194987612));
#775=CARTESIAN_POINT('Origin',(-158.663402324083,-59.9999999999999,-334.393074341917));
#776=CARTESIAN_POINT('Origin',(-154.250669186183,-59.9999999999999,-332.04194987612));
#777=CARTESIAN_POINT('Origin',(-163.067385932924,-84.9999999999999,-315.494200608992));
#778=CARTESIAN_POINT('',(-166.006291515171,-89.9999999999999,-309.978284186616));
#779=CARTESIAN_POINT('',(-170.419024653072,-84.9999999999999,-312.329408652414));
#780=CARTESIAN_POINT('Origin',(-166.006291515171,-84.9999999999999,-309.978284186616));
#781=CARTESIAN_POINT('',(-167.480119070825,-84.9999999999999,-317.84532507479));
#782=CARTESIAN_POINT('',(-163.067385932924,-89.9999999999999,-315.494200608992));
#783=CARTESIAN_POINT('Origin',(-166.006291515171,-59.9999999999999,-309.978284186616));
#784=CARTESIAN_POINT('Origin',(-166.006291515171,-59.9999999999999,-309.978284186616));
#785=CARTESIAN_POINT('Origin',(-170.419024653072,-59.9999999999999,-312.329408652414));
#786=CARTESIAN_POINT('Origin',(-158.663402324083,-59.9999999999999,-334.393074341917));
#787=CARTESIAN_POINT('',(-149.837936048282,-30.,-329.690825410322));
#788=CARTESIAN_POINT('',(-158.663402324083,-30.,-334.393074341917));
#789=CARTESIAN_POINT('',(-149.837936048282,-89.9999999999999,-329.690825410322));
#790=CARTESIAN_POINT('Origin',(-149.837936048282,-59.9999999999999,-329.690825410322));
#791=CARTESIAN_POINT('',(-158.663402324083,-89.9999999999999,-334.393074341917));
#792=CARTESIAN_POINT('Origin',(-158.663402324083,-30.,-334.393074341917));
#793=CARTESIAN_POINT('',(-161.593558377271,-30.,-307.627159720818));
#794=CARTESIAN_POINT('',(-170.419024653072,-30.,-312.329408652414));
#795=CARTESIAN_POINT('',(-152.776841630529,-30.,-324.174908987946));
#796=CARTESIAN_POINT('Origin',(-164.541213488578,-59.9999999999999,-323.361241497166));
#797=CARTESIAN_POINT('Origin',(-161.593558377271,-59.9999999999999,-307.627159720818));
#798=CARTESIAN_POINT('Origin',(-161.593558377271,-34.9999999999999,-307.627159720818));
#799=CARTESIAN_POINT('',(-161.593558377271,-89.9999999999999,-307.627159720818));
#800=CARTESIAN_POINT('Origin',(-161.593558377271,-59.9999999999999,-307.627159720818));
#801=CARTESIAN_POINT('Origin',(-161.593558377271,-84.9999999999999,-307.627159720818));
#802=CARTESIAN_POINT('Origin',(-158.654652795023,-84.9999999999999,-313.143076143194));
#803=CARTESIAN_POINT('Origin',(-149.837936048282,-84.9999999999999,-329.690825410322));
#804=CARTESIAN_POINT('',(-158.654652795023,-89.9999999999999,-313.143076143194));
#805=CARTESIAN_POINT('Origin',(-149.837936048282,-59.9999999999999,-329.690825410322));
#806=CARTESIAN_POINT('Origin',(-149.837936048282,-34.9999999999999,-329.690825410322));
#807=CARTESIAN_POINT('Origin',(-152.776841630529,-34.9999999999999,-324.174908987946));
#808=CARTESIAN_POINT('Origin',(-170.419024653072,-89.9999999999999,-312.329408652414));
#809=CARTESIAN_POINT('',(-170.419024653072,-89.9999999999999,-312.329408652414));
#810=CARTESIAN_POINT('Origin',(-170.419024653072,-59.9999999999999,-312.329408652414));
#811=CARTESIAN_POINT('Origin',(-151.303014074875,-59.9999999999999,-316.307868099772));
#812=UNCERTAINTY_MEASURE_WITH_UNIT(LENGTH_MEASURE(0.01),#816,
'DISTANCE_ACCURACY_VALUE',
'Maximum model space distance between geometric entities at asserted c
onnectivities');
#813=UNCERTAINTY_MEASURE_WITH_UNIT(LENGTH_MEASURE(0.01),#816,
'DISTANCE_ACCURACY_VALUE',
'Maximum model space distance between geometric entities at asserted c
onnectivities');
#814=(
GEOMETRIC_REPRESENTATION_CONTEXT(3)
GLOBAL_UNCERTAINTY_ASSIGNED_CONTEXT((#812))
GLOBAL_UNIT_ASSIGNED_CONTEXT((#816,#818,#819))
REPRESENTATION_CONTEXT('','3D')
);
#815=(
GEOMETRIC_REPRESENTATION_CONTEXT(3)
GLOBAL_UNCERTAINTY_ASSIGNED_CONTEXT((#813))
GLOBAL_UNIT_ASSIGNED_CONTEXT((#816,#818,#819))
REPRESENTATION_CONTEXT('','3D')
);
#816=(
LENGTH_UNIT()
NAMED_UNIT(*)
SI_UNIT(.MILLI.,.METRE.)
);
#817=(
LENGTH_UNIT()
NAMED_UNIT(*)
SI_UNIT($,.METRE.)
);
#818=(
NAMED_UNIT(*)
PLANE_ANGLE_UNIT()
SI_UNIT($,.RADIAN.)
);
#819=(
NAMED_UNIT(*)
SI_UNIT($,.STERADIAN.)
SOLID_ANGLE_UNIT()
);
#820=SHAPE_DEFINITION_REPRESENTATION(#821,#822);
#821=PRODUCT_DEFINITION_SHAPE('',$,#824);
#822=SHAPE_REPRESENTATION('',(#480),#814);
#823=PRODUCT_DEFINITION_CONTEXT('part definition',#828,'design');
#824=PRODUCT_DEFINITION('FusionComponent','FusionComponent',#825,#823);
#825=PRODUCT_DEFINITION_FORMATION('',$,#830);
#826=PRODUCT_RELATED_PRODUCT_CATEGORY('FusionComponent',
'FusionComponent',(#830));
#827=APPLICATION_PROTOCOL_DEFINITION('international standard',
'automotive_design',2009,#828);
#828=APPLICATION_CONTEXT(
'Core Data for Automotive Mechanical Design Process');
#829=PRODUCT_CONTEXT('part definition',#828,'mechanical');
#830=PRODUCT('FusionComponent','FusionComponent',$,(#829));
#831=PRESENTATION_STYLE_ASSIGNMENT((#833));
#832=PRESENTATION_STYLE_ASSIGNMENT((#834));
#833=SURFACE_STYLE_USAGE(.BOTH.,#835);
#834=SURFACE_STYLE_USAGE(.BOTH.,#836);
#835=SURFACE_SIDE_STYLE('',(#837));
#836=SURFACE_SIDE_STYLE('',(#838));
#837=SURFACE_STYLE_FILL_AREA(#839);
#838=SURFACE_STYLE_FILL_AREA(#840);
#839=FILL_AREA_STYLE('Steel - Satin',(#841));
#840=FILL_AREA_STYLE('Opaque(160,160,160)',(#842));
#841=FILL_AREA_STYLE_COLOUR('Steel - Satin',#843);
#842=FILL_AREA_STYLE_COLOUR('Opaque(160,160,160)',#844);
#843=COLOUR_RGB('Steel - Satin',0.627450980392157,0.627450980392157,0.627450980392157);
#844=COLOUR_RGB('Opaque(160,160,160)',0.627450980392157,0.627450980392157,
0.627450980392157);
ENDSEC;
END-ISO-10303-21;
