ISO-10303-21;
HEADER;
/* Generated by software containing ST-Developer
 * from STEP Tools, Inc. (www.steptools.com) 
 */

FILE_DESCRIPTION(
/* description */ (''),
/* implementation_level */ '2;1');

FILE_NAME(
/* name */ 'Component9.step',
/* time_stamp */ '2025-12-18T20:54:57+02:00',
/* author */ (''),
/* organization */ (''),
/* preprocessor_version */ 'ST-DEVELOPER v20.1',
/* originating_system */ 'Autodesk Translation Framework v14.21.0.0',
/* authorisation */ '');

FILE_SCHEMA (('AUTOMOTIVE_DESIGN { 1 0 10303 214 3 1 1 }'));
ENDSEC;

DATA;
#10=MECHANICAL_DESIGN_GEOMETRIC_PRESENTATION_REPRESENTATION('',(#13),#1113);
#11=SHAPE_REPRESENTATION_RELATIONSHIP('SRR','None',#1120,#12);
#12=ADVANCED_BREP_SHAPE_REPRESENTATION('',(#14),#1112);
#13=STYLED_ITEM('',(#1130),#14);
#14=MANIFOLD_SOLID_BREP('Body1',#643);
#15=FACE_BOUND('',#107,.T.);
#16=FACE_BOUND('',#111,.T.);
#17=FACE_BOUND('',#115,.T.);
#18=FACE_BOUND('',#119,.T.);
#19=FACE_BOUND('',#123,.T.);
#20=FACE_BOUND('',#125,.T.);
#21=FACE_BOUND('',#126,.T.);
#22=FACE_BOUND('',#127,.T.);
#23=FACE_BOUND('',#131,.T.);
#24=FACE_BOUND('',#135,.T.);
#25=FACE_BOUND('',#139,.T.);
#26=FACE_BOUND('',#142,.T.);
#27=FACE_BOUND('',#146,.T.);
#28=FACE_BOUND('',#149,.T.);
#29=PLANE('',#663);
#30=PLANE('',#670);
#31=PLANE('',#677);
#32=PLANE('',#682);
#33=PLANE('',#689);
#34=PLANE('',#690);
#35=PLANE('',#699);
#36=PLANE('',#700);
#37=PLANE('',#703);
#38=PLANE('',#711);
#39=PLANE('',#715);
#40=PLANE('',#721);
#41=PLANE('',#723);
#42=PLANE('',#724);
#43=PLANE('',#725);
#44=PLANE('',#726);
#45=PLANE('',#728);
#46=PLANE('',#730);
#47=ELLIPSE('',#661,4.24264068711929,3.);
#48=ELLIPSE('',#662,4.24264068711929,3.);
#49=ELLIPSE('',#668,4.24264068711929,3.);
#50=ELLIPSE('',#669,4.24264068711929,3.);
#51=ELLIPSE('',#675,4.24264068711929,3.);
#52=ELLIPSE('',#676,4.24264068711929,3.);
#53=CYLINDRICAL_SURFACE('',#660,3.);
#54=CYLINDRICAL_SURFACE('',#667,3.);
#55=CYLINDRICAL_SURFACE('',#674,3.);
#56=CYLINDRICAL_SURFACE('',#681,3.);
#57=CYLINDRICAL_SURFACE('',#683,2.0625);
#58=CYLINDRICAL_SURFACE('',#686,3.125);
#59=CYLINDRICAL_SURFACE('',#694,2.0625);
#60=CYLINDRICAL_SURFACE('',#697,3.125);
#61=CYLINDRICAL_SURFACE('',#701,7.00000000000001);
#62=CYLINDRICAL_SURFACE('',#708,3.);
#63=CYLINDRICAL_SURFACE('',#720,3.);
#64=CYLINDRICAL_SURFACE('',#727,15.);
#65=CYLINDRICAL_SURFACE('',#729,15.);
#66=FACE_OUTER_BOUND('',#104,.T.);
#67=FACE_OUTER_BOUND('',#105,.T.);
#68=FACE_OUTER_BOUND('',#106,.T.);
#69=FACE_OUTER_BOUND('',#108,.T.);
#70=FACE_OUTER_BOUND('',#109,.T.);
#71=FACE_OUTER_BOUND('',#110,.T.);
#72=FACE_OUTER_BOUND('',#112,.T.);
#73=FACE_OUTER_BOUND('',#113,.T.);
#74=FACE_OUTER_BOUND('',#114,.T.);
#75=FACE_OUTER_BOUND('',#116,.T.);
#76=FACE_OUTER_BOUND('',#117,.T.);
#77=FACE_OUTER_BOUND('',#118,.T.);
#78=FACE_OUTER_BOUND('',#120,.T.);
#79=FACE_OUTER_BOUND('',#121,.T.);
#80=FACE_OUTER_BOUND('',#122,.T.);
#81=FACE_OUTER_BOUND('',#124,.T.);
#82=FACE_OUTER_BOUND('',#128,.T.);
#83=FACE_OUTER_BOUND('',#129,.T.);
#84=FACE_OUTER_BOUND('',#130,.T.);
#85=FACE_OUTER_BOUND('',#132,.T.);
#86=FACE_OUTER_BOUND('',#133,.T.);
#87=FACE_OUTER_BOUND('',#134,.T.);
#88=FACE_OUTER_BOUND('',#136,.T.);
#89=FACE_OUTER_BOUND('',#137,.T.);
#90=FACE_OUTER_BOUND('',#138,.T.);
#91=FACE_OUTER_BOUND('',#140,.T.);
#92=FACE_OUTER_BOUND('',#141,.T.);
#93=FACE_OUTER_BOUND('',#143,.T.);
#94=FACE_OUTER_BOUND('',#144,.T.);
#95=FACE_OUTER_BOUND('',#145,.T.);
#96=FACE_OUTER_BOUND('',#147,.T.);
#97=FACE_OUTER_BOUND('',#148,.T.);
#98=FACE_OUTER_BOUND('',#150,.T.);
#99=FACE_OUTER_BOUND('',#151,.T.);
#100=FACE_OUTER_BOUND('',#152,.T.);
#101=FACE_OUTER_BOUND('',#153,.T.);
#102=FACE_OUTER_BOUND('',#154,.T.);
#103=FACE_OUTER_BOUND('',#155,.T.);
#104=EDGE_LOOP('',(#426,#427,#428,#429));
#105=EDGE_LOOP('',(#430,#431,#432,#433,#434));
#106=EDGE_LOOP('',(#435,#436,#437,#438));
#107=EDGE_LOOP('',(#439));
#108=EDGE_LOOP('',(#440,#441,#442,#443));
#109=EDGE_LOOP('',(#444,#445,#446,#447,#448,#449));
#110=EDGE_LOOP('',(#450,#451,#452,#453));
#111=EDGE_LOOP('',(#454));
#112=EDGE_LOOP('',(#455,#456,#457,#458));
#113=EDGE_LOOP('',(#459,#460,#461,#462,#463,#464,#465));
#114=EDGE_LOOP('',(#466,#467,#468,#469));
#115=EDGE_LOOP('',(#470));
#116=EDGE_LOOP('',(#471,#472,#473,#474));
#117=EDGE_LOOP('',(#475,#476,#477,#478,#479,#480));
#118=EDGE_LOOP('',(#481,#482,#483,#484));
#119=EDGE_LOOP('',(#485));
#120=EDGE_LOOP('',(#486,#487,#488,#489));
#121=EDGE_LOOP('',(#490,#491,#492,#493));
#122=EDGE_LOOP('',(#494));
#123=EDGE_LOOP('',(#495));
#124=EDGE_LOOP('',(#496,#497,#498,#499));
#125=EDGE_LOOP('',(#500));
#126=EDGE_LOOP('',(#501));
#127=EDGE_LOOP('',(#502));
#128=EDGE_LOOP('',(#503,#504,#505,#506));
#129=EDGE_LOOP('',(#507,#508,#509,#510));
#130=EDGE_LOOP('',(#511));
#131=EDGE_LOOP('',(#512));
#132=EDGE_LOOP('',(#513));
#133=EDGE_LOOP('',(#514,#515,#516,#517));
#134=EDGE_LOOP('',(#518));
#135=EDGE_LOOP('',(#519));
#136=EDGE_LOOP('',(#520,#521,#522,#523));
#137=EDGE_LOOP('',(#524,#525,#526,#527,#528));
#138=EDGE_LOOP('',(#529,#530,#531,#532));
#139=EDGE_LOOP('',(#533));
#140=EDGE_LOOP('',(#534,#535,#536,#537,#538));
#141=EDGE_LOOP('',(#539,#540,#541,#542));
#142=EDGE_LOOP('',(#543));
#143=EDGE_LOOP('',(#544,#545,#546,#547));
#144=EDGE_LOOP('',(#548,#549,#550,#551));
#145=EDGE_LOOP('',(#552,#553,#554,#555));
#146=EDGE_LOOP('',(#556));
#147=EDGE_LOOP('',(#557));
#148=EDGE_LOOP('',(#558,#559,#560,#561));
#149=EDGE_LOOP('',(#562,#563,#564,#565));
#150=EDGE_LOOP('',(#566,#567,#568,#569,#570,#571,#572,#573));
#151=EDGE_LOOP('',(#574,#575,#576,#577));
#152=EDGE_LOOP('',(#578,#579,#580,#581));
#153=EDGE_LOOP('',(#582,#583,#584,#585,#586,#587,#588,#589));
#154=EDGE_LOOP('',(#590,#591,#592,#593));
#155=EDGE_LOOP('',(#594,#595,#596,#597));
#156=LINE('',#936,#206);
#157=LINE('',#942,#207);
#158=LINE('',#947,#208);
#159=LINE('',#949,#209);
#160=LINE('',#951,#210);
#161=LINE('',#952,#211);
#162=LINE('',#957,#212);
#163=LINE('',#962,#213);
#164=LINE('',#966,#214);
#165=LINE('',#968,#215);
#166=LINE('',#969,#216);
#167=LINE('',#974,#217);
#168=LINE('',#977,#218);
#169=LINE('',#983,#219);
#170=LINE('',#985,#220);
#171=LINE('',#986,#221);
#172=LINE('',#991,#222);
#173=LINE('',#994,#223);
#174=LINE('',#996,#224);
#175=LINE('',#997,#225);
#176=LINE('',#1002,#226);
#177=LINE('',#1008,#227);
#178=LINE('',#1014,#228);
#179=LINE('',#1016,#229);
#180=LINE('',#1019,#230);
#181=LINE('',#1028,#231);
#182=LINE('',#1033,#232);
#183=LINE('',#1038,#233);
#184=LINE('',#1047,#234);
#185=LINE('',#1054,#235);
#186=LINE('',#1058,#236);
#187=LINE('',#1060,#237);
#188=LINE('',#1062,#238);
#189=LINE('',#1067,#239);
#190=LINE('',#1071,#240);
#191=LINE('',#1073,#241);
#192=LINE('',#1076,#242);
#193=LINE('',#1081,#243);
#194=LINE('',#1084,#244);
#195=LINE('',#1088,#245);
#196=LINE('',#1092,#246);
#197=LINE('',#1093,#247);
#198=LINE('',#1096,#248);
#199=LINE('',#1097,#249);
#200=LINE('',#1099,#250);
#201=LINE('',#1100,#251);
#202=LINE('',#1101,#252);
#203=LINE('',#1103,#253);
#204=LINE('',#1105,#254);
#205=LINE('',#1107,#255);
#206=VECTOR('',#737,3.5);
#207=VECTOR('',#744,3.);
#208=VECTOR('',#749,10.);
#209=VECTOR('',#750,10.);
#210=VECTOR('',#751,10.);
#211=VECTOR('',#752,10.);
#212=VECTOR('',#757,3.5);
#213=VECTOR('',#764,3.);
#214=VECTOR('',#769,10.);
#215=VECTOR('',#770,10.);
#216=VECTOR('',#771,10.);
#217=VECTOR('',#776,3.5);
#218=VECTOR('',#781,3.);
#219=VECTOR('',#788,10.);
#220=VECTOR('',#789,10.);
#221=VECTOR('',#790,10.);
#222=VECTOR('',#795,3.5);
#223=VECTOR('',#800,3.);
#224=VECTOR('',#803,10.);
#225=VECTOR('',#804,10.);
#226=VECTOR('',#809,2.0625);
#227=VECTOR('',#816,3.125);
#228=VECTOR('',#823,10.);
#229=VECTOR('',#824,10.);
#230=VECTOR('',#827,10.);
#231=VECTOR('',#836,2.0625);
#232=VECTOR('',#843,3.125);
#233=VECTOR('',#850,7.00000000000001);
#234=VECTOR('',#861,3.5);
#235=VECTOR('',#870,3.);
#236=VECTOR('',#873,10.);
#237=VECTOR('',#874,10.);
#238=VECTOR('',#875,10.);
#239=VECTOR('',#882,3.5);
#240=VECTOR('',#885,10.);
#241=VECTOR('',#886,10.);
#242=VECTOR('',#889,10.);
#243=VECTOR('',#894,3.5);
#244=VECTOR('',#899,3.);
#245=VECTOR('',#902,10.);
#246=VECTOR('',#905,10.);
#247=VECTOR('',#906,10.);
#248=VECTOR('',#911,10.);
#249=VECTOR('',#912,10.);
#250=VECTOR('',#915,10.);
#251=VECTOR('',#916,10.);
#252=VECTOR('',#917,10.);
#253=VECTOR('',#920,10.);
#254=VECTOR('',#923,10.);
#255=VECTOR('',#926,10.);
#256=CIRCLE('',#658,4.);
#257=CIRCLE('',#659,3.);
#258=CIRCLE('',#665,4.);
#259=CIRCLE('',#666,3.);
#260=CIRCLE('',#672,4.);
#261=CIRCLE('',#673,3.);
#262=CIRCLE('',#679,4.);
#263=CIRCLE('',#680,3.);
#264=CIRCLE('',#684,2.0625);
#265=CIRCLE('',#685,2.0625);
#266=CIRCLE('',#687,3.125);
#267=CIRCLE('',#688,3.125);
#268=CIRCLE('',#691,15.);
#269=CIRCLE('',#692,3.125);
#270=CIRCLE('',#693,7.00000000000001);
#271=CIRCLE('',#695,2.0625);
#272=CIRCLE('',#696,2.0625);
#273=CIRCLE('',#698,3.125);
#274=CIRCLE('',#702,7.00000000000001);
#275=CIRCLE('',#704,3.);
#276=CIRCLE('',#706,3.);
#277=CIRCLE('',#707,4.);
#278=CIRCLE('',#709,3.);
#279=CIRCLE('',#710,3.);
#280=CIRCLE('',#712,15.);
#281=CIRCLE('',#714,4.);
#282=CIRCLE('',#716,15.);
#283=CIRCLE('',#718,3.);
#284=CIRCLE('',#719,4.);
#285=CIRCLE('',#722,15.);
#286=VERTEX_POINT('',#933);
#287=VERTEX_POINT('',#935);
#288=VERTEX_POINT('',#939);
#289=VERTEX_POINT('',#940);
#290=VERTEX_POINT('',#945);
#291=VERTEX_POINT('',#946);
#292=VERTEX_POINT('',#948);
#293=VERTEX_POINT('',#950);
#294=VERTEX_POINT('',#954);
#295=VERTEX_POINT('',#956);
#296=VERTEX_POINT('',#960);
#297=VERTEX_POINT('',#965);
#298=VERTEX_POINT('',#967);
#299=VERTEX_POINT('',#971);
#300=VERTEX_POINT('',#973);
#301=VERTEX_POINT('',#978);
#302=VERTEX_POINT('',#982);
#303=VERTEX_POINT('',#984);
#304=VERTEX_POINT('',#988);
#305=VERTEX_POINT('',#990);
#306=VERTEX_POINT('',#999);
#307=VERTEX_POINT('',#1001);
#308=VERTEX_POINT('',#1005);
#309=VERTEX_POINT('',#1007);
#310=VERTEX_POINT('',#1012);
#311=VERTEX_POINT('',#1013);
#312=VERTEX_POINT('',#1015);
#313=VERTEX_POINT('',#1017);
#314=VERTEX_POINT('',#1020);
#315=VERTEX_POINT('',#1022);
#316=VERTEX_POINT('',#1025);
#317=VERTEX_POINT('',#1027);
#318=VERTEX_POINT('',#1031);
#319=VERTEX_POINT('',#1037);
#320=VERTEX_POINT('',#1041);
#321=VERTEX_POINT('',#1044);
#322=VERTEX_POINT('',#1046);
#323=VERTEX_POINT('',#1050);
#324=VERTEX_POINT('',#1051);
#325=VERTEX_POINT('',#1056);
#326=VERTEX_POINT('',#1057);
#327=VERTEX_POINT('',#1059);
#328=VERTEX_POINT('',#1061);
#329=VERTEX_POINT('',#1065);
#330=VERTEX_POINT('',#1069);
#331=VERTEX_POINT('',#1070);
#332=VERTEX_POINT('',#1072);
#333=VERTEX_POINT('',#1074);
#334=VERTEX_POINT('',#1078);
#335=VERTEX_POINT('',#1080);
#336=VERTEX_POINT('',#1086);
#337=VERTEX_POINT('',#1087);
#338=VERTEX_POINT('',#1089);
#339=VERTEX_POINT('',#1091);
#340=EDGE_CURVE('',#286,#286,#256,.T.);
#341=EDGE_CURVE('',#286,#287,#156,.T.);
#342=EDGE_CURVE('',#287,#287,#257,.T.);
#343=EDGE_CURVE('',#288,#289,#47,.T.);
#344=EDGE_CURVE('',#288,#287,#157,.T.);
#345=EDGE_CURVE('',#289,#288,#48,.T.);
#346=EDGE_CURVE('',#290,#291,#158,.T.);
#347=EDGE_CURVE('',#290,#292,#159,.T.);
#348=EDGE_CURVE('',#292,#293,#160,.T.);
#349=EDGE_CURVE('',#291,#293,#161,.T.);
#350=EDGE_CURVE('',#294,#294,#258,.T.);
#351=EDGE_CURVE('',#294,#295,#162,.T.);
#352=EDGE_CURVE('',#295,#295,#259,.T.);
#353=EDGE_CURVE('',#288,#296,#49,.T.);
#354=EDGE_CURVE('',#296,#295,#163,.T.);
#355=EDGE_CURVE('',#296,#289,#50,.T.);
#356=EDGE_CURVE('',#291,#297,#164,.T.);
#357=EDGE_CURVE('',#293,#298,#165,.T.);
#358=EDGE_CURVE('',#297,#298,#166,.T.);
#359=EDGE_CURVE('',#299,#299,#260,.T.);
#360=EDGE_CURVE('',#299,#300,#167,.T.);
#361=EDGE_CURVE('',#300,#300,#261,.T.);
#362=EDGE_CURVE('',#300,#288,#168,.T.);
#363=EDGE_CURVE('',#301,#288,#51,.T.);
#364=EDGE_CURVE('',#289,#301,#52,.T.);
#365=EDGE_CURVE('',#297,#302,#169,.T.);
#366=EDGE_CURVE('',#298,#303,#170,.T.);
#367=EDGE_CURVE('',#302,#303,#171,.T.);
#368=EDGE_CURVE('',#304,#304,#262,.T.);
#369=EDGE_CURVE('',#304,#305,#172,.T.);
#370=EDGE_CURVE('',#305,#305,#263,.T.);
#371=EDGE_CURVE('',#305,#301,#173,.T.);
#372=EDGE_CURVE('',#302,#290,#174,.T.);
#373=EDGE_CURVE('',#303,#292,#175,.T.);
#374=EDGE_CURVE('',#306,#306,#264,.T.);
#375=EDGE_CURVE('',#306,#307,#176,.T.);
#376=EDGE_CURVE('',#307,#307,#265,.T.);
#377=EDGE_CURVE('',#308,#308,#266,.T.);
#378=EDGE_CURVE('',#308,#309,#177,.T.);
#379=EDGE_CURVE('',#309,#309,#267,.T.);
#380=EDGE_CURVE('',#310,#311,#178,.T.);
#381=EDGE_CURVE('',#311,#312,#179,.T.);
#382=EDGE_CURVE('',#312,#313,#268,.T.);
#383=EDGE_CURVE('',#313,#310,#180,.T.);
#384=EDGE_CURVE('',#314,#314,#269,.T.);
#385=EDGE_CURVE('',#315,#315,#270,.T.);
#386=EDGE_CURVE('',#316,#316,#271,.T.);
#387=EDGE_CURVE('',#316,#317,#181,.T.);
#388=EDGE_CURVE('',#317,#317,#272,.T.);
#389=EDGE_CURVE('',#318,#318,#273,.T.);
#390=EDGE_CURVE('',#318,#314,#182,.T.);
#391=EDGE_CURVE('',#315,#319,#183,.T.);
#392=EDGE_CURVE('',#319,#319,#274,.T.);
#393=EDGE_CURVE('',#320,#320,#275,.T.);
#394=EDGE_CURVE('',#321,#321,#276,.T.);
#395=EDGE_CURVE('',#321,#322,#184,.T.);
#396=EDGE_CURVE('',#322,#322,#277,.T.);
#397=EDGE_CURVE('',#323,#324,#278,.T.);
#398=EDGE_CURVE('',#324,#323,#279,.T.);
#399=EDGE_CURVE('',#324,#321,#185,.T.);
#400=EDGE_CURVE('',#325,#326,#186,.T.);
#401=EDGE_CURVE('',#327,#325,#187,.T.);
#402=EDGE_CURVE('',#328,#327,#188,.T.);
#403=EDGE_CURVE('',#326,#328,#280,.T.);
#404=EDGE_CURVE('',#329,#329,#281,.T.);
#405=EDGE_CURVE('',#329,#323,#189,.T.);
#406=EDGE_CURVE('',#330,#331,#190,.T.);
#407=EDGE_CURVE('',#332,#331,#191,.T.);
#408=EDGE_CURVE('',#332,#333,#282,.T.);
#409=EDGE_CURVE('',#333,#330,#192,.T.);
#410=EDGE_CURVE('',#334,#334,#283,.T.);
#411=EDGE_CURVE('',#334,#335,#193,.T.);
#412=EDGE_CURVE('',#335,#335,#284,.T.);
#413=EDGE_CURVE('',#334,#320,#194,.T.);
#414=EDGE_CURVE('',#336,#337,#195,.T.);
#415=EDGE_CURVE('',#338,#336,#285,.T.);
#416=EDGE_CURVE('',#339,#338,#196,.T.);
#417=EDGE_CURVE('',#337,#339,#197,.T.);
#418=EDGE_CURVE('',#311,#330,#198,.T.);
#419=EDGE_CURVE('',#331,#310,#199,.T.);
#420=EDGE_CURVE('',#333,#328,#200,.T.);
#421=EDGE_CURVE('',#327,#339,#201,.T.);
#422=EDGE_CURVE('',#338,#312,#202,.T.);
#423=EDGE_CURVE('',#337,#325,#203,.T.);
#424=EDGE_CURVE('',#336,#313,#204,.T.);
#425=EDGE_CURVE('',#332,#326,#205,.T.);
#426=ORIENTED_EDGE('',*,*,#340,.T.);
#427=ORIENTED_EDGE('',*,*,#341,.T.);
#428=ORIENTED_EDGE('',*,*,#342,.T.);
#429=ORIENTED_EDGE('',*,*,#341,.F.);
#430=ORIENTED_EDGE('',*,*,#343,.F.);
#431=ORIENTED_EDGE('',*,*,#344,.T.);
#432=ORIENTED_EDGE('',*,*,#342,.F.);
#433=ORIENTED_EDGE('',*,*,#344,.F.);
#434=ORIENTED_EDGE('',*,*,#345,.F.);
#435=ORIENTED_EDGE('',*,*,#346,.F.);
#436=ORIENTED_EDGE('',*,*,#347,.T.);
#437=ORIENTED_EDGE('',*,*,#348,.T.);
#438=ORIENTED_EDGE('',*,*,#349,.F.);
#439=ORIENTED_EDGE('',*,*,#340,.F.);
#440=ORIENTED_EDGE('',*,*,#350,.T.);
#441=ORIENTED_EDGE('',*,*,#351,.T.);
#442=ORIENTED_EDGE('',*,*,#352,.T.);
#443=ORIENTED_EDGE('',*,*,#351,.F.);
#444=ORIENTED_EDGE('',*,*,#353,.T.);
#445=ORIENTED_EDGE('',*,*,#354,.T.);
#446=ORIENTED_EDGE('',*,*,#352,.F.);
#447=ORIENTED_EDGE('',*,*,#354,.F.);
#448=ORIENTED_EDGE('',*,*,#355,.T.);
#449=ORIENTED_EDGE('',*,*,#345,.T.);
#450=ORIENTED_EDGE('',*,*,#356,.F.);
#451=ORIENTED_EDGE('',*,*,#349,.T.);
#452=ORIENTED_EDGE('',*,*,#357,.T.);
#453=ORIENTED_EDGE('',*,*,#358,.F.);
#454=ORIENTED_EDGE('',*,*,#350,.F.);
#455=ORIENTED_EDGE('',*,*,#359,.T.);
#456=ORIENTED_EDGE('',*,*,#360,.T.);
#457=ORIENTED_EDGE('',*,*,#361,.T.);
#458=ORIENTED_EDGE('',*,*,#360,.F.);
#459=ORIENTED_EDGE('',*,*,#361,.F.);
#460=ORIENTED_EDGE('',*,*,#362,.T.);
#461=ORIENTED_EDGE('',*,*,#363,.F.);
#462=ORIENTED_EDGE('',*,*,#364,.F.);
#463=ORIENTED_EDGE('',*,*,#355,.F.);
#464=ORIENTED_EDGE('',*,*,#353,.F.);
#465=ORIENTED_EDGE('',*,*,#362,.F.);
#466=ORIENTED_EDGE('',*,*,#365,.F.);
#467=ORIENTED_EDGE('',*,*,#358,.T.);
#468=ORIENTED_EDGE('',*,*,#366,.T.);
#469=ORIENTED_EDGE('',*,*,#367,.F.);
#470=ORIENTED_EDGE('',*,*,#359,.F.);
#471=ORIENTED_EDGE('',*,*,#368,.T.);
#472=ORIENTED_EDGE('',*,*,#369,.T.);
#473=ORIENTED_EDGE('',*,*,#370,.T.);
#474=ORIENTED_EDGE('',*,*,#369,.F.);
#475=ORIENTED_EDGE('',*,*,#370,.F.);
#476=ORIENTED_EDGE('',*,*,#371,.T.);
#477=ORIENTED_EDGE('',*,*,#363,.T.);
#478=ORIENTED_EDGE('',*,*,#343,.T.);
#479=ORIENTED_EDGE('',*,*,#364,.T.);
#480=ORIENTED_EDGE('',*,*,#371,.F.);
#481=ORIENTED_EDGE('',*,*,#372,.F.);
#482=ORIENTED_EDGE('',*,*,#367,.T.);
#483=ORIENTED_EDGE('',*,*,#373,.T.);
#484=ORIENTED_EDGE('',*,*,#347,.F.);
#485=ORIENTED_EDGE('',*,*,#368,.F.);
#486=ORIENTED_EDGE('',*,*,#374,.F.);
#487=ORIENTED_EDGE('',*,*,#375,.T.);
#488=ORIENTED_EDGE('',*,*,#376,.F.);
#489=ORIENTED_EDGE('',*,*,#375,.F.);
#490=ORIENTED_EDGE('',*,*,#377,.F.);
#491=ORIENTED_EDGE('',*,*,#378,.T.);
#492=ORIENTED_EDGE('',*,*,#379,.F.);
#493=ORIENTED_EDGE('',*,*,#378,.F.);
#494=ORIENTED_EDGE('',*,*,#377,.T.);
#495=ORIENTED_EDGE('',*,*,#374,.T.);
#496=ORIENTED_EDGE('',*,*,#380,.T.);
#497=ORIENTED_EDGE('',*,*,#381,.T.);
#498=ORIENTED_EDGE('',*,*,#382,.T.);
#499=ORIENTED_EDGE('',*,*,#383,.T.);
#500=ORIENTED_EDGE('',*,*,#384,.T.);
#501=ORIENTED_EDGE('',*,*,#385,.T.);
#502=ORIENTED_EDGE('',*,*,#379,.T.);
#503=ORIENTED_EDGE('',*,*,#386,.F.);
#504=ORIENTED_EDGE('',*,*,#387,.T.);
#505=ORIENTED_EDGE('',*,*,#388,.F.);
#506=ORIENTED_EDGE('',*,*,#387,.F.);
#507=ORIENTED_EDGE('',*,*,#389,.F.);
#508=ORIENTED_EDGE('',*,*,#390,.T.);
#509=ORIENTED_EDGE('',*,*,#384,.F.);
#510=ORIENTED_EDGE('',*,*,#390,.F.);
#511=ORIENTED_EDGE('',*,*,#389,.T.);
#512=ORIENTED_EDGE('',*,*,#386,.T.);
#513=ORIENTED_EDGE('',*,*,#376,.T.);
#514=ORIENTED_EDGE('',*,*,#385,.F.);
#515=ORIENTED_EDGE('',*,*,#391,.T.);
#516=ORIENTED_EDGE('',*,*,#392,.T.);
#517=ORIENTED_EDGE('',*,*,#391,.F.);
#518=ORIENTED_EDGE('',*,*,#392,.F.);
#519=ORIENTED_EDGE('',*,*,#393,.F.);
#520=ORIENTED_EDGE('',*,*,#394,.T.);
#521=ORIENTED_EDGE('',*,*,#395,.T.);
#522=ORIENTED_EDGE('',*,*,#396,.T.);
#523=ORIENTED_EDGE('',*,*,#395,.F.);
#524=ORIENTED_EDGE('',*,*,#397,.F.);
#525=ORIENTED_EDGE('',*,*,#398,.F.);
#526=ORIENTED_EDGE('',*,*,#399,.T.);
#527=ORIENTED_EDGE('',*,*,#394,.F.);
#528=ORIENTED_EDGE('',*,*,#399,.F.);
#529=ORIENTED_EDGE('',*,*,#400,.F.);
#530=ORIENTED_EDGE('',*,*,#401,.F.);
#531=ORIENTED_EDGE('',*,*,#402,.F.);
#532=ORIENTED_EDGE('',*,*,#403,.F.);
#533=ORIENTED_EDGE('',*,*,#396,.F.);
#534=ORIENTED_EDGE('',*,*,#404,.T.);
#535=ORIENTED_EDGE('',*,*,#405,.T.);
#536=ORIENTED_EDGE('',*,*,#397,.T.);
#537=ORIENTED_EDGE('',*,*,#398,.T.);
#538=ORIENTED_EDGE('',*,*,#405,.F.);
#539=ORIENTED_EDGE('',*,*,#406,.T.);
#540=ORIENTED_EDGE('',*,*,#407,.F.);
#541=ORIENTED_EDGE('',*,*,#408,.T.);
#542=ORIENTED_EDGE('',*,*,#409,.T.);
#543=ORIENTED_EDGE('',*,*,#404,.F.);
#544=ORIENTED_EDGE('',*,*,#410,.T.);
#545=ORIENTED_EDGE('',*,*,#411,.T.);
#546=ORIENTED_EDGE('',*,*,#412,.T.);
#547=ORIENTED_EDGE('',*,*,#411,.F.);
#548=ORIENTED_EDGE('',*,*,#410,.F.);
#549=ORIENTED_EDGE('',*,*,#413,.T.);
#550=ORIENTED_EDGE('',*,*,#393,.T.);
#551=ORIENTED_EDGE('',*,*,#413,.F.);
#552=ORIENTED_EDGE('',*,*,#414,.F.);
#553=ORIENTED_EDGE('',*,*,#415,.F.);
#554=ORIENTED_EDGE('',*,*,#416,.F.);
#555=ORIENTED_EDGE('',*,*,#417,.F.);
#556=ORIENTED_EDGE('',*,*,#412,.F.);
#557=ORIENTED_EDGE('',*,*,#388,.T.);
#558=ORIENTED_EDGE('',*,*,#418,.F.);
#559=ORIENTED_EDGE('',*,*,#380,.F.);
#560=ORIENTED_EDGE('',*,*,#419,.F.);
#561=ORIENTED_EDGE('',*,*,#406,.F.);
#562=ORIENTED_EDGE('',*,*,#366,.F.);
#563=ORIENTED_EDGE('',*,*,#357,.F.);
#564=ORIENTED_EDGE('',*,*,#348,.F.);
#565=ORIENTED_EDGE('',*,*,#373,.F.);
#566=ORIENTED_EDGE('',*,*,#418,.T.);
#567=ORIENTED_EDGE('',*,*,#409,.F.);
#568=ORIENTED_EDGE('',*,*,#420,.T.);
#569=ORIENTED_EDGE('',*,*,#402,.T.);
#570=ORIENTED_EDGE('',*,*,#421,.T.);
#571=ORIENTED_EDGE('',*,*,#416,.T.);
#572=ORIENTED_EDGE('',*,*,#422,.T.);
#573=ORIENTED_EDGE('',*,*,#381,.F.);
#574=ORIENTED_EDGE('',*,*,#423,.F.);
#575=ORIENTED_EDGE('',*,*,#417,.T.);
#576=ORIENTED_EDGE('',*,*,#421,.F.);
#577=ORIENTED_EDGE('',*,*,#401,.T.);
#578=ORIENTED_EDGE('',*,*,#415,.T.);
#579=ORIENTED_EDGE('',*,*,#424,.T.);
#580=ORIENTED_EDGE('',*,*,#382,.F.);
#581=ORIENTED_EDGE('',*,*,#422,.F.);
#582=ORIENTED_EDGE('',*,*,#419,.T.);
#583=ORIENTED_EDGE('',*,*,#383,.F.);
#584=ORIENTED_EDGE('',*,*,#424,.F.);
#585=ORIENTED_EDGE('',*,*,#414,.T.);
#586=ORIENTED_EDGE('',*,*,#423,.T.);
#587=ORIENTED_EDGE('',*,*,#400,.T.);
#588=ORIENTED_EDGE('',*,*,#425,.F.);
#589=ORIENTED_EDGE('',*,*,#407,.T.);
#590=ORIENTED_EDGE('',*,*,#403,.T.);
#591=ORIENTED_EDGE('',*,*,#420,.F.);
#592=ORIENTED_EDGE('',*,*,#408,.F.);
#593=ORIENTED_EDGE('',*,*,#425,.T.);
#594=ORIENTED_EDGE('',*,*,#356,.T.);
#595=ORIENTED_EDGE('',*,*,#365,.T.);
#596=ORIENTED_EDGE('',*,*,#372,.T.);
#597=ORIENTED_EDGE('',*,*,#346,.T.);
#598=CONICAL_SURFACE('',#657,3.5,0.785398163397446);
#599=CONICAL_SURFACE('',#664,3.5,0.785398163397448);
#600=CONICAL_SURFACE('',#671,3.5,0.785398163397447);
#601=CONICAL_SURFACE('',#678,3.5,0.785398163397449);
#602=CONICAL_SURFACE('',#705,3.5,0.785398163397448);
#603=CONICAL_SURFACE('',#713,3.5,0.785398163397448);
#604=CONICAL_SURFACE('',#717,3.5,0.785398163397448);
#605=ADVANCED_FACE('',(#66),#598,.F.);
#606=ADVANCED_FACE('',(#67),#53,.F.);
#607=ADVANCED_FACE('',(#68,#15),#29,.T.);
#608=ADVANCED_FACE('',(#69),#599,.F.);
#609=ADVANCED_FACE('',(#70),#54,.F.);
#610=ADVANCED_FACE('',(#71,#16),#30,.T.);
#611=ADVANCED_FACE('',(#72),#600,.F.);
#612=ADVANCED_FACE('',(#73),#55,.F.);
#613=ADVANCED_FACE('',(#74,#17),#31,.T.);
#614=ADVANCED_FACE('',(#75),#601,.F.);
#615=ADVANCED_FACE('',(#76),#56,.F.);
#616=ADVANCED_FACE('',(#77,#18),#32,.T.);
#617=ADVANCED_FACE('',(#78),#57,.F.);
#618=ADVANCED_FACE('',(#79),#58,.T.);
#619=ADVANCED_FACE('',(#80,#19),#33,.T.);
#620=ADVANCED_FACE('',(#81,#20,#21,#22),#34,.F.);
#621=ADVANCED_FACE('',(#82),#59,.F.);
#622=ADVANCED_FACE('',(#83),#60,.T.);
#623=ADVANCED_FACE('',(#84,#23),#35,.T.);
#624=ADVANCED_FACE('',(#85),#36,.F.);
#625=ADVANCED_FACE('',(#86),#61,.F.);
#626=ADVANCED_FACE('',(#87,#24),#37,.T.);
#627=ADVANCED_FACE('',(#88),#602,.F.);
#628=ADVANCED_FACE('',(#89),#62,.F.);
#629=ADVANCED_FACE('',(#90,#25),#38,.F.);
#630=ADVANCED_FACE('',(#91),#603,.F.);
#631=ADVANCED_FACE('',(#92,#26),#39,.T.);
#632=ADVANCED_FACE('',(#93),#604,.F.);
#633=ADVANCED_FACE('',(#94),#63,.F.);
#634=ADVANCED_FACE('',(#95,#27),#40,.T.);
#635=ADVANCED_FACE('',(#96),#41,.F.);
#636=ADVANCED_FACE('',(#97,#28),#42,.F.);
#637=ADVANCED_FACE('',(#98),#43,.T.);
#638=ADVANCED_FACE('',(#99),#44,.F.);
#639=ADVANCED_FACE('',(#100),#64,.T.);
#640=ADVANCED_FACE('',(#101),#45,.T.);
#641=ADVANCED_FACE('',(#102),#65,.T.);
#642=ADVANCED_FACE('',(#103),#46,.T.);
#643=CLOSED_SHELL('',(#605,#606,#607,#608,#609,#610,#611,#612,#613,#614,
#615,#616,#617,#618,#619,#620,#621,#622,#623,#624,#625,#626,#627,#628,#629,
#630,#631,#632,#633,#634,#635,#636,#637,#638,#639,#640,#641,#642));
#644=DERIVED_UNIT_ELEMENT(#646,1.);
#645=DERIVED_UNIT_ELEMENT(#1115,-3.);
#646=(
MASS_UNIT()
NAMED_UNIT(*)
SI_UNIT(.KILO.,.GRAM.)
);
#647=DERIVED_UNIT((#644,#645));
#648=MEASURE_REPRESENTATION_ITEM('density measure',
POSITIVE_RATIO_MEASURE(7850.),#647);
#649=PROPERTY_DEFINITION_REPRESENTATION(#654,#651);
#650=PROPERTY_DEFINITION_REPRESENTATION(#655,#652);
#651=REPRESENTATION('material name',(#653),#1112);
#652=REPRESENTATION('density',(#648),#1112);
#653=DESCRIPTIVE_REPRESENTATION_ITEM('Steel','Steel');
#654=PROPERTY_DEFINITION('material property','material name',#1122);
#655=PROPERTY_DEFINITION('material property','density of part',#1122);
#656=AXIS2_PLACEMENT_3D('',#931,#731,#732);
#657=AXIS2_PLACEMENT_3D('',#932,#733,#734);
#658=AXIS2_PLACEMENT_3D('',#934,#735,#736);
#659=AXIS2_PLACEMENT_3D('',#937,#738,#739);
#660=AXIS2_PLACEMENT_3D('',#938,#740,#741);
#661=AXIS2_PLACEMENT_3D('',#941,#742,#743);
#662=AXIS2_PLACEMENT_3D('',#943,#745,#746);
#663=AXIS2_PLACEMENT_3D('',#944,#747,#748);
#664=AXIS2_PLACEMENT_3D('',#953,#753,#754);
#665=AXIS2_PLACEMENT_3D('',#955,#755,#756);
#666=AXIS2_PLACEMENT_3D('',#958,#758,#759);
#667=AXIS2_PLACEMENT_3D('',#959,#760,#761);
#668=AXIS2_PLACEMENT_3D('',#961,#762,#763);
#669=AXIS2_PLACEMENT_3D('',#963,#765,#766);
#670=AXIS2_PLACEMENT_3D('',#964,#767,#768);
#671=AXIS2_PLACEMENT_3D('',#970,#772,#773);
#672=AXIS2_PLACEMENT_3D('',#972,#774,#775);
#673=AXIS2_PLACEMENT_3D('',#975,#777,#778);
#674=AXIS2_PLACEMENT_3D('',#976,#779,#780);
#675=AXIS2_PLACEMENT_3D('',#979,#782,#783);
#676=AXIS2_PLACEMENT_3D('',#980,#784,#785);
#677=AXIS2_PLACEMENT_3D('',#981,#786,#787);
#678=AXIS2_PLACEMENT_3D('',#987,#791,#792);
#679=AXIS2_PLACEMENT_3D('',#989,#793,#794);
#680=AXIS2_PLACEMENT_3D('',#992,#796,#797);
#681=AXIS2_PLACEMENT_3D('',#993,#798,#799);
#682=AXIS2_PLACEMENT_3D('',#995,#801,#802);
#683=AXIS2_PLACEMENT_3D('',#998,#805,#806);
#684=AXIS2_PLACEMENT_3D('',#1000,#807,#808);
#685=AXIS2_PLACEMENT_3D('',#1003,#810,#811);
#686=AXIS2_PLACEMENT_3D('',#1004,#812,#813);
#687=AXIS2_PLACEMENT_3D('',#1006,#814,#815);
#688=AXIS2_PLACEMENT_3D('',#1009,#817,#818);
#689=AXIS2_PLACEMENT_3D('',#1010,#819,#820);
#690=AXIS2_PLACEMENT_3D('',#1011,#821,#822);
#691=AXIS2_PLACEMENT_3D('',#1018,#825,#826);
#692=AXIS2_PLACEMENT_3D('',#1021,#828,#829);
#693=AXIS2_PLACEMENT_3D('',#1023,#830,#831);
#694=AXIS2_PLACEMENT_3D('',#1024,#832,#833);
#695=AXIS2_PLACEMENT_3D('',#1026,#834,#835);
#696=AXIS2_PLACEMENT_3D('',#1029,#837,#838);
#697=AXIS2_PLACEMENT_3D('',#1030,#839,#840);
#698=AXIS2_PLACEMENT_3D('',#1032,#841,#842);
#699=AXIS2_PLACEMENT_3D('',#1034,#844,#845);
#700=AXIS2_PLACEMENT_3D('',#1035,#846,#847);
#701=AXIS2_PLACEMENT_3D('',#1036,#848,#849);
#702=AXIS2_PLACEMENT_3D('',#1039,#851,#852);
#703=AXIS2_PLACEMENT_3D('',#1040,#853,#854);
#704=AXIS2_PLACEMENT_3D('',#1042,#855,#856);
#705=AXIS2_PLACEMENT_3D('',#1043,#857,#858);
#706=AXIS2_PLACEMENT_3D('',#1045,#859,#860);
#707=AXIS2_PLACEMENT_3D('',#1048,#862,#863);
#708=AXIS2_PLACEMENT_3D('',#1049,#864,#865);
#709=AXIS2_PLACEMENT_3D('',#1052,#866,#867);
#710=AXIS2_PLACEMENT_3D('',#1053,#868,#869);
#711=AXIS2_PLACEMENT_3D('',#1055,#871,#872);
#712=AXIS2_PLACEMENT_3D('',#1063,#876,#877);
#713=AXIS2_PLACEMENT_3D('',#1064,#878,#879);
#714=AXIS2_PLACEMENT_3D('',#1066,#880,#881);
#715=AXIS2_PLACEMENT_3D('',#1068,#883,#884);
#716=AXIS2_PLACEMENT_3D('',#1075,#887,#888);
#717=AXIS2_PLACEMENT_3D('',#1077,#890,#891);
#718=AXIS2_PLACEMENT_3D('',#1079,#892,#893);
#719=AXIS2_PLACEMENT_3D('',#1082,#895,#896);
#720=AXIS2_PLACEMENT_3D('',#1083,#897,#898);
#721=AXIS2_PLACEMENT_3D('',#1085,#900,#901);
#722=AXIS2_PLACEMENT_3D('',#1090,#903,#904);
#723=AXIS2_PLACEMENT_3D('',#1094,#907,#908);
#724=AXIS2_PLACEMENT_3D('',#1095,#909,#910);
#725=AXIS2_PLACEMENT_3D('',#1098,#913,#914);
#726=AXIS2_PLACEMENT_3D('',#1102,#918,#919);
#727=AXIS2_PLACEMENT_3D('',#1104,#921,#922);
#728=AXIS2_PLACEMENT_3D('',#1106,#924,#925);
#729=AXIS2_PLACEMENT_3D('',#1108,#927,#928);
#730=AXIS2_PLACEMENT_3D('',#1109,#929,#930);
#731=DIRECTION('axis',(0.,0.,1.));
#732=DIRECTION('refdir',(1.,0.,0.));
#733=DIRECTION('center_axis',(-2.83276944882392E-16,-1.,1.64921633642641E-30));
#734=DIRECTION('ref_axis',(-0.256427527789066,7.26400066558329E-17,0.966563460405983));
#735=DIRECTION('center_axis',(-2.83276944882392E-16,-1.,1.64921633642641E-30));
#736=DIRECTION('ref_axis',(-0.256427527789066,7.26400066558328E-17,0.966563460405983));
#737=DIRECTION('',(-0.18132164378255,0.707106781186549,0.683463577300204));
#738=DIRECTION('center_axis',(2.83276944882392E-16,1.,-1.64921633642641E-30));
#739=DIRECTION('ref_axis',(-0.256427527789066,7.26400066558328E-17,0.966563460405983));
#740=DIRECTION('center_axis',(-2.83276944882392E-16,-1.,1.64921633642641E-30));
#741=DIRECTION('ref_axis',(-0.256427527789066,7.26400066558328E-17,0.966563460405983));
#742=DIRECTION('center_axis',(-0.683463577300206,-0.707106781186547,-0.18132164378255));
#743=DIRECTION('ref_axis',(-0.683463577300205,0.707106781186548,-0.18132164378255));
#744=DIRECTION('',(-2.83276944882392E-16,-1.,1.64921633642641E-30));
#745=DIRECTION('center_axis',(0.683463577300205,-0.707106781186548,0.18132164378255));
#746=DIRECTION('ref_axis',(-0.683463577300205,-0.707106781186547,-0.18132164378255));
#747=DIRECTION('center_axis',(-2.83276944882392E-16,-1.,1.64921633642641E-30));
#748=DIRECTION('ref_axis',(-0.966563460405983,2.73805144098759E-16,-0.256427527789066));
#749=DIRECTION('',(-0.966563460405983,2.73805144098759E-16,-0.256427527789066));
#750=DIRECTION('',(-0.256427527789066,7.26400066558328E-17,0.966563460405983));
#751=DIRECTION('',(-0.966563460405983,2.73805144098759E-16,-0.256427527789066));
#752=DIRECTION('',(-0.256427527789066,7.26400066558328E-17,0.966563460405983));
#753=DIRECTION('center_axis',(-0.966563460405983,2.73805144098759E-16,-0.256427527789066));
#754=DIRECTION('ref_axis',(-2.83276944882392E-16,-1.,1.64921633642641E-30));
#755=DIRECTION('center_axis',(-0.966563460405983,2.73805144098759E-16,-0.256427527789066));
#756=DIRECTION('ref_axis',(-2.83276944882392E-16,-1.,1.64921633642641E-30));
#757=DIRECTION('',(0.683463577300205,-0.707106781186547,0.181321643782551));
#758=DIRECTION('center_axis',(0.966563460405983,-2.73805144098759E-16,0.256427527789066));
#759=DIRECTION('ref_axis',(-2.83276944882392E-16,-1.,1.64921633642641E-30));
#760=DIRECTION('center_axis',(-0.966563460405983,2.73805144098759E-16,-0.256427527789066));
#761=DIRECTION('ref_axis',(-2.83276944882392E-16,-1.,1.64921633642641E-30));
#762=DIRECTION('center_axis',(0.683463577300206,0.707106781186547,0.18132164378255));
#763=DIRECTION('ref_axis',(-0.683463577300205,0.707106781186548,-0.18132164378255));
#764=DIRECTION('',(-0.966563460405983,2.73805144098759E-16,-0.256427527789066));
#765=DIRECTION('center_axis',(0.683463577300206,0.707106781186547,0.18132164378255));
#766=DIRECTION('ref_axis',(-0.683463577300205,0.707106781186548,-0.18132164378255));
#767=DIRECTION('center_axis',(-0.966563460405983,2.73805144098759E-16,-0.256427527789066));
#768=DIRECTION('ref_axis',(2.83276944882392E-16,1.,-1.64921633642641E-30));
#769=DIRECTION('',(2.83276944882392E-16,1.,-1.64921633642641E-30));
#770=DIRECTION('',(2.83276944882392E-16,1.,-1.64921633642641E-30));
#771=DIRECTION('',(-0.256427527789066,7.26400066558328E-17,0.966563460405983));
#772=DIRECTION('center_axis',(2.83276944882392E-16,1.,-1.64921633642641E-30));
#773=DIRECTION('ref_axis',(-0.256427527789066,7.26400066558329E-17,0.966563460405983));
#774=DIRECTION('center_axis',(2.83276944882392E-16,1.,-1.64921633642641E-30));
#775=DIRECTION('ref_axis',(-0.256427527789066,7.26400066558328E-17,0.966563460405983));
#776=DIRECTION('',(-0.18132164378255,-0.707106781186549,0.683463577300204));
#777=DIRECTION('center_axis',(-2.83276944882392E-16,-1.,1.64921633642641E-30));
#778=DIRECTION('ref_axis',(-0.256427527789066,7.26400066558328E-17,0.966563460405983));
#779=DIRECTION('center_axis',(-2.83276944882392E-16,-1.,1.64921633642641E-30));
#780=DIRECTION('ref_axis',(-0.256427527789066,7.26400066558328E-17,0.966563460405983));
#781=DIRECTION('',(-2.83276944882392E-16,-1.,1.64921633642641E-30));
#782=DIRECTION('center_axis',(-0.683463577300205,0.707106781186548,-0.18132164378255));
#783=DIRECTION('ref_axis',(-0.683463577300205,-0.707106781186547,-0.18132164378255));
#784=DIRECTION('center_axis',(-0.683463577300205,0.707106781186548,-0.18132164378255));
#785=DIRECTION('ref_axis',(-0.683463577300205,-0.707106781186547,-0.18132164378255));
#786=DIRECTION('center_axis',(2.83276944882392E-16,1.,-1.64921633642641E-30));
#787=DIRECTION('ref_axis',(0.966563460405983,-2.73805144098759E-16,0.256427527789066));
#788=DIRECTION('',(0.966563460405983,-2.73805144098759E-16,0.256427527789066));
#789=DIRECTION('',(0.966563460405983,-2.73805144098759E-16,0.256427527789066));
#790=DIRECTION('',(-0.256427527789066,7.26400066558328E-17,0.966563460405983));
#791=DIRECTION('center_axis',(0.966563460405983,-2.73805144098759E-16,0.256427527789066));
#792=DIRECTION('ref_axis',(-2.83276944882392E-16,-1.,1.64921633642641E-30));
#793=DIRECTION('center_axis',(0.966563460405983,-2.73805144098759E-16,0.256427527789066));
#794=DIRECTION('ref_axis',(-2.83276944882392E-16,-1.,1.64921633642641E-30));
#795=DIRECTION('',(-0.683463577300205,-0.707106781186548,-0.18132164378255));
#796=DIRECTION('center_axis',(-0.966563460405983,2.73805144098759E-16,-0.256427527789066));
#797=DIRECTION('ref_axis',(-2.83276944882392E-16,-1.,1.64921633642641E-30));
#798=DIRECTION('center_axis',(-0.966563460405983,2.73805144098759E-16,-0.256427527789066));
#799=DIRECTION('ref_axis',(-2.83276944882392E-16,-1.,1.64921633642641E-30));
#800=DIRECTION('',(-0.966563460405983,2.73805144098759E-16,-0.256427527789066));
#801=DIRECTION('center_axis',(0.966563460405983,-2.73805144098759E-16,0.256427527789066));
#802=DIRECTION('ref_axis',(-2.83276944882392E-16,-1.,1.64921633642641E-30));
#803=DIRECTION('',(-2.83276944882392E-16,-1.,1.64921633642641E-30));
#804=DIRECTION('',(-2.83276944882392E-16,-1.,1.64921633642641E-30));
#805=DIRECTION('center_axis',(-2.83276944882392E-16,-1.,1.64921633642641E-30));
#806=DIRECTION('ref_axis',(0.256427527789066,-7.26400066558328E-17,-0.966563460405983));
#807=DIRECTION('center_axis',(2.83276944882392E-16,1.,-1.64921633642641E-30));
#808=DIRECTION('ref_axis',(0.256427527789066,-7.26400066558328E-17,-0.966563460405983));
#809=DIRECTION('',(2.83276944882392E-16,1.,-1.64921633642641E-30));
#810=DIRECTION('center_axis',(-2.83276944882392E-16,-1.,1.64921633642641E-30));
#811=DIRECTION('ref_axis',(0.256427527789066,-7.26400066558328E-17,-0.966563460405983));
#812=DIRECTION('center_axis',(-2.83276944882392E-16,-1.,1.64921633642641E-30));
#813=DIRECTION('ref_axis',(0.256427527789066,-7.26400066558329E-17,-0.966563460405983));
#814=DIRECTION('center_axis',(-2.83276944882392E-16,-1.,1.64921633642641E-30));
#815=DIRECTION('ref_axis',(0.256427527789066,-7.26400066558329E-17,-0.966563460405983));
#816=DIRECTION('',(2.83276944882392E-16,1.,-1.64921633642641E-30));
#817=DIRECTION('center_axis',(2.83276944882392E-16,1.,-1.64921633642641E-30));
#818=DIRECTION('ref_axis',(0.256427527789066,-7.26400066558329E-17,-0.966563460405983));
#819=DIRECTION('center_axis',(-2.83276944882392E-16,-1.,1.64921633642641E-30));
#820=DIRECTION('ref_axis',(0.256427527789066,-7.26400066558328E-17,-0.966563460405983));
#821=DIRECTION('center_axis',(2.83276944882392E-16,1.,-1.64921633642641E-30));
#822=DIRECTION('ref_axis',(0.256427527789066,-7.26400066558329E-17,-0.966563460405983));
#823=DIRECTION('',(0.966563460405983,-2.73805144098759E-16,0.256427527789066));
#824=DIRECTION('',(-0.256427527789066,7.26400066558329E-17,0.966563460405983));
#825=DIRECTION('center_axis',(-2.83276944882392E-16,-1.,1.64921633642641E-30));
#826=DIRECTION('ref_axis',(-0.256427527789066,7.26400066558328E-17,0.966563460405983));
#827=DIRECTION('',(0.256427527789066,-7.26400066558329E-17,-0.966563460405983));
#828=DIRECTION('center_axis',(2.83276944882392E-16,1.,-1.64921633642641E-30));
#829=DIRECTION('ref_axis',(0.256427527789066,-7.26400066558329E-17,-0.966563460405983));
#830=DIRECTION('center_axis',(2.83276944882392E-16,1.,-1.64921633642641E-30));
#831=DIRECTION('ref_axis',(0.256427527789066,-7.26400066558328E-17,-0.966563460405983));
#832=DIRECTION('center_axis',(-2.83276944882392E-16,-1.,1.64921633642641E-30));
#833=DIRECTION('ref_axis',(0.256427527789066,-7.26400066558328E-17,-0.966563460405983));
#834=DIRECTION('center_axis',(2.83276944882392E-16,1.,-1.64921633642641E-30));
#835=DIRECTION('ref_axis',(0.256427527789066,-7.26400066558328E-17,-0.966563460405983));
#836=DIRECTION('',(2.83276944882392E-16,1.,-1.64921633642641E-30));
#837=DIRECTION('center_axis',(-2.83276944882392E-16,-1.,1.64921633642641E-30));
#838=DIRECTION('ref_axis',(0.256427527789066,-7.26400066558328E-17,-0.966563460405983));
#839=DIRECTION('center_axis',(-2.83276944882392E-16,-1.,1.64921633642641E-30));
#840=DIRECTION('ref_axis',(0.256427527789066,-7.26400066558329E-17,-0.966563460405983));
#841=DIRECTION('center_axis',(-2.83276944882392E-16,-1.,1.64921633642641E-30));
#842=DIRECTION('ref_axis',(0.256427527789066,-7.26400066558329E-17,-0.966563460405983));
#843=DIRECTION('',(2.83276944882392E-16,1.,-1.64921633642641E-30));
#844=DIRECTION('center_axis',(-2.83276944882392E-16,-1.,1.64921633642641E-30));
#845=DIRECTION('ref_axis',(0.256427527789066,-7.26400066558328E-17,-0.966563460405983));
#846=DIRECTION('center_axis',(2.83276944882392E-16,1.,-1.64921633642641E-30));
#847=DIRECTION('ref_axis',(0.256427527789066,-7.26400066558329E-17,-0.966563460405983));
#848=DIRECTION('center_axis',(2.83276944882392E-16,1.,-1.64921633642641E-30));
#849=DIRECTION('ref_axis',(0.256427527789066,-7.26400066558328E-17,-0.966563460405983));
#850=DIRECTION('',(2.83276944882392E-16,1.,-1.64921633642641E-30));
#851=DIRECTION('center_axis',(2.83276944882392E-16,1.,-1.64921633642641E-30));
#852=DIRECTION('ref_axis',(0.256427527789066,-7.26400066558328E-17,-0.966563460405983));
#853=DIRECTION('center_axis',(-2.83276944882392E-16,-1.,1.64921633642641E-30));
#854=DIRECTION('ref_axis',(0.256427527789066,-7.26400066558328E-17,-0.966563460405983));
#855=DIRECTION('center_axis',(-2.83276944882392E-16,-1.,1.64921633642641E-30));
#856=DIRECTION('ref_axis',(0.256427527789066,-7.26400066558329E-17,-0.966563460405983));
#857=DIRECTION('center_axis',(-2.83276944882392E-16,-1.,1.64921633642641E-30));
#858=DIRECTION('ref_axis',(0.256427527789066,-7.26400066558329E-17,-0.966563460405983));
#859=DIRECTION('center_axis',(2.83276944882392E-16,1.,-1.64921633642641E-30));
#860=DIRECTION('ref_axis',(0.256427527789066,-7.26400066558329E-17,-0.966563460405983));
#861=DIRECTION('',(-0.181321643782551,-0.707106781186547,0.683463577300205));
#862=DIRECTION('center_axis',(-2.83276944882392E-16,-1.,1.64921633642641E-30));
#863=DIRECTION('ref_axis',(0.256427527789066,-7.26400066558329E-17,-0.966563460405983));
#864=DIRECTION('center_axis',(2.83276944882392E-16,1.,-1.64921633642641E-30));
#865=DIRECTION('ref_axis',(0.256427527789066,-7.26400066558329E-17,-0.966563460405983));
#866=DIRECTION('center_axis',(-2.83276944882392E-16,-1.,1.64921633642641E-30));
#867=DIRECTION('ref_axis',(-0.256427527789066,7.26400066558329E-17,0.966563460405983));
#868=DIRECTION('center_axis',(-2.83276944882392E-16,-1.,1.64921633642641E-30));
#869=DIRECTION('ref_axis',(-0.256427527789066,7.26400066558329E-17,0.966563460405983));
#870=DIRECTION('',(-2.83276944882392E-16,-1.,1.64921633642641E-30));
#871=DIRECTION('center_axis',(2.83276944882392E-16,1.,-1.64921633642641E-30));
#872=DIRECTION('ref_axis',(-0.256427527789066,7.26400066558328E-17,0.966563460405983));
#873=DIRECTION('',(-0.256427527789066,7.26400066558329E-17,0.966563460405983));
#874=DIRECTION('',(-0.966563460405983,2.73805144098759E-16,-0.256427527789066));
#875=DIRECTION('',(0.256427527789066,-7.26400066558329E-17,-0.966563460405983));
#876=DIRECTION('center_axis',(2.83276944882392E-16,1.,-1.64921633642641E-30));
#877=DIRECTION('ref_axis',(0.256427527789066,-7.26400066558329E-17,-0.966563460405983));
#878=DIRECTION('center_axis',(2.83276944882392E-16,1.,-1.64921633642641E-30));
#879=DIRECTION('ref_axis',(-0.256427527789066,7.26400066558329E-17,0.966563460405983));
#880=DIRECTION('center_axis',(2.83276944882392E-16,1.,-1.64921633642641E-30));
#881=DIRECTION('ref_axis',(-0.256427527789066,7.26400066558329E-17,0.966563460405983));
#882=DIRECTION('',(-0.181321643782551,-0.707106781186548,0.683463577300205));
#883=DIRECTION('center_axis',(2.83276944882392E-16,1.,-1.64921633642641E-30));
#884=DIRECTION('ref_axis',(0.256427527789066,-7.26400066558329E-17,-0.966563460405983));
#885=DIRECTION('',(-0.966563460405983,2.73805144098759E-16,-0.256427527789066));
#886=DIRECTION('',(0.256427527789066,-7.26400066558328E-17,-0.966563460405983));
#887=DIRECTION('center_axis',(2.83276944882392E-16,1.,-1.64921633642641E-30));
#888=DIRECTION('ref_axis',(-0.256427527789066,7.26400066558328E-17,0.966563460405983));
#889=DIRECTION('',(0.256427527789066,-7.26400066558329E-17,-0.966563460405983));
#890=DIRECTION('center_axis',(2.83276944882392E-16,1.,-1.64921633642641E-30));
#891=DIRECTION('ref_axis',(0.256427527789066,-7.26400066558329E-17,-0.966563460405983));
#892=DIRECTION('center_axis',(-2.83276944882392E-16,-1.,1.64921633642641E-30));
#893=DIRECTION('ref_axis',(0.256427527789066,-7.26400066558329E-17,-0.966563460405983));
#894=DIRECTION('',(-0.18132164378255,0.707106781186547,0.683463577300205));
#895=DIRECTION('center_axis',(2.83276944882392E-16,1.,-1.64921633642641E-30));
#896=DIRECTION('ref_axis',(0.256427527789066,-7.26400066558329E-17,-0.966563460405983));
#897=DIRECTION('center_axis',(2.83276944882392E-16,1.,-1.64921633642641E-30));
#898=DIRECTION('ref_axis',(0.256427527789066,-7.26400066558329E-17,-0.966563460405983));
#899=DIRECTION('',(-2.83276944882392E-16,-1.,1.64921633642641E-30));
#900=DIRECTION('center_axis',(2.83276944882392E-16,1.,-1.64921633642641E-30));
#901=DIRECTION('ref_axis',(-0.256427527789066,7.26400066558328E-17,0.966563460405983));
#902=DIRECTION('',(0.256427527789066,-7.26400066558329E-17,-0.966563460405983));
#903=DIRECTION('center_axis',(-2.83276944882392E-16,-1.,1.64921633642641E-30));
#904=DIRECTION('ref_axis',(0.256427527789066,-7.26400066558329E-17,-0.966563460405983));
#905=DIRECTION('',(-0.256427527789066,7.26400066558329E-17,0.966563460405983));
#906=DIRECTION('',(0.966563460405983,-2.73805144098759E-16,0.256427527789066));
#907=DIRECTION('center_axis',(2.83276944882392E-16,1.,-1.64921633642641E-30));
#908=DIRECTION('ref_axis',(0.256427527789066,-7.26400066558329E-17,-0.966563460405983));
#909=DIRECTION('center_axis',(-0.256427527789066,7.26400066558328E-17,0.966563460405983));
#910=DIRECTION('ref_axis',(0.966563460405983,-2.73805144098759E-16,0.256427527789066));
#911=DIRECTION('',(2.83276944882392E-16,1.,-1.64921633642641E-30));
#912=DIRECTION('',(-2.83276944882392E-16,-1.,1.64921633642641E-30));
#913=DIRECTION('center_axis',(0.966563460405983,-2.73805144098759E-16,0.256427527789066));
#914=DIRECTION('ref_axis',(0.256427527789066,-7.26400066558329E-17,-0.966563460405983));
#915=DIRECTION('',(-2.83276944882392E-16,-1.,1.64921633642641E-30));
#916=DIRECTION('',(-2.83276944882392E-16,-1.,1.64921633642641E-30));
#917=DIRECTION('',(-2.83276944882392E-16,-1.,1.64921633642641E-30));
#918=DIRECTION('center_axis',(0.256427527789066,-7.26400066558328E-17,-0.966563460405983));
#919=DIRECTION('ref_axis',(-0.966563460405983,2.73805144098759E-16,-0.256427527789066));
#920=DIRECTION('',(2.83276944882392E-16,1.,-1.64921633642641E-30));
#921=DIRECTION('center_axis',(2.83276944882392E-16,1.,-1.64921633642641E-30));
#922=DIRECTION('ref_axis',(-0.256427527789065,7.26400066558327E-17,0.966563460405983));
#923=DIRECTION('',(-2.83276944882392E-16,-1.,1.64921633642641E-30));
#924=DIRECTION('center_axis',(-0.966563460405983,2.73805144098759E-16,-0.256427527789066));
#925=DIRECTION('ref_axis',(-0.256427527789066,7.26400066558329E-17,0.966563460405983));
#926=DIRECTION('',(-2.83276944882392E-16,-1.,1.64921633642641E-30));
#927=DIRECTION('center_axis',(2.83276944882392E-16,1.,-1.64921633642641E-30));
#928=DIRECTION('ref_axis',(-0.256427527789065,7.26400066558327E-17,0.966563460405983));
#929=DIRECTION('center_axis',(0.256427527789066,-7.26400066558329E-17,-0.966563460405983));
#930=DIRECTION('ref_axis',(-0.966563460405983,2.73805144098759E-16,-0.256427527789066));
#931=CARTESIAN_POINT('',(0.,0.,0.));
#932=CARTESIAN_POINT('Origin',(139.860371499218,-249.500000149012,-287.575519304895));
#933=CARTESIAN_POINT('',(140.886081610375,-250.000000149012,-291.441773146519));
#934=CARTESIAN_POINT('Origin',(139.860371499218,-250.000000149012,-287.575519304895));
#935=CARTESIAN_POINT('',(140.629654082586,-249.000000149012,-290.475209686113));
#936=CARTESIAN_POINT('',(140.75786784648,-249.500000149012,-290.958491416316));
#937=CARTESIAN_POINT('Origin',(139.860371499218,-249.000000149012,-287.575519304895));
#938=CARTESIAN_POINT('Origin',(139.860371499218,-229.999999850988,-287.575519304895));
#939=CARTESIAN_POINT('',(140.629654082586,-240.,-290.475209686113));
#940=CARTESIAN_POINT('',(139.091088915851,-240.,-284.675828923677));
#941=CARTESIAN_POINT('Origin',(139.860371499218,-240.,-287.575519304895));
#942=CARTESIAN_POINT('',(140.629654082586,-229.999999850988,-290.475209686113));
#943=CARTESIAN_POINT('Origin',(139.860371499218,-240.,-287.575519304895));
#944=CARTESIAN_POINT('Origin',(147.051224176615,-250.000000149012,-275.682940032416));
#945=CARTESIAN_POINT('',(154.744049866258,-250.,-304.679843882806));
#946=CARTESIAN_POINT('',(135.412780658138,-250.,-309.808394438587));
#947=CARTESIAN_POINT('',(157.160458517273,-250.,-304.038775063333));
#948=CARTESIAN_POINT('',(147.051224032586,-250.,-275.682940070626));
#949=CARTESIAN_POINT('',(154.744049866258,-250.,-304.679843882806));
#950=CARTESIAN_POINT('',(127.719954824466,-250.,-280.811490626408));
#951=CARTESIAN_POINT('',(147.051224032586,-250.,-275.682940070626));
#952=CARTESIAN_POINT('',(135.412780658138,-250.,-309.808394438587));
#953=CARTESIAN_POINT('Origin',(130.678018481332,-240.,-290.011580857102));
#954=CARTESIAN_POINT('',(130.194736751129,-236.,-290.139794620996));
#955=CARTESIAN_POINT('Origin',(130.194736751129,-240.,-290.139794620996));
#956=CARTESIAN_POINT('',(131.161300211535,-237.,-289.883367093207));
#957=CARTESIAN_POINT('',(130.678018481332,-236.5,-290.011580857102));
#958=CARTESIAN_POINT('Origin',(131.161300211535,-240.,-289.883367093207));
#959=CARTESIAN_POINT('Origin',(149.526006247307,-240.,-285.011243988794));
#960=CARTESIAN_POINT('',(136.960681118,-237.,-288.344801888262));
#961=CARTESIAN_POINT('Origin',(139.860371499218,-240.,-287.575519304895));
#962=CARTESIAN_POINT('',(149.526006247307,-237.,-285.011243988794));
#963=CARTESIAN_POINT('Origin',(139.860371499218,-240.,-287.575519304895));
#964=CARTESIAN_POINT('Origin',(127.719954680437,-250.000000149011,-280.811490664618));
#965=CARTESIAN_POINT('',(135.412780658138,-230.,-309.808394438587));
#966=CARTESIAN_POINT('',(135.412780658138,-245.,-309.808394438587));
#967=CARTESIAN_POINT('',(127.719954824466,-230.,-280.811490626408));
#968=CARTESIAN_POINT('',(127.719954824466,-250.,-280.811490626408));
#969=CARTESIAN_POINT('',(135.412780658138,-230.,-309.808394438587));
#970=CARTESIAN_POINT('Origin',(139.860371499218,-230.499999850988,-287.575519304895));
#971=CARTESIAN_POINT('',(140.886081610375,-229.999999850988,-291.441773146519));
#972=CARTESIAN_POINT('Origin',(139.860371499218,-229.999999850988,-287.575519304895));
#973=CARTESIAN_POINT('',(140.629654082586,-230.999999850988,-290.475209686113));
#974=CARTESIAN_POINT('',(140.75786784648,-230.499999850988,-290.958491416316));
#975=CARTESIAN_POINT('Origin',(139.860371499218,-230.999999850988,-287.575519304895));
#976=CARTESIAN_POINT('Origin',(139.860371499218,-229.999999850988,-287.575519304895));
#977=CARTESIAN_POINT('',(140.629654082586,-229.999999850988,-290.475209686113));
#978=CARTESIAN_POINT('',(142.760061880436,-237.,-286.806236721528));
#979=CARTESIAN_POINT('Origin',(139.860371499218,-240.,-287.575519304895));
#980=CARTESIAN_POINT('Origin',(139.860371499218,-240.,-287.575519304895));
#981=CARTESIAN_POINT('Origin',(127.719954680437,-229.999999850988,-280.811490664618));
#982=CARTESIAN_POINT('',(154.744049866258,-230.,-304.679843882806));
#983=CARTESIAN_POINT('',(147.494823913213,-230.,-306.603050341224));
#984=CARTESIAN_POINT('',(147.051224032586,-230.,-275.682940070626));
#985=CARTESIAN_POINT('',(127.719954824466,-230.,-280.811490626408));
#986=CARTESIAN_POINT('',(154.744049866258,-230.,-304.679843882806));
#987=CARTESIAN_POINT('Origin',(149.042724517104,-240.,-285.139457752688));
#988=CARTESIAN_POINT('',(149.526006247307,-236.,-285.011243988794));
#989=CARTESIAN_POINT('Origin',(149.526006247307,-240.,-285.011243988794));
#990=CARTESIAN_POINT('',(148.559442786901,-237.,-285.267671516583));
#991=CARTESIAN_POINT('',(149.042724517104,-236.5,-285.139457752688));
#992=CARTESIAN_POINT('Origin',(148.559442786901,-240.,-285.267671516583));
#993=CARTESIAN_POINT('Origin',(149.526006247307,-240.,-285.011243988794));
#994=CARTESIAN_POINT('',(149.526006247307,-237.,-285.011243988794));
#995=CARTESIAN_POINT('Origin',(147.051224176615,-229.999999850988,-275.682940032416));
#996=CARTESIAN_POINT('',(154.744049866258,-235.,-304.679843882806));
#997=CARTESIAN_POINT('',(147.051224032586,-230.,-275.682940070626));
#998=CARTESIAN_POINT('Origin',(118.180830149163,-255.,-230.922981471667));
#999=CARTESIAN_POINT('',(117.651948373098,-272.,-228.929444334579));
#1000=CARTESIAN_POINT('Origin',(118.180830149163,-272.,-230.922981471667));
#1001=CARTESIAN_POINT('',(117.651948373098,-255.,-228.929444334579));
#1002=CARTESIAN_POINT('',(117.651948373098,-255.,-228.929444334579));
#1003=CARTESIAN_POINT('Origin',(118.180830149163,-255.,-230.922981471667));
#1004=CARTESIAN_POINT('Origin',(118.180830149163,-255.,-230.922981471667));
#1005=CARTESIAN_POINT('',(117.379494124822,-272.,-227.902470657898));
#1006=CARTESIAN_POINT('Origin',(118.180830149163,-272.,-230.922981471667));
#1007=CARTESIAN_POINT('',(117.379494124822,-255.,-227.902470657898));
#1008=CARTESIAN_POINT('',(117.379494124822,-255.,-227.902470657898));
#1009=CARTESIAN_POINT('Origin',(118.180830149163,-255.,-230.922981471667));
#1010=CARTESIAN_POINT('Origin',(118.180830149163,-272.,-230.922981471667));
#1011=CARTESIAN_POINT('Origin',(131.660667755156,-255.,-256.668018485854));
#1012=CARTESIAN_POINT('',(122.887137522436,-255.,-282.093628265353));
#1013=CARTESIAN_POINT('',(151.884041334616,-255.,-274.400802431681));
#1014=CARTESIAN_POINT('',(137.385589428526,-255.,-278.247215348517));
#1015=CARTESIAN_POINT('',(136.587785071039,-255.,-216.743956800265));
#1016=CARTESIAN_POINT('',(159.576867168288,-255.,-303.397706243861));
#1017=CARTESIAN_POINT('',(107.590881258859,-255.,-224.436782633937));
#1018=CARTESIAN_POINT('Origin',(122.089333164949,-255.,-220.590369717101));
#1019=CARTESIAN_POINT('',(107.590881258859,-255.,-224.436782633937));
#1020=CARTESIAN_POINT('',(128.424784364288,-255.,-224.972175249638));
#1021=CARTESIAN_POINT('Origin',(129.226120388629,-255.,-227.992686063407));
#1022=CARTESIAN_POINT('',(120.294340470426,-255.,-213.824425494259));
#1023=CARTESIAN_POINT('Origin',(122.089333164949,-255.,-220.590369717101));
#1024=CARTESIAN_POINT('Origin',(129.226120388629,-255.,-227.992686063407));
#1025=CARTESIAN_POINT('',(128.697238612564,-272.,-225.99914892632));
#1026=CARTESIAN_POINT('Origin',(129.226120388629,-272.,-227.992686063407));
#1027=CARTESIAN_POINT('',(128.697238612564,-255.,-225.99914892632));
#1028=CARTESIAN_POINT('',(128.697238612564,-255.,-225.99914892632));
#1029=CARTESIAN_POINT('Origin',(129.226120388629,-255.,-227.992686063407));
#1030=CARTESIAN_POINT('Origin',(129.226120388629,-255.,-227.992686063407));
#1031=CARTESIAN_POINT('',(128.424784364288,-272.,-224.972175249638));
#1032=CARTESIAN_POINT('Origin',(129.226120388629,-272.,-227.992686063407));
#1033=CARTESIAN_POINT('',(128.424784364288,-255.,-224.972175249638));
#1034=CARTESIAN_POINT('Origin',(129.226120388629,-272.,-227.992686063407));
#1035=CARTESIAN_POINT('Origin',(131.660667755156,-255.,-256.668018485854));
#1036=CARTESIAN_POINT('Origin',(122.089333164949,-255.,-220.590369717101));
#1037=CARTESIAN_POINT('',(120.294340470426,-250.,-213.824425494259));
#1038=CARTESIAN_POINT('',(120.294340470426,-255.,-213.824425494259));
#1039=CARTESIAN_POINT('Origin',(122.089333164949,-250.,-220.590369717101));
#1040=CARTESIAN_POINT('Origin',(122.089333164949,-250.,-220.590369717101));
#1041=CARTESIAN_POINT('',(121.320050581582,-250.,-217.690679335883));
#1042=CARTESIAN_POINT('Origin',(122.089333164949,-250.,-220.590369717101));
#1043=CARTESIAN_POINT('Origin',(122.089333164949,-234.5,-220.590369717101));
#1044=CARTESIAN_POINT('',(121.320050581582,-234.,-217.690679335883));
#1045=CARTESIAN_POINT('Origin',(122.089333164949,-234.,-220.590369717101));
#1046=CARTESIAN_POINT('',(121.063623053793,-235.,-216.724115875477));
#1047=CARTESIAN_POINT('',(121.191836817687,-234.5,-217.20739760568));
#1048=CARTESIAN_POINT('Origin',(122.089333164949,-235.,-220.590369717101));
#1049=CARTESIAN_POINT('Origin',(122.089333164949,-240.,-220.590369717101));
#1050=CARTESIAN_POINT('',(122.858615748316,-226.,-223.490060098319));
#1051=CARTESIAN_POINT('',(121.320050581582,-226.,-217.690679335883));
#1052=CARTESIAN_POINT('Origin',(122.089333164949,-226.,-220.590369717101));
#1053=CARTESIAN_POINT('Origin',(122.089333164949,-226.,-220.590369717101));
#1054=CARTESIAN_POINT('',(121.320050581582,-240.,-217.690679335883));
#1055=CARTESIAN_POINT('Origin',(122.089333164949,-235.,-220.590369717101));
#1056=CARTESIAN_POINT('',(111.437294175695,-235.,-238.935234540027));
#1057=CARTESIAN_POINT('',(107.590881258859,-235.,-224.436782633937));
#1058=CARTESIAN_POINT('',(119.085422307484,-235.,-267.763657355735));
#1059=CARTESIAN_POINT('',(140.434197987875,-235.,-231.242408706355));
#1060=CARTESIAN_POINT('',(111.437294175695,-235.,-238.935234540027));
#1061=CARTESIAN_POINT('',(136.587785071039,-235.,-216.743956800265));
#1062=CARTESIAN_POINT('',(136.587785071039,-235.,-216.743956800265));
#1063=CARTESIAN_POINT('Origin',(122.089333164949,-235.,-220.590369717101));
#1064=CARTESIAN_POINT('Origin',(122.089333164949,-225.5,-220.590369717101));
#1065=CARTESIAN_POINT('',(123.115043276105,-225.,-224.456623558725));
#1066=CARTESIAN_POINT('Origin',(122.089333164949,-225.,-220.590369717101));
#1067=CARTESIAN_POINT('',(122.986829512211,-225.5,-223.973341828522));
#1068=CARTESIAN_POINT('Origin',(131.660667755156,-225.,-256.668018485854));
#1069=CARTESIAN_POINT('',(151.884041334616,-225.,-274.400802431681));
#1070=CARTESIAN_POINT('',(122.887137522436,-225.,-282.093628265353));
#1071=CARTESIAN_POINT('',(137.385589428526,-225.,-278.247215348517));
#1072=CARTESIAN_POINT('',(107.590881258859,-225.,-224.436782633937));
#1073=CARTESIAN_POINT('',(107.590881258859,-225.,-224.436782633937));
#1074=CARTESIAN_POINT('',(136.587785071039,-225.,-216.743956800265));
#1075=CARTESIAN_POINT('Origin',(122.089333164949,-225.,-220.590369717101));
#1076=CARTESIAN_POINT('',(159.576867168288,-225.,-303.397706243861));
#1077=CARTESIAN_POINT('Origin',(122.089333164949,-245.5,-220.590369717101));
#1078=CARTESIAN_POINT('',(121.320050581582,-246.,-217.690679335883));
#1079=CARTESIAN_POINT('Origin',(122.089333164949,-246.,-220.590369717101));
#1080=CARTESIAN_POINT('',(121.063623053793,-245.,-216.724115875477));
#1081=CARTESIAN_POINT('',(121.191836817687,-245.5,-217.20739760568));
#1082=CARTESIAN_POINT('Origin',(122.089333164949,-245.,-220.590369717101));
#1083=CARTESIAN_POINT('Origin',(122.089333164949,-240.,-220.590369717101));
#1084=CARTESIAN_POINT('',(121.320050581582,-240.,-217.690679335883));
#1085=CARTESIAN_POINT('Origin',(122.089333164949,-245.,-220.590369717101));
#1086=CARTESIAN_POINT('',(107.590881258859,-245.,-224.436782633937));
#1087=CARTESIAN_POINT('',(111.437294175695,-245.,-238.935234540027));
#1088=CARTESIAN_POINT('',(119.085422307484,-245.,-267.763657355735));
#1089=CARTESIAN_POINT('',(136.587785071039,-245.,-216.743956800265));
#1090=CARTESIAN_POINT('Origin',(122.089333164949,-245.,-220.590369717101));
#1091=CARTESIAN_POINT('',(140.434197987875,-245.,-231.242408706355));
#1092=CARTESIAN_POINT('',(136.587785071039,-245.,-216.743956800265));
#1093=CARTESIAN_POINT('',(111.437294175695,-245.,-238.935234540027));
#1094=CARTESIAN_POINT('Origin',(131.660667755156,-255.,-256.668018485854));
#1095=CARTESIAN_POINT('Origin',(137.385589428526,-240.,-278.247215348517));
#1096=CARTESIAN_POINT('',(151.884041334616,-240.,-274.400802431681));
#1097=CARTESIAN_POINT('',(122.887137522436,-240.,-282.093628265353));
#1098=CARTESIAN_POINT('Origin',(136.587785071039,-240.,-216.743956800265));
#1099=CARTESIAN_POINT('',(136.587785071039,-225.,-216.743956800265));
#1100=CARTESIAN_POINT('',(140.434197987875,-240.,-231.242408706355));
#1101=CARTESIAN_POINT('',(136.587785071039,-225.,-216.743956800265));
#1102=CARTESIAN_POINT('Origin',(140.434197987875,-240.,-231.242408706355));
#1103=CARTESIAN_POINT('',(111.437294175695,-240.,-238.935234540027));
#1104=CARTESIAN_POINT('Origin',(122.089333164949,-240.,-220.590369717101));
#1105=CARTESIAN_POINT('',(107.590881258859,-240.,-224.436782633937));
#1106=CARTESIAN_POINT('Origin',(130.579963356108,-240.,-311.090532077532));
#1107=CARTESIAN_POINT('',(107.590881258859,-240.,-224.436782633937));
#1108=CARTESIAN_POINT('Origin',(122.089333164949,-240.,-220.590369717101));
#1109=CARTESIAN_POINT('Origin',(159.576867168288,-240.,-303.397706243861));
#1110=UNCERTAINTY_MEASURE_WITH_UNIT(LENGTH_MEASURE(0.01),#1114,
'DISTANCE_ACCURACY_VALUE',
'Maximum model space distance between geometric entities at asserted c
onnectivities');
#1111=UNCERTAINTY_MEASURE_WITH_UNIT(LENGTH_MEASURE(0.01),#1114,
'DISTANCE_ACCURACY_VALUE',
'Maximum model space distance between geometric entities at asserted c
onnectivities');
#1112=(
GEOMETRIC_REPRESENTATION_CONTEXT(3)
GLOBAL_UNCERTAINTY_ASSIGNED_CONTEXT((#1110))
GLOBAL_UNIT_ASSIGNED_CONTEXT((#1114,#1116,#1117))
REPRESENTATION_CONTEXT('','3D')
);
#1113=(
GEOMETRIC_REPRESENTATION_CONTEXT(3)
GLOBAL_UNCERTAINTY_ASSIGNED_CONTEXT((#1111))
GLOBAL_UNIT_ASSIGNED_CONTEXT((#1114,#1116,#1117))
REPRESENTATION_CONTEXT('','3D')
);
#1114=(
LENGTH_UNIT()
NAMED_UNIT(*)
SI_UNIT(.MILLI.,.METRE.)
);
#1115=(
LENGTH_UNIT()
NAMED_UNIT(*)
SI_UNIT($,.METRE.)
);
#1116=(
NAMED_UNIT(*)
PLANE_ANGLE_UNIT()
SI_UNIT($,.RADIAN.)
);
#1117=(
NAMED_UNIT(*)
SI_UNIT($,.STERADIAN.)
SOLID_ANGLE_UNIT()
);
#1118=SHAPE_DEFINITION_REPRESENTATION(#1119,#1120);
#1119=PRODUCT_DEFINITION_SHAPE('',$,#1122);
#1120=SHAPE_REPRESENTATION('',(#656),#1112);
#1121=PRODUCT_DEFINITION_CONTEXT('part definition',#1126,'design');
#1122=PRODUCT_DEFINITION('FusionComponent','FusionComponent',#1123,#1121);
#1123=PRODUCT_DEFINITION_FORMATION('',$,#1128);
#1124=PRODUCT_RELATED_PRODUCT_CATEGORY('FusionComponent',
'FusionComponent',(#1128));
#1125=APPLICATION_PROTOCOL_DEFINITION('international standard',
'automotive_design',2009,#1126);
#1126=APPLICATION_CONTEXT(
'Core Data for Automotive Mechanical Design Process');
#1127=PRODUCT_CONTEXT('part definition',#1126,'mechanical');
#1128=PRODUCT('FusionComponent','FusionComponent',$,(#1127));
#1129=PRESENTATION_STYLE_ASSIGNMENT((#1131));
#1130=PRESENTATION_STYLE_ASSIGNMENT((#1132));
#1131=SURFACE_STYLE_USAGE(.BOTH.,#1133);
#1132=SURFACE_STYLE_USAGE(.BOTH.,#1134);
#1133=SURFACE_SIDE_STYLE('',(#1135));
#1134=SURFACE_SIDE_STYLE('',(#1136));
#1135=SURFACE_STYLE_FILL_AREA(#1137);
#1136=SURFACE_STYLE_FILL_AREA(#1138);
#1137=FILL_AREA_STYLE('Steel - Satin',(#1139));
#1138=FILL_AREA_STYLE('Opaque(160,160,160)',(#1140));
#1139=FILL_AREA_STYLE_COLOUR('Steel - Satin',#1141);
#1140=FILL_AREA_STYLE_COLOUR('Opaque(160,160,160)',#1142);
#1141=COLOUR_RGB('Steel - Satin',0.627450980392157,0.627450980392157,0.627450980392157);
#1142=COLOUR_RGB('Opaque(160,160,160)',0.627450980392157,0.627450980392157,
0.627450980392157);
ENDSEC;
END-ISO-10303-21;
