ISO-10303-21;
HEADER;
/* Generated by software containing ST-Developer
 * from STEP Tools, Inc. (www.steptools.com) 
 */

FILE_DESCRIPTION(
/* description */ (''),
/* implementation_level */ '2;1');

FILE_NAME(
/* name */ 'Component6.step',
/* time_stamp */ '2025-12-18T20:54:48+02:00',
/* author */ (''),
/* organization */ (''),
/* preprocessor_version */ 'ST-DEVELOPER v20.1',
/* originating_system */ 'Autodesk Translation Framework v14.21.0.0',
/* authorisation */ '');

FILE_SCHEMA (('AUTOMOTIVE_DESIGN { 1 0 10303 214 3 1 1 }'));
ENDSEC;

DATA;
#10=MECHANICAL_DESIGN_GEOMETRIC_PRESENTATION_REPRESENTATION('',(#13),#814);
#11=SHAPE_REPRESENTATION_RELATIONSHIP('SRR','None',#821,#12);
#12=ADVANCED_BREP_SHAPE_REPRESENTATION('',(#14),#813);
#13=STYLED_ITEM('',(#831),#14);
#14=MANIFOLD_SOLID_BREP('Body1',#483);
#15=FACE_BOUND('',#75,.T.);
#16=FACE_BOUND('',#79,.T.);
#17=FACE_BOUND('',#83,.T.);
#18=FACE_BOUND('',#87,.T.);
#19=FACE_BOUND('',#91,.T.);
#20=FACE_BOUND('',#94,.T.);
#21=FACE_BOUND('',#96,.T.);
#22=FACE_BOUND('',#98,.T.);
#23=FACE_BOUND('',#100,.T.);
#24=FACE_BOUND('',#102,.T.);
#25=FACE_BOUND('',#108,.T.);
#26=PLANE('',#503);
#27=PLANE('',#510);
#28=PLANE('',#516);
#29=PLANE('',#522);
#30=PLANE('',#528);
#31=PLANE('',#531);
#32=PLANE('',#533);
#33=PLANE('',#534);
#34=PLANE('',#535);
#35=PLANE('',#536);
#36=PLANE('',#537);
#37=PLANE('',#538);
#38=PLANE('',#540);
#39=PLANE('',#541);
#40=CYLINDRICAL_SURFACE('',#501,3.);
#41=CYLINDRICAL_SURFACE('',#508,3.00000000000001);
#42=CYLINDRICAL_SURFACE('',#514,3.00000000000001);
#43=CYLINDRICAL_SURFACE('',#520,3.00000000000001);
#44=CYLINDRICAL_SURFACE('',#526,3.00000000000001);
#45=CYLINDRICAL_SURFACE('',#539,15.);
#46=FACE_OUTER_BOUND('',#72,.T.);
#47=FACE_OUTER_BOUND('',#73,.T.);
#48=FACE_OUTER_BOUND('',#74,.T.);
#49=FACE_OUTER_BOUND('',#76,.T.);
#50=FACE_OUTER_BOUND('',#77,.T.);
#51=FACE_OUTER_BOUND('',#78,.T.);
#52=FACE_OUTER_BOUND('',#80,.T.);
#53=FACE_OUTER_BOUND('',#81,.T.);
#54=FACE_OUTER_BOUND('',#82,.T.);
#55=FACE_OUTER_BOUND('',#84,.T.);
#56=FACE_OUTER_BOUND('',#85,.T.);
#57=FACE_OUTER_BOUND('',#86,.T.);
#58=FACE_OUTER_BOUND('',#88,.T.);
#59=FACE_OUTER_BOUND('',#89,.T.);
#60=FACE_OUTER_BOUND('',#90,.T.);
#61=FACE_OUTER_BOUND('',#92,.T.);
#62=FACE_OUTER_BOUND('',#93,.T.);
#63=FACE_OUTER_BOUND('',#95,.T.);
#64=FACE_OUTER_BOUND('',#97,.T.);
#65=FACE_OUTER_BOUND('',#99,.T.);
#66=FACE_OUTER_BOUND('',#101,.T.);
#67=FACE_OUTER_BOUND('',#103,.T.);
#68=FACE_OUTER_BOUND('',#104,.T.);
#69=FACE_OUTER_BOUND('',#105,.T.);
#70=FACE_OUTER_BOUND('',#106,.T.);
#71=FACE_OUTER_BOUND('',#107,.T.);
#72=EDGE_LOOP('',(#323,#324,#325,#326,#327));
#73=EDGE_LOOP('',(#328,#329,#330,#331,#332));
#74=EDGE_LOOP('',(#333,#334,#335,#336));
#75=EDGE_LOOP('',(#337));
#76=EDGE_LOOP('',(#338,#339,#340,#341));
#77=EDGE_LOOP('',(#342,#343,#344,#345));
#78=EDGE_LOOP('',(#346,#347,#348,#349));
#79=EDGE_LOOP('',(#350));
#80=EDGE_LOOP('',(#351,#352,#353,#354));
#81=EDGE_LOOP('',(#355,#356,#357,#358));
#82=EDGE_LOOP('',(#359,#360,#361,#362,#363,#364,#365,#366));
#83=EDGE_LOOP('',(#367));
#84=EDGE_LOOP('',(#368,#369,#370,#371));
#85=EDGE_LOOP('',(#372,#373,#374,#375));
#86=EDGE_LOOP('',(#376,#377,#378,#379,#380,#381,#382,#383));
#87=EDGE_LOOP('',(#384));
#88=EDGE_LOOP('',(#385,#386,#387,#388));
#89=EDGE_LOOP('',(#389,#390,#391,#392));
#90=EDGE_LOOP('',(#393,#394,#395,#396));
#91=EDGE_LOOP('',(#397));
#92=EDGE_LOOP('',(#398,#399,#400,#401));
#93=EDGE_LOOP('',(#402,#403,#404,#405));
#94=EDGE_LOOP('',(#406));
#95=EDGE_LOOP('',(#407,#408,#409,#410));
#96=EDGE_LOOP('',(#411));
#97=EDGE_LOOP('',(#412,#413,#414,#415));
#98=EDGE_LOOP('',(#416));
#99=EDGE_LOOP('',(#417,#418,#419,#420));
#100=EDGE_LOOP('',(#421));
#101=EDGE_LOOP('',(#422,#423,#424,#425));
#102=EDGE_LOOP('',(#426));
#103=EDGE_LOOP('',(#427,#428,#429,#430));
#104=EDGE_LOOP('',(#431,#432,#433,#434));
#105=EDGE_LOOP('',(#435,#436,#437,#438));
#106=EDGE_LOOP('',(#439,#440,#441,#442));
#107=EDGE_LOOP('',(#443,#444,#445,#446));
#108=EDGE_LOOP('',(#447,#448,#449,#450));
#109=LINE('',#686,#154);
#110=LINE('',#691,#155);
#111=LINE('',#695,#156);
#112=LINE('',#699,#157);
#113=LINE('',#700,#158);
#114=LINE('',#705,#159);
#115=LINE('',#710,#160);
#116=LINE('',#714,#161);
#117=LINE('',#716,#162);
#118=LINE('',#718,#163);
#119=LINE('',#719,#164);
#120=LINE('',#724,#165);
#121=LINE('',#729,#166);
#122=LINE('',#733,#167);
#123=LINE('',#735,#168);
#124=LINE('',#736,#169);
#125=LINE('',#737,#170);
#126=LINE('',#739,#171);
#127=LINE('',#740,#172);
#128=LINE('',#745,#173);
#129=LINE('',#749,#174);
#130=LINE('',#754,#175);
#131=LINE('',#756,#176);
#132=LINE('',#757,#177);
#133=LINE('',#758,#178);
#134=LINE('',#760,#179);
#135=LINE('',#761,#180);
#136=LINE('',#766,#181);
#137=LINE('',#770,#182);
#138=LINE('',#773,#183);
#139=LINE('',#774,#184);
#140=LINE('',#777,#185);
#141=LINE('',#781,#186);
#142=LINE('',#785,#187);
#143=LINE('',#787,#188);
#144=LINE('',#789,#189);
#145=LINE('',#790,#190);
#146=LINE('',#793,#191);
#147=LINE('',#795,#192);
#148=LINE('',#796,#193);
#149=LINE('',#799,#194);
#150=LINE('',#801,#195);
#151=LINE('',#802,#196);
#152=LINE('',#804,#197);
#153=LINE('',#805,#198);
#154=VECTOR('',#550,3.5);
#155=VECTOR('',#557,3.);
#156=VECTOR('',#560,10.);
#157=VECTOR('',#563,10.);
#158=VECTOR('',#564,10.);
#159=VECTOR('',#569,3.50000000000001);
#160=VECTOR('',#576,3.00000000000001);
#161=VECTOR('',#579,10.);
#162=VECTOR('',#580,10.);
#163=VECTOR('',#581,10.);
#164=VECTOR('',#582,10.);
#165=VECTOR('',#587,3.50000000000001);
#166=VECTOR('',#594,3.00000000000001);
#167=VECTOR('',#597,10.);
#168=VECTOR('',#598,10.);
#169=VECTOR('',#599,10.);
#170=VECTOR('',#600,10.);
#171=VECTOR('',#601,10.);
#172=VECTOR('',#602,10.);
#173=VECTOR('',#607,3.50000000000001);
#174=VECTOR('',#612,3.00000000000001);
#175=VECTOR('',#617,10.);
#176=VECTOR('',#618,10.);
#177=VECTOR('',#619,10.);
#178=VECTOR('',#620,10.);
#179=VECTOR('',#621,10.);
#180=VECTOR('',#622,10.);
#181=VECTOR('',#627,3.50000000000001);
#182=VECTOR('',#632,3.00000000000001);
#183=VECTOR('',#637,10.);
#184=VECTOR('',#638,10.);
#185=VECTOR('',#641,3.5);
#186=VECTOR('',#648,10.);
#187=VECTOR('',#651,10.);
#188=VECTOR('',#652,10.);
#189=VECTOR('',#653,10.);
#190=VECTOR('',#654,10.);
#191=VECTOR('',#657,10.);
#192=VECTOR('',#658,10.);
#193=VECTOR('',#659,10.);
#194=VECTOR('',#662,10.);
#195=VECTOR('',#663,10.);
#196=VECTOR('',#664,10.);
#197=VECTOR('',#667,10.);
#198=VECTOR('',#668,10.);
#199=CIRCLE('',#498,3.);
#200=CIRCLE('',#499,3.);
#201=CIRCLE('',#500,4.00000000000001);
#202=CIRCLE('',#502,3.);
#203=CIRCLE('',#504,15.);
#204=CIRCLE('',#506,4.00000000000001);
#205=CIRCLE('',#507,3.00000000000001);
#206=CIRCLE('',#509,3.00000000000001);
#207=CIRCLE('',#512,4.00000000000001);
#208=CIRCLE('',#513,3.00000000000001);
#209=CIRCLE('',#515,3.00000000000001);
#210=CIRCLE('',#518,4.00000000000001);
#211=CIRCLE('',#519,3.00000000000001);
#212=CIRCLE('',#521,3.00000000000001);
#213=CIRCLE('',#524,4.00000000000001);
#214=CIRCLE('',#525,3.00000000000001);
#215=CIRCLE('',#527,3.00000000000001);
#216=CIRCLE('',#530,4.00000000000001);
#217=CIRCLE('',#532,15.);
#218=VERTEX_POINT('',#681);
#219=VERTEX_POINT('',#682);
#220=VERTEX_POINT('',#685);
#221=VERTEX_POINT('',#689);
#222=VERTEX_POINT('',#693);
#223=VERTEX_POINT('',#694);
#224=VERTEX_POINT('',#696);
#225=VERTEX_POINT('',#698);
#226=VERTEX_POINT('',#702);
#227=VERTEX_POINT('',#704);
#228=VERTEX_POINT('',#708);
#229=VERTEX_POINT('',#712);
#230=VERTEX_POINT('',#713);
#231=VERTEX_POINT('',#715);
#232=VERTEX_POINT('',#717);
#233=VERTEX_POINT('',#721);
#234=VERTEX_POINT('',#723);
#235=VERTEX_POINT('',#727);
#236=VERTEX_POINT('',#731);
#237=VERTEX_POINT('',#732);
#238=VERTEX_POINT('',#734);
#239=VERTEX_POINT('',#738);
#240=VERTEX_POINT('',#742);
#241=VERTEX_POINT('',#744);
#242=VERTEX_POINT('',#748);
#243=VERTEX_POINT('',#752);
#244=VERTEX_POINT('',#753);
#245=VERTEX_POINT('',#755);
#246=VERTEX_POINT('',#759);
#247=VERTEX_POINT('',#763);
#248=VERTEX_POINT('',#765);
#249=VERTEX_POINT('',#769);
#250=VERTEX_POINT('',#776);
#251=VERTEX_POINT('',#783);
#252=VERTEX_POINT('',#784);
#253=VERTEX_POINT('',#786);
#254=VERTEX_POINT('',#788);
#255=VERTEX_POINT('',#792);
#256=VERTEX_POINT('',#794);
#257=VERTEX_POINT('',#798);
#258=VERTEX_POINT('',#800);
#259=EDGE_CURVE('',#218,#219,#199,.T.);
#260=EDGE_CURVE('',#219,#218,#200,.T.);
#261=EDGE_CURVE('',#218,#220,#109,.T.);
#262=EDGE_CURVE('',#220,#220,#201,.T.);
#263=EDGE_CURVE('',#221,#221,#202,.T.);
#264=EDGE_CURVE('',#221,#219,#110,.T.);
#265=EDGE_CURVE('',#222,#223,#111,.T.);
#266=EDGE_CURVE('',#224,#222,#203,.T.);
#267=EDGE_CURVE('',#225,#224,#112,.T.);
#268=EDGE_CURVE('',#223,#225,#113,.T.);
#269=EDGE_CURVE('',#226,#226,#204,.T.);
#270=EDGE_CURVE('',#226,#227,#114,.T.);
#271=EDGE_CURVE('',#227,#227,#205,.T.);
#272=EDGE_CURVE('',#228,#228,#206,.T.);
#273=EDGE_CURVE('',#228,#227,#115,.T.);
#274=EDGE_CURVE('',#229,#230,#116,.T.);
#275=EDGE_CURVE('',#230,#231,#117,.T.);
#276=EDGE_CURVE('',#231,#232,#118,.T.);
#277=EDGE_CURVE('',#232,#229,#119,.T.);
#278=EDGE_CURVE('',#233,#233,#207,.T.);
#279=EDGE_CURVE('',#233,#234,#120,.T.);
#280=EDGE_CURVE('',#234,#234,#208,.T.);
#281=EDGE_CURVE('',#235,#235,#209,.T.);
#282=EDGE_CURVE('',#235,#234,#121,.T.);
#283=EDGE_CURVE('',#236,#237,#122,.T.);
#284=EDGE_CURVE('',#237,#238,#123,.T.);
#285=EDGE_CURVE('',#222,#238,#124,.T.);
#286=EDGE_CURVE('',#223,#229,#125,.T.);
#287=EDGE_CURVE('',#232,#239,#126,.T.);
#288=EDGE_CURVE('',#236,#239,#127,.T.);
#289=EDGE_CURVE('',#240,#240,#210,.T.);
#290=EDGE_CURVE('',#240,#241,#128,.T.);
#291=EDGE_CURVE('',#241,#241,#211,.T.);
#292=EDGE_CURVE('',#241,#242,#129,.T.);
#293=EDGE_CURVE('',#242,#242,#212,.T.);
#294=EDGE_CURVE('',#243,#244,#130,.T.);
#295=EDGE_CURVE('',#245,#244,#131,.T.);
#296=EDGE_CURVE('',#231,#245,#132,.T.);
#297=EDGE_CURVE('',#230,#225,#133,.T.);
#298=EDGE_CURVE('',#246,#224,#134,.T.);
#299=EDGE_CURVE('',#246,#243,#135,.T.);
#300=EDGE_CURVE('',#247,#247,#213,.T.);
#301=EDGE_CURVE('',#247,#248,#136,.T.);
#302=EDGE_CURVE('',#248,#248,#214,.T.);
#303=EDGE_CURVE('',#248,#249,#137,.T.);
#304=EDGE_CURVE('',#249,#249,#215,.T.);
#305=EDGE_CURVE('',#244,#236,#138,.T.);
#306=EDGE_CURVE('',#239,#245,#139,.T.);
#307=EDGE_CURVE('',#221,#250,#140,.T.);
#308=EDGE_CURVE('',#250,#250,#216,.T.);
#309=EDGE_CURVE('',#238,#246,#217,.T.);
#310=EDGE_CURVE('',#243,#237,#141,.T.);
#311=EDGE_CURVE('',#251,#252,#142,.T.);
#312=EDGE_CURVE('',#251,#253,#143,.T.);
#313=EDGE_CURVE('',#253,#254,#144,.T.);
#314=EDGE_CURVE('',#252,#254,#145,.T.);
#315=EDGE_CURVE('',#255,#251,#146,.T.);
#316=EDGE_CURVE('',#255,#256,#147,.T.);
#317=EDGE_CURVE('',#256,#253,#148,.T.);
#318=EDGE_CURVE('',#257,#255,#149,.T.);
#319=EDGE_CURVE('',#257,#258,#150,.T.);
#320=EDGE_CURVE('',#258,#256,#151,.T.);
#321=EDGE_CURVE('',#252,#257,#152,.T.);
#322=EDGE_CURVE('',#254,#258,#153,.T.);
#323=ORIENTED_EDGE('',*,*,#259,.T.);
#324=ORIENTED_EDGE('',*,*,#260,.T.);
#325=ORIENTED_EDGE('',*,*,#261,.T.);
#326=ORIENTED_EDGE('',*,*,#262,.T.);
#327=ORIENTED_EDGE('',*,*,#261,.F.);
#328=ORIENTED_EDGE('',*,*,#263,.F.);
#329=ORIENTED_EDGE('',*,*,#264,.T.);
#330=ORIENTED_EDGE('',*,*,#259,.F.);
#331=ORIENTED_EDGE('',*,*,#260,.F.);
#332=ORIENTED_EDGE('',*,*,#264,.F.);
#333=ORIENTED_EDGE('',*,*,#265,.F.);
#334=ORIENTED_EDGE('',*,*,#266,.F.);
#335=ORIENTED_EDGE('',*,*,#267,.F.);
#336=ORIENTED_EDGE('',*,*,#268,.F.);
#337=ORIENTED_EDGE('',*,*,#262,.F.);
#338=ORIENTED_EDGE('',*,*,#269,.T.);
#339=ORIENTED_EDGE('',*,*,#270,.T.);
#340=ORIENTED_EDGE('',*,*,#271,.T.);
#341=ORIENTED_EDGE('',*,*,#270,.F.);
#342=ORIENTED_EDGE('',*,*,#272,.F.);
#343=ORIENTED_EDGE('',*,*,#273,.T.);
#344=ORIENTED_EDGE('',*,*,#271,.F.);
#345=ORIENTED_EDGE('',*,*,#273,.F.);
#346=ORIENTED_EDGE('',*,*,#274,.T.);
#347=ORIENTED_EDGE('',*,*,#275,.T.);
#348=ORIENTED_EDGE('',*,*,#276,.T.);
#349=ORIENTED_EDGE('',*,*,#277,.T.);
#350=ORIENTED_EDGE('',*,*,#269,.F.);
#351=ORIENTED_EDGE('',*,*,#278,.T.);
#352=ORIENTED_EDGE('',*,*,#279,.T.);
#353=ORIENTED_EDGE('',*,*,#280,.T.);
#354=ORIENTED_EDGE('',*,*,#279,.F.);
#355=ORIENTED_EDGE('',*,*,#281,.F.);
#356=ORIENTED_EDGE('',*,*,#282,.T.);
#357=ORIENTED_EDGE('',*,*,#280,.F.);
#358=ORIENTED_EDGE('',*,*,#282,.F.);
#359=ORIENTED_EDGE('',*,*,#283,.T.);
#360=ORIENTED_EDGE('',*,*,#284,.T.);
#361=ORIENTED_EDGE('',*,*,#285,.F.);
#362=ORIENTED_EDGE('',*,*,#265,.T.);
#363=ORIENTED_EDGE('',*,*,#286,.T.);
#364=ORIENTED_EDGE('',*,*,#277,.F.);
#365=ORIENTED_EDGE('',*,*,#287,.T.);
#366=ORIENTED_EDGE('',*,*,#288,.F.);
#367=ORIENTED_EDGE('',*,*,#278,.F.);
#368=ORIENTED_EDGE('',*,*,#289,.T.);
#369=ORIENTED_EDGE('',*,*,#290,.T.);
#370=ORIENTED_EDGE('',*,*,#291,.T.);
#371=ORIENTED_EDGE('',*,*,#290,.F.);
#372=ORIENTED_EDGE('',*,*,#291,.F.);
#373=ORIENTED_EDGE('',*,*,#292,.T.);
#374=ORIENTED_EDGE('',*,*,#293,.F.);
#375=ORIENTED_EDGE('',*,*,#292,.F.);
#376=ORIENTED_EDGE('',*,*,#294,.T.);
#377=ORIENTED_EDGE('',*,*,#295,.F.);
#378=ORIENTED_EDGE('',*,*,#296,.F.);
#379=ORIENTED_EDGE('',*,*,#275,.F.);
#380=ORIENTED_EDGE('',*,*,#297,.T.);
#381=ORIENTED_EDGE('',*,*,#267,.T.);
#382=ORIENTED_EDGE('',*,*,#298,.F.);
#383=ORIENTED_EDGE('',*,*,#299,.T.);
#384=ORIENTED_EDGE('',*,*,#289,.F.);
#385=ORIENTED_EDGE('',*,*,#300,.T.);
#386=ORIENTED_EDGE('',*,*,#301,.T.);
#387=ORIENTED_EDGE('',*,*,#302,.T.);
#388=ORIENTED_EDGE('',*,*,#301,.F.);
#389=ORIENTED_EDGE('',*,*,#302,.F.);
#390=ORIENTED_EDGE('',*,*,#303,.T.);
#391=ORIENTED_EDGE('',*,*,#304,.F.);
#392=ORIENTED_EDGE('',*,*,#303,.F.);
#393=ORIENTED_EDGE('',*,*,#305,.T.);
#394=ORIENTED_EDGE('',*,*,#288,.T.);
#395=ORIENTED_EDGE('',*,*,#306,.T.);
#396=ORIENTED_EDGE('',*,*,#295,.T.);
#397=ORIENTED_EDGE('',*,*,#300,.F.);
#398=ORIENTED_EDGE('',*,*,#263,.T.);
#399=ORIENTED_EDGE('',*,*,#307,.T.);
#400=ORIENTED_EDGE('',*,*,#308,.T.);
#401=ORIENTED_EDGE('',*,*,#307,.F.);
#402=ORIENTED_EDGE('',*,*,#309,.F.);
#403=ORIENTED_EDGE('',*,*,#284,.F.);
#404=ORIENTED_EDGE('',*,*,#310,.F.);
#405=ORIENTED_EDGE('',*,*,#299,.F.);
#406=ORIENTED_EDGE('',*,*,#308,.F.);
#407=ORIENTED_EDGE('',*,*,#311,.F.);
#408=ORIENTED_EDGE('',*,*,#312,.T.);
#409=ORIENTED_EDGE('',*,*,#313,.T.);
#410=ORIENTED_EDGE('',*,*,#314,.F.);
#411=ORIENTED_EDGE('',*,*,#272,.T.);
#412=ORIENTED_EDGE('',*,*,#315,.F.);
#413=ORIENTED_EDGE('',*,*,#316,.T.);
#414=ORIENTED_EDGE('',*,*,#317,.T.);
#415=ORIENTED_EDGE('',*,*,#312,.F.);
#416=ORIENTED_EDGE('',*,*,#293,.T.);
#417=ORIENTED_EDGE('',*,*,#318,.F.);
#418=ORIENTED_EDGE('',*,*,#319,.T.);
#419=ORIENTED_EDGE('',*,*,#320,.T.);
#420=ORIENTED_EDGE('',*,*,#316,.F.);
#421=ORIENTED_EDGE('',*,*,#304,.T.);
#422=ORIENTED_EDGE('',*,*,#321,.F.);
#423=ORIENTED_EDGE('',*,*,#314,.T.);
#424=ORIENTED_EDGE('',*,*,#322,.T.);
#425=ORIENTED_EDGE('',*,*,#319,.F.);
#426=ORIENTED_EDGE('',*,*,#281,.T.);
#427=ORIENTED_EDGE('',*,*,#322,.F.);
#428=ORIENTED_EDGE('',*,*,#313,.F.);
#429=ORIENTED_EDGE('',*,*,#317,.F.);
#430=ORIENTED_EDGE('',*,*,#320,.F.);
#431=ORIENTED_EDGE('',*,*,#305,.F.);
#432=ORIENTED_EDGE('',*,*,#294,.F.);
#433=ORIENTED_EDGE('',*,*,#310,.T.);
#434=ORIENTED_EDGE('',*,*,#283,.F.);
#435=ORIENTED_EDGE('',*,*,#309,.T.);
#436=ORIENTED_EDGE('',*,*,#298,.T.);
#437=ORIENTED_EDGE('',*,*,#266,.T.);
#438=ORIENTED_EDGE('',*,*,#285,.T.);
#439=ORIENTED_EDGE('',*,*,#274,.F.);
#440=ORIENTED_EDGE('',*,*,#286,.F.);
#441=ORIENTED_EDGE('',*,*,#268,.T.);
#442=ORIENTED_EDGE('',*,*,#297,.F.);
#443=ORIENTED_EDGE('',*,*,#296,.T.);
#444=ORIENTED_EDGE('',*,*,#306,.F.);
#445=ORIENTED_EDGE('',*,*,#287,.F.);
#446=ORIENTED_EDGE('',*,*,#276,.F.);
#447=ORIENTED_EDGE('',*,*,#311,.T.);
#448=ORIENTED_EDGE('',*,*,#321,.T.);
#449=ORIENTED_EDGE('',*,*,#318,.T.);
#450=ORIENTED_EDGE('',*,*,#315,.T.);
#451=CONICAL_SURFACE('',#497,3.50000000000001,0.785398163397448);
#452=CONICAL_SURFACE('',#505,3.50000000000001,0.785398163397446);
#453=CONICAL_SURFACE('',#511,3.50000000000001,0.785398163397448);
#454=CONICAL_SURFACE('',#517,3.50000000000001,0.785398163397448);
#455=CONICAL_SURFACE('',#523,3.50000000000001,0.785398163397446);
#456=CONICAL_SURFACE('',#529,3.50000000000001,0.785398163397448);
#457=ADVANCED_FACE('',(#46),#451,.F.);
#458=ADVANCED_FACE('',(#47),#40,.F.);
#459=ADVANCED_FACE('',(#48,#15),#26,.T.);
#460=ADVANCED_FACE('',(#49),#452,.F.);
#461=ADVANCED_FACE('',(#50),#41,.F.);
#462=ADVANCED_FACE('',(#51,#16),#27,.F.);
#463=ADVANCED_FACE('',(#52),#453,.F.);
#464=ADVANCED_FACE('',(#53),#42,.F.);
#465=ADVANCED_FACE('',(#54,#17),#28,.T.);
#466=ADVANCED_FACE('',(#55),#454,.F.);
#467=ADVANCED_FACE('',(#56),#43,.F.);
#468=ADVANCED_FACE('',(#57,#18),#29,.T.);
#469=ADVANCED_FACE('',(#58),#455,.F.);
#470=ADVANCED_FACE('',(#59),#44,.F.);
#471=ADVANCED_FACE('',(#60,#19),#30,.T.);
#472=ADVANCED_FACE('',(#61),#456,.F.);
#473=ADVANCED_FACE('',(#62,#20),#31,.T.);
#474=ADVANCED_FACE('',(#63,#21),#32,.F.);
#475=ADVANCED_FACE('',(#64,#22),#33,.F.);
#476=ADVANCED_FACE('',(#65,#23),#34,.F.);
#477=ADVANCED_FACE('',(#66,#24),#35,.F.);
#478=ADVANCED_FACE('',(#67),#36,.F.);
#479=ADVANCED_FACE('',(#68),#37,.F.);
#480=ADVANCED_FACE('',(#69),#45,.T.);
#481=ADVANCED_FACE('',(#70),#38,.F.);
#482=ADVANCED_FACE('',(#71,#25),#39,.T.);
#483=CLOSED_SHELL('',(#457,#458,#459,#460,#461,#462,#463,#464,#465,#466,
#467,#468,#469,#470,#471,#472,#473,#474,#475,#476,#477,#478,#479,#480,#481,
#482));
#484=DERIVED_UNIT_ELEMENT(#486,1.);
#485=DERIVED_UNIT_ELEMENT(#816,-3.);
#486=(
MASS_UNIT()
NAMED_UNIT(*)
SI_UNIT(.KILO.,.GRAM.)
);
#487=DERIVED_UNIT((#484,#485));
#488=MEASURE_REPRESENTATION_ITEM('density measure',
POSITIVE_RATIO_MEASURE(7850.),#487);
#489=PROPERTY_DEFINITION_REPRESENTATION(#494,#491);
#490=PROPERTY_DEFINITION_REPRESENTATION(#495,#492);
#491=REPRESENTATION('material name',(#493),#813);
#492=REPRESENTATION('density',(#488),#813);
#493=DESCRIPTIVE_REPRESENTATION_ITEM('Steel','Steel');
#494=PROPERTY_DEFINITION('material property','material name',#823);
#495=PROPERTY_DEFINITION('material property','density of part',#823);
#496=AXIS2_PLACEMENT_3D('',#679,#542,#543);
#497=AXIS2_PLACEMENT_3D('',#680,#544,#545);
#498=AXIS2_PLACEMENT_3D('',#683,#546,#547);
#499=AXIS2_PLACEMENT_3D('',#684,#548,#549);
#500=AXIS2_PLACEMENT_3D('',#687,#551,#552);
#501=AXIS2_PLACEMENT_3D('',#688,#553,#554);
#502=AXIS2_PLACEMENT_3D('',#690,#555,#556);
#503=AXIS2_PLACEMENT_3D('',#692,#558,#559);
#504=AXIS2_PLACEMENT_3D('',#697,#561,#562);
#505=AXIS2_PLACEMENT_3D('',#701,#565,#566);
#506=AXIS2_PLACEMENT_3D('',#703,#567,#568);
#507=AXIS2_PLACEMENT_3D('',#706,#570,#571);
#508=AXIS2_PLACEMENT_3D('',#707,#572,#573);
#509=AXIS2_PLACEMENT_3D('',#709,#574,#575);
#510=AXIS2_PLACEMENT_3D('',#711,#577,#578);
#511=AXIS2_PLACEMENT_3D('',#720,#583,#584);
#512=AXIS2_PLACEMENT_3D('',#722,#585,#586);
#513=AXIS2_PLACEMENT_3D('',#725,#588,#589);
#514=AXIS2_PLACEMENT_3D('',#726,#590,#591);
#515=AXIS2_PLACEMENT_3D('',#728,#592,#593);
#516=AXIS2_PLACEMENT_3D('',#730,#595,#596);
#517=AXIS2_PLACEMENT_3D('',#741,#603,#604);
#518=AXIS2_PLACEMENT_3D('',#743,#605,#606);
#519=AXIS2_PLACEMENT_3D('',#746,#608,#609);
#520=AXIS2_PLACEMENT_3D('',#747,#610,#611);
#521=AXIS2_PLACEMENT_3D('',#750,#613,#614);
#522=AXIS2_PLACEMENT_3D('',#751,#615,#616);
#523=AXIS2_PLACEMENT_3D('',#762,#623,#624);
#524=AXIS2_PLACEMENT_3D('',#764,#625,#626);
#525=AXIS2_PLACEMENT_3D('',#767,#628,#629);
#526=AXIS2_PLACEMENT_3D('',#768,#630,#631);
#527=AXIS2_PLACEMENT_3D('',#771,#633,#634);
#528=AXIS2_PLACEMENT_3D('',#772,#635,#636);
#529=AXIS2_PLACEMENT_3D('',#775,#639,#640);
#530=AXIS2_PLACEMENT_3D('',#778,#642,#643);
#531=AXIS2_PLACEMENT_3D('',#779,#644,#645);
#532=AXIS2_PLACEMENT_3D('',#780,#646,#647);
#533=AXIS2_PLACEMENT_3D('',#782,#649,#650);
#534=AXIS2_PLACEMENT_3D('',#791,#655,#656);
#535=AXIS2_PLACEMENT_3D('',#797,#660,#661);
#536=AXIS2_PLACEMENT_3D('',#803,#665,#666);
#537=AXIS2_PLACEMENT_3D('',#806,#669,#670);
#538=AXIS2_PLACEMENT_3D('',#807,#671,#672);
#539=AXIS2_PLACEMENT_3D('',#808,#673,#674);
#540=AXIS2_PLACEMENT_3D('',#809,#675,#676);
#541=AXIS2_PLACEMENT_3D('',#810,#677,#678);
#542=DIRECTION('axis',(0.,0.,1.));
#543=DIRECTION('refdir',(1.,0.,0.));
#544=DIRECTION('center_axis',(-2.83276944882393E-16,-1.,1.57772181044213E-30));
#545=DIRECTION('ref_axis',(1.59489787818375E-29,-1.57772181044214E-30,-1.));
#546=DIRECTION('center_axis',(2.83276944882393E-16,1.,-1.57772181044213E-30));
#547=DIRECTION('ref_axis',(1.59489787818375E-29,-1.57772181044214E-30,-1.));
#548=DIRECTION('center_axis',(2.83276944882393E-16,1.,-1.57772181044213E-30));
#549=DIRECTION('ref_axis',(1.59489787818375E-29,-1.57772181044214E-30,-1.));
#550=DIRECTION('',(-1.1371144305661E-16,-0.707106781186548,0.707106781186548));
#551=DIRECTION('center_axis',(-2.83276944882393E-16,-1.,1.57772181044213E-30));
#552=DIRECTION('ref_axis',(1.59489787818375E-29,-1.57772181044214E-30,-1.));
#553=DIRECTION('center_axis',(2.83276944882393E-16,1.,-1.57772181044213E-30));
#554=DIRECTION('ref_axis',(-1.59489787818375E-29,1.57772181044214E-30,1.));
#555=DIRECTION('center_axis',(-2.83276944882393E-16,-1.,1.57772181044213E-30));
#556=DIRECTION('ref_axis',(-1.59489787818375E-29,1.57772181044214E-30,1.));
#557=DIRECTION('',(-2.83276944882393E-16,-1.,1.57772181044213E-30));
#558=DIRECTION('center_axis',(-2.83276944882393E-16,-1.,1.57772181044213E-30));
#559=DIRECTION('ref_axis',(1.59489787818375E-29,-1.57772181044214E-30,-1.));
#560=DIRECTION('',(-1.59489787818375E-29,1.57772181044214E-30,1.));
#561=DIRECTION('center_axis',(2.83276944882393E-16,1.,-1.57772181044213E-30));
#562=DIRECTION('ref_axis',(-1.59489787818375E-29,1.57772181044214E-30,1.));
#563=DIRECTION('',(1.59489787818375E-29,-1.57772181044214E-30,-1.));
#564=DIRECTION('',(1.,-2.83276944882393E-16,1.59489787818375E-29));
#565=DIRECTION('center_axis',(-2.83276944882393E-16,-1.,1.57772181044213E-30));
#566=DIRECTION('ref_axis',(-1.59489787818375E-29,1.57772181044214E-30,1.));
#567=DIRECTION('center_axis',(-2.83276944882393E-16,-1.,1.57772181044213E-30));
#568=DIRECTION('ref_axis',(-1.59489787818375E-29,1.57772181044214E-30,1.));
#569=DIRECTION('',(1.13711443056588E-16,0.707106781186549,0.707106781186546));
#570=DIRECTION('center_axis',(2.83276944882393E-16,1.,-1.57772181044213E-30));
#571=DIRECTION('ref_axis',(-1.59489787818375E-29,1.57772181044214E-30,1.));
#572=DIRECTION('center_axis',(-2.83276944882393E-16,-1.,1.57772181044213E-30));
#573=DIRECTION('ref_axis',(-1.59489787818375E-29,1.57772181044214E-30,1.));
#574=DIRECTION('center_axis',(-2.83276944882393E-16,-1.,1.57772181044213E-30));
#575=DIRECTION('ref_axis',(-1.59489787818375E-29,1.57772181044214E-30,1.));
#576=DIRECTION('',(-2.83276944882393E-16,-1.,1.57772181044213E-30));
#577=DIRECTION('center_axis',(2.83276944882393E-16,1.,-1.57772181044213E-30));
#578=DIRECTION('ref_axis',(-1.59489787818375E-29,1.57772181044214E-30,1.));
#579=DIRECTION('',(1.,-2.83276944882393E-16,1.59489787818375E-29));
#580=DIRECTION('',(-1.59489787818375E-29,1.57772181044214E-30,1.));
#581=DIRECTION('',(-1.,2.83276944882393E-16,-1.59489787818375E-29));
#582=DIRECTION('',(1.59489787818375E-29,-1.57772181044214E-30,-1.));
#583=DIRECTION('center_axis',(-1.,2.83276944882393E-16,-1.59489787818375E-29));
#584=DIRECTION('ref_axis',(-2.83276944882393E-16,-1.,1.57772181044213E-30));
#585=DIRECTION('center_axis',(-1.,2.83276944882393E-16,-1.59489787818375E-29));
#586=DIRECTION('ref_axis',(-2.83276944882393E-16,-1.,1.57772181044213E-30));
#587=DIRECTION('',(0.707106781186547,-0.707106781186547,8.65956056235617E-17));
#588=DIRECTION('center_axis',(1.,-2.83276944882393E-16,1.59489787818375E-29));
#589=DIRECTION('ref_axis',(-2.83276944882393E-16,-1.,1.57772181044213E-30));
#590=DIRECTION('center_axis',(-1.,2.83276944882393E-16,-1.59489787818375E-29));
#591=DIRECTION('ref_axis',(-2.83276944882393E-16,-1.,1.57772181044213E-30));
#592=DIRECTION('center_axis',(-1.,2.83276944882393E-16,-1.59489787818375E-29));
#593=DIRECTION('ref_axis',(-2.83276944882393E-16,-1.,1.57772181044213E-30));
#594=DIRECTION('',(-1.,2.83276944882393E-16,-1.59489787818375E-29));
#595=DIRECTION('center_axis',(-1.,2.83276944882393E-16,-1.59489787818375E-29));
#596=DIRECTION('ref_axis',(-1.59489787818375E-29,1.57772181044214E-30,1.));
#597=DIRECTION('',(-2.83276944882393E-16,-1.,1.57772181044213E-30));
#598=DIRECTION('',(1.59489787818375E-29,-1.57772181044214E-30,-1.));
#599=DIRECTION('',(2.83276944882393E-16,1.,-1.57772181044213E-30));
#600=DIRECTION('',(-2.83276944882393E-16,-1.,1.57772181044213E-30));
#601=DIRECTION('',(2.83276944882393E-16,1.,-1.57772181044213E-30));
#602=DIRECTION('',(-1.59489787818375E-29,1.57772181044214E-30,1.));
#603=DIRECTION('center_axis',(1.,-2.83276944882393E-16,1.59489787818375E-29));
#604=DIRECTION('ref_axis',(-2.83276944882393E-16,-1.,1.57772181044213E-30));
#605=DIRECTION('center_axis',(1.,-2.83276944882393E-16,1.59489787818375E-29));
#606=DIRECTION('ref_axis',(-2.83276944882393E-16,-1.,1.57772181044213E-30));
#607=DIRECTION('',(-0.707106781186548,-0.707106781186547,-8.65956056235594E-17));
#608=DIRECTION('center_axis',(-1.,2.83276944882393E-16,-1.59489787818375E-29));
#609=DIRECTION('ref_axis',(-2.83276944882393E-16,-1.,1.57772181044213E-30));
#610=DIRECTION('center_axis',(-1.,2.83276944882393E-16,-1.59489787818375E-29));
#611=DIRECTION('ref_axis',(-2.83276944882393E-16,-1.,1.57772181044213E-30));
#612=DIRECTION('',(-1.,2.83276944882393E-16,-1.59489787818375E-29));
#613=DIRECTION('center_axis',(1.,-2.83276944882393E-16,1.59489787818375E-29));
#614=DIRECTION('ref_axis',(-2.83276944882393E-16,-1.,1.57772181044213E-30));
#615=DIRECTION('center_axis',(1.,-2.83276944882393E-16,1.59489787818375E-29));
#616=DIRECTION('ref_axis',(1.59489787818375E-29,-1.57772181044214E-30,-1.));
#617=DIRECTION('',(2.83276944882393E-16,1.,-1.57772181044213E-30));
#618=DIRECTION('',(1.59489787818375E-29,-1.57772181044214E-30,-1.));
#619=DIRECTION('',(2.83276944882393E-16,1.,-1.57772181044213E-30));
#620=DIRECTION('',(2.83276944882393E-16,1.,-1.57772181044213E-30));
#621=DIRECTION('',(-2.83276944882393E-16,-1.,1.57772181044213E-30));
#622=DIRECTION('',(-1.59489787818375E-29,1.57772181044214E-30,1.));
#623=DIRECTION('center_axis',(2.83276944882393E-16,1.,-1.57772181044213E-30));
#624=DIRECTION('ref_axis',(-1.59489787818375E-29,1.57772181044214E-30,1.));
#625=DIRECTION('center_axis',(2.83276944882393E-16,1.,-1.57772181044213E-30));
#626=DIRECTION('ref_axis',(-1.59489787818375E-29,1.57772181044214E-30,1.));
#627=DIRECTION('',(-1.1371144305661E-16,-0.707106781186549,0.707106781186546));
#628=DIRECTION('center_axis',(-2.83276944882393E-16,-1.,1.57772181044213E-30));
#629=DIRECTION('ref_axis',(-1.59489787818375E-29,1.57772181044214E-30,1.));
#630=DIRECTION('center_axis',(-2.83276944882393E-16,-1.,1.57772181044213E-30));
#631=DIRECTION('ref_axis',(-1.59489787818375E-29,1.57772181044214E-30,1.));
#632=DIRECTION('',(-2.83276944882393E-16,-1.,1.57772181044213E-30));
#633=DIRECTION('center_axis',(2.83276944882393E-16,1.,-1.57772181044213E-30));
#634=DIRECTION('ref_axis',(-1.59489787818375E-29,1.57772181044214E-30,1.));
#635=DIRECTION('center_axis',(2.83276944882393E-16,1.,-1.57772181044213E-30));
#636=DIRECTION('ref_axis',(-1.59489787818375E-29,1.57772181044214E-30,1.));
#637=DIRECTION('',(-1.,2.83276944882393E-16,-1.59489787818375E-29));
#638=DIRECTION('',(1.,-2.83276944882393E-16,1.59489787818375E-29));
#639=DIRECTION('center_axis',(2.83276944882393E-16,1.,-1.57772181044213E-30));
#640=DIRECTION('ref_axis',(-1.59489787818375E-29,1.57772181044214E-30,1.));
#641=DIRECTION('',(2.86902654303708E-16,0.707106781186548,-0.707106781186548));
#642=DIRECTION('center_axis',(2.83276944882393E-16,1.,-1.57772181044213E-30));
#643=DIRECTION('ref_axis',(-1.59489787818375E-29,1.57772181044214E-30,1.));
#644=DIRECTION('center_axis',(2.83276944882393E-16,1.,-1.57772181044213E-30));
#645=DIRECTION('ref_axis',(-1.59489787818375E-29,1.57772181044214E-30,1.));
#646=DIRECTION('center_axis',(-2.83276944882393E-16,-1.,1.57772181044213E-30));
#647=DIRECTION('ref_axis',(-1.59489787818375E-29,1.57772181044214E-30,1.));
#648=DIRECTION('',(-1.,2.83276944882393E-16,-1.59489787818375E-29));
#649=DIRECTION('center_axis',(-2.83276944882393E-16,-1.,1.57772181044213E-30));
#650=DIRECTION('ref_axis',(-1.,2.83276944882393E-16,-1.59489787818375E-29));
#651=DIRECTION('',(-1.,2.83276944882393E-16,-1.59489787818375E-29));
#652=DIRECTION('',(1.59489787818375E-29,-1.57772181044214E-30,-1.));
#653=DIRECTION('',(-1.,2.83276944882393E-16,-1.59489787818375E-29));
#654=DIRECTION('',(1.59489787818375E-29,-1.57772181044214E-30,-1.));
#655=DIRECTION('center_axis',(1.,-2.83276944882393E-16,1.59489787818375E-29));
#656=DIRECTION('ref_axis',(-2.83276944882393E-16,-1.,1.57772181044213E-30));
#657=DIRECTION('',(-2.83276944882393E-16,-1.,1.57772181044213E-30));
#658=DIRECTION('',(1.59489787818375E-29,-1.57772181044214E-30,-1.));
#659=DIRECTION('',(-2.83276944882393E-16,-1.,1.57772181044213E-30));
#660=DIRECTION('center_axis',(2.83276944882393E-16,1.,-1.57772181044213E-30));
#661=DIRECTION('ref_axis',(1.,-2.83276944882393E-16,1.59489787818375E-29));
#662=DIRECTION('',(1.,-2.83276944882393E-16,1.59489787818375E-29));
#663=DIRECTION('',(1.59489787818375E-29,-1.57772181044214E-30,-1.));
#664=DIRECTION('',(1.,-2.83276944882393E-16,1.59489787818375E-29));
#665=DIRECTION('center_axis',(-1.,2.83276944882393E-16,-1.59489787818375E-29));
#666=DIRECTION('ref_axis',(2.83276944882393E-16,1.,-1.57772181044213E-30));
#667=DIRECTION('',(2.83276944882393E-16,1.,-1.57772181044213E-30));
#668=DIRECTION('',(2.83276944882393E-16,1.,-1.57772181044213E-30));
#669=DIRECTION('center_axis',(1.59489787818375E-29,-1.57772181044214E-30,
-1.));
#670=DIRECTION('ref_axis',(-1.,2.83276944882393E-16,-1.59489787818375E-29));
#671=DIRECTION('center_axis',(-1.59489787818375E-29,1.57772181044214E-30,
1.));
#672=DIRECTION('ref_axis',(-1.,2.83276944882393E-16,-1.59489787818375E-29));
#673=DIRECTION('center_axis',(2.83276944882393E-16,1.,-1.57772181044213E-30));
#674=DIRECTION('ref_axis',(1.22464679914751E-16,-1.61241323082439E-30,-1.));
#675=DIRECTION('center_axis',(-1.59489787818375E-29,1.57772181044214E-30,
1.));
#676=DIRECTION('ref_axis',(1.,-2.83276944882393E-16,1.59489787818375E-29));
#677=DIRECTION('center_axis',(-1.59489787818375E-29,1.57772181044214E-30,
1.));
#678=DIRECTION('ref_axis',(1.,-2.83276944882393E-16,1.59489787818375E-29));
#679=CARTESIAN_POINT('',(0.,0.,0.));
#680=CARTESIAN_POINT('Origin',(-1.2747462519698E-15,-244.5,-134.651381407692));
#681=CARTESIAN_POINT('',(-7.65713739784446E-16,-244.,-131.651381407692));
#682=CARTESIAN_POINT('',(-1.50050181927276E-15,-244.,-137.651381407692));
#683=CARTESIAN_POINT('Origin',(-1.1331077795286E-15,-244.,-134.651381407692));
#684=CARTESIAN_POINT('Origin',(-1.1331077795286E-15,-244.,-134.651381407692));
#685=CARTESIAN_POINT('',(-1.90624344407E-15,-245.,-130.651381407692));
#686=CARTESIAN_POINT('',(-8.46119872268283E-16,-244.5,-131.151381407692));
#687=CARTESIAN_POINT('Origin',(-1.416384724411E-15,-245.,-134.651381407692));
#688=CARTESIAN_POINT('Origin',(9.66761123804663E-28,-240.,-134.651381407692));
#689=CARTESIAN_POINT('',(1.50050181927479E-15,-236.,-137.651381407692));
#690=CARTESIAN_POINT('Origin',(1.13310777953054E-15,-236.,-134.651381407692));
#691=CARTESIAN_POINT('',(-3.67394039743192E-16,-240.,-137.651381407692));
#692=CARTESIAN_POINT('Origin',(-1.11758710370242E-7,-245.,-134.651381295933));
#693=CARTESIAN_POINT('',(-15.0000002235174,-245.,-134.651381407692));
#694=CARTESIAN_POINT('',(-15.0000002235174,-245.,-119.651381184174));
#695=CARTESIAN_POINT('',(-15.,-245.,-134.651381351813));
#696=CARTESIAN_POINT('',(15.,-245.,-134.651381407692));
#697=CARTESIAN_POINT('Origin',(-1.416384724411E-15,-245.,-134.651381407692));
#698=CARTESIAN_POINT('',(15.,-245.,-119.651381184174));
#699=CARTESIAN_POINT('',(15.,-245.,-89.8256906479666));
#700=CARTESIAN_POINT('',(15.,-245.,-119.651381184174));
#701=CARTESIAN_POINT('Origin',(-4.10751570079501E-15,-254.5,-54.6513814076918));
#702=CARTESIAN_POINT('',(-3.7592954535772E-15,-255.,-58.6513814076918));
#703=CARTESIAN_POINT('Origin',(-4.2491541732362E-15,-255.,-54.6513814076918));
#704=CARTESIAN_POINT('',(-4.33327126809797E-15,-254.,-57.6513814076919));
#705=CARTESIAN_POINT('',(-3.67888932109337E-15,-254.5,-58.1513814076918));
#706=CARTESIAN_POINT('Origin',(-3.96587722835381E-15,-254.,-54.6513814076918));
#707=CARTESIAN_POINT('Origin',(4.24915417323558E-15,-225.,-54.6513814076918));
#708=CARTESIAN_POINT('',(-2.46537545129154E-15,-250.000000149012,-57.6513814076919));
#709=CARTESIAN_POINT('Origin',(-2.83276949103579E-15,-250.000000149012,
-54.6513814076918));
#710=CARTESIAN_POINT('',(4.61654821297984E-15,-225.,-57.6513814076918));
#711=CARTESIAN_POINT('Origin',(-4.24915417323552E-15,-255.,-97.325690703846));
#712=CARTESIAN_POINT('',(-15.0000002235174,-255.,-119.651381184174));
#713=CARTESIAN_POINT('',(15.,-255.,-119.651381184174));
#714=CARTESIAN_POINT('',(-7.50000011175872,-255.,-119.651381184174));
#715=CARTESIAN_POINT('',(15.,-255.,-45.));
#716=CARTESIAN_POINT('',(15.,-255.,-134.651381407692));
#717=CARTESIAN_POINT('',(-15.,-255.,-45.));
#718=CARTESIAN_POINT('',(15.,-255.,-45.));
#719=CARTESIAN_POINT('',(-15.,-255.,-45.));
#720=CARTESIAN_POINT('Origin',(-14.5,-240.,-54.6513814076918));
#721=CARTESIAN_POINT('',(-15.,-236.,-54.6513814076918));
#722=CARTESIAN_POINT('Origin',(-15.,-240.,-54.6513814076918));
#723=CARTESIAN_POINT('',(-14.,-237.,-54.6513814076918));
#724=CARTESIAN_POINT('',(-14.5,-236.5,-54.6513814076918));
#725=CARTESIAN_POINT('Origin',(-14.,-240.,-54.6513814076918));
#726=CARTESIAN_POINT('Origin',(15.,-240.,-54.6513814076918));
#727=CARTESIAN_POINT('',(-10.0000001490116,-237.,-54.6513814076918));
#728=CARTESIAN_POINT('Origin',(-10.0000001490116,-240.,-54.6513814076918));
#729=CARTESIAN_POINT('',(15.,-237.,-54.6513814076918));
#730=CARTESIAN_POINT('Origin',(-15.,-240.,-134.651381407692));
#731=CARTESIAN_POINT('',(-15.0000002235174,-225.,-119.651381184174));
#732=CARTESIAN_POINT('',(-15.0000002235174,-235.,-119.651381184174));
#733=CARTESIAN_POINT('',(-15.,-232.5,-119.651381184174));
#734=CARTESIAN_POINT('',(-15.0000002235174,-235.,-134.651381407692));
#735=CARTESIAN_POINT('',(-15.,-235.,-134.651381351813));
#736=CARTESIAN_POINT('',(-15.,-240.,-134.651381407692));
#737=CARTESIAN_POINT('',(-15.,-247.5,-119.651381184174));
#738=CARTESIAN_POINT('',(-15.,-225.,-45.));
#739=CARTESIAN_POINT('',(-15.,-240.,-45.));
#740=CARTESIAN_POINT('',(-15.,-225.,-45.));
#741=CARTESIAN_POINT('Origin',(14.5,-240.,-54.6513814076918));
#742=CARTESIAN_POINT('',(15.,-236.,-54.6513814076918));
#743=CARTESIAN_POINT('Origin',(15.,-240.,-54.6513814076918));
#744=CARTESIAN_POINT('',(14.,-237.,-54.6513814076918));
#745=CARTESIAN_POINT('',(14.5,-236.5,-54.6513814076918));
#746=CARTESIAN_POINT('Origin',(14.,-240.,-54.6513814076918));
#747=CARTESIAN_POINT('Origin',(15.,-240.,-54.6513814076918));
#748=CARTESIAN_POINT('',(10.0000001490116,-237.,-54.6513814076918));
#749=CARTESIAN_POINT('',(15.,-237.,-54.6513814076918));
#750=CARTESIAN_POINT('Origin',(10.0000001490116,-240.,-54.6513814076918));
#751=CARTESIAN_POINT('Origin',(15.,-240.,-45.));
#752=CARTESIAN_POINT('',(15.,-235.,-119.651381184174));
#753=CARTESIAN_POINT('',(15.,-225.,-119.651381184174));
#754=CARTESIAN_POINT('',(15.,-232.5,-119.651381184174));
#755=CARTESIAN_POINT('',(15.,-225.,-45.));
#756=CARTESIAN_POINT('',(15.,-225.,-134.651381407692));
#757=CARTESIAN_POINT('',(15.,-240.,-45.));
#758=CARTESIAN_POINT('',(15.,-247.5,-119.651381184174));
#759=CARTESIAN_POINT('',(15.,-235.,-134.651381407692));
#760=CARTESIAN_POINT('',(15.,-240.,-134.651381407692));
#761=CARTESIAN_POINT('',(15.,-235.,-89.8256906479666));
#762=CARTESIAN_POINT('Origin',(4.10751570079439E-15,-225.5,-54.6513814076918));
#763=CARTESIAN_POINT('',(3.75929545357671E-15,-225.,-58.6513814076918));
#764=CARTESIAN_POINT('Origin',(4.24915417323558E-15,-225.,-54.6513814076918));
#765=CARTESIAN_POINT('',(4.33327126809745E-15,-226.,-57.6513814076919));
#766=CARTESIAN_POINT('',(3.67888932109287E-15,-225.5,-58.1513814076918));
#767=CARTESIAN_POINT('Origin',(3.96587722835319E-15,-226.,-54.6513814076918));
#768=CARTESIAN_POINT('Origin',(4.24915417323558E-15,-225.,-54.6513814076918));
#769=CARTESIAN_POINT('',(2.46537545129101E-15,-229.999999850988,-57.6513814076919));
#770=CARTESIAN_POINT('',(4.61654821297984E-15,-225.,-57.6513814076918));
#771=CARTESIAN_POINT('Origin',(2.83276949103517E-15,-229.999999850988,-54.6513814076918));
#772=CARTESIAN_POINT('Origin',(4.24915417323627E-15,-225.,-97.325690703846));
#773=CARTESIAN_POINT('',(7.50000000000001,-225.,-119.651381184174));
#774=CARTESIAN_POINT('',(15.,-225.,-45.));
#775=CARTESIAN_POINT('Origin',(1.27474625197173E-15,-235.5,-134.651381407692));
#776=CARTESIAN_POINT('',(9.26526004754053E-16,-235.,-138.651381407692));
#777=CARTESIAN_POINT('',(1.70337263167336E-15,-235.5,-138.151381407692));
#778=CARTESIAN_POINT('Origin',(1.41638472441293E-15,-235.,-134.651381407692));
#779=CARTESIAN_POINT('Origin',(-1.11758707537473E-7,-235.,-134.651381295933));
#780=CARTESIAN_POINT('Origin',(1.41638472441293E-15,-235.,-134.651381407692));
#781=CARTESIAN_POINT('',(15.,-235.,-119.651381184174));
#782=CARTESIAN_POINT('Origin',(10.0000001490116,-250.000000149012,-45.));
#783=CARTESIAN_POINT('',(10.0000001490116,-250.000000149012,-45.));
#784=CARTESIAN_POINT('',(-10.0000001490116,-250.000000149012,-45.));
#785=CARTESIAN_POINT('',(-2.4999999254942,-250.000000149012,-45.));
#786=CARTESIAN_POINT('',(10.0000001490116,-250.000000149012,-75.));
#787=CARTESIAN_POINT('',(10.0000001490116,-250.000000149012,-45.));
#788=CARTESIAN_POINT('',(-10.0000001490116,-250.000000149012,-75.));
#789=CARTESIAN_POINT('',(10.0000001490116,-250.000000149012,-75.));
#790=CARTESIAN_POINT('',(-10.0000001490116,-250.000000149012,-45.));
#791=CARTESIAN_POINT('Origin',(10.0000001490116,-229.999999850988,-45.));
#792=CARTESIAN_POINT('',(10.0000001490116,-229.999999850988,-45.));
#793=CARTESIAN_POINT('',(10.0000001490116,-234.999999925494,-45.));
#794=CARTESIAN_POINT('',(10.0000001490116,-229.999999850988,-75.));
#795=CARTESIAN_POINT('',(10.0000001490116,-229.999999850988,-45.));
#796=CARTESIAN_POINT('',(10.0000001490116,-229.999999850988,-75.));
#797=CARTESIAN_POINT('Origin',(-10.0000001490116,-229.999999850988,-45.));
#798=CARTESIAN_POINT('',(-10.0000001490116,-229.999999850988,-45.));
#799=CARTESIAN_POINT('',(-12.5000000745058,-229.999999850988,-45.));
#800=CARTESIAN_POINT('',(-10.0000001490116,-229.999999850988,-75.));
#801=CARTESIAN_POINT('',(-10.0000001490116,-229.999999850988,-45.));
#802=CARTESIAN_POINT('',(-10.0000001490116,-229.999999850988,-75.));
#803=CARTESIAN_POINT('Origin',(-10.0000001490116,-250.000000149012,-45.));
#804=CARTESIAN_POINT('',(-10.0000001490116,-245.000000074506,-45.));
#805=CARTESIAN_POINT('',(-10.0000001490116,-250.000000149012,-75.));
#806=CARTESIAN_POINT('Origin',(1.53825074260867E-29,-240.,-75.));
#807=CARTESIAN_POINT('Origin',(15.,-225.,-119.651381184174));
#808=CARTESIAN_POINT('Origin',(9.66761123804663E-28,-240.,-134.651381407692));
#809=CARTESIAN_POINT('Origin',(-15.0000002235174,-255.,-119.651381184174));
#810=CARTESIAN_POINT('Origin',(-15.,-240.,-45.));
#811=UNCERTAINTY_MEASURE_WITH_UNIT(LENGTH_MEASURE(0.01),#815,
'DISTANCE_ACCURACY_VALUE',
'Maximum model space distance between geometric entities at asserted c
onnectivities');
#812=UNCERTAINTY_MEASURE_WITH_UNIT(LENGTH_MEASURE(0.01),#815,
'DISTANCE_ACCURACY_VALUE',
'Maximum model space distance between geometric entities at asserted c
onnectivities');
#813=(
GEOMETRIC_REPRESENTATION_CONTEXT(3)
GLOBAL_UNCERTAINTY_ASSIGNED_CONTEXT((#811))
GLOBAL_UNIT_ASSIGNED_CONTEXT((#815,#817,#818))
REPRESENTATION_CONTEXT('','3D')
);
#814=(
GEOMETRIC_REPRESENTATION_CONTEXT(3)
GLOBAL_UNCERTAINTY_ASSIGNED_CONTEXT((#812))
GLOBAL_UNIT_ASSIGNED_CONTEXT((#815,#817,#818))
REPRESENTATION_CONTEXT('','3D')
);
#815=(
LENGTH_UNIT()
NAMED_UNIT(*)
SI_UNIT(.MILLI.,.METRE.)
);
#816=(
LENGTH_UNIT()
NAMED_UNIT(*)
SI_UNIT($,.METRE.)
);
#817=(
NAMED_UNIT(*)
PLANE_ANGLE_UNIT()
SI_UNIT($,.RADIAN.)
);
#818=(
NAMED_UNIT(*)
SI_UNIT($,.STERADIAN.)
SOLID_ANGLE_UNIT()
);
#819=SHAPE_DEFINITION_REPRESENTATION(#820,#821);
#820=PRODUCT_DEFINITION_SHAPE('',$,#823);
#821=SHAPE_REPRESENTATION('',(#496),#813);
#822=PRODUCT_DEFINITION_CONTEXT('part definition',#827,'design');
#823=PRODUCT_DEFINITION('FusionComponent','FusionComponent',#824,#822);
#824=PRODUCT_DEFINITION_FORMATION('',$,#829);
#825=PRODUCT_RELATED_PRODUCT_CATEGORY('FusionComponent',
'FusionComponent',(#829));
#826=APPLICATION_PROTOCOL_DEFINITION('international standard',
'automotive_design',2009,#827);
#827=APPLICATION_CONTEXT(
'Core Data for Automotive Mechanical Design Process');
#828=PRODUCT_CONTEXT('part definition',#827,'mechanical');
#829=PRODUCT('FusionComponent','FusionComponent',$,(#828));
#830=PRESENTATION_STYLE_ASSIGNMENT((#832));
#831=PRESENTATION_STYLE_ASSIGNMENT((#833));
#832=SURFACE_STYLE_USAGE(.BOTH.,#834);
#833=SURFACE_STYLE_USAGE(.BOTH.,#835);
#834=SURFACE_SIDE_STYLE('',(#836));
#835=SURFACE_SIDE_STYLE('',(#837));
#836=SURFACE_STYLE_FILL_AREA(#838);
#837=SURFACE_STYLE_FILL_AREA(#839);
#838=FILL_AREA_STYLE('Steel - Satin',(#840));
#839=FILL_AREA_STYLE('Opaque(160,160,160)',(#841));
#840=FILL_AREA_STYLE_COLOUR('Steel - Satin',#842);
#841=FILL_AREA_STYLE_COLOUR('Opaque(160,160,160)',#843);
#842=COLOUR_RGB('Steel - Satin',0.627450980392157,0.627450980392157,0.627450980392157);
#843=COLOUR_RGB('Opaque(160,160,160)',0.627450980392157,0.627450980392157,
0.627450980392157);
ENDSEC;
END-ISO-10303-21;
